<?xml version="1.0" encoding="utf-8"?>
<!-- Generator: Adobe Illustrator 24.1.3, SVG Export Plug-In . SVG Version: 6.00 Build 0)  -->
<svg version="1.1" id="livetype" xmlns="http://www.w3.org/2000/svg" xmlns:xlink="http://www.w3.org/1999/xlink" x="0px" y="0px"
	 viewBox="0 0 119.7 40" style="enable-background:new 0 0 119.7 40;" xml:space="preserve">
<g>
	<g>
		<g>
			<path style="fill:#A6A6A6;" d="M110.1,0H9.5C9.2,0,8.8,0,8.4,0C8.1,0,7.8,0,7.5,0c-0.7,0-1.3,0.1-2,0.2C4.9,0.3,4.2,0.5,3.6,0.8
				C3,1.1,2.5,1.5,2,2C1.5,2.5,1.1,3,0.8,3.6C0.5,4.2,0.3,4.9,0.2,5.5C0.1,6.2,0,6.9,0,7.5c0,0.3,0,0.6,0,0.9v23.1
				c0,0.3,0,0.6,0,0.9c0,0.7,0.1,1.3,0.2,2c0.1,0.7,0.3,1.3,0.6,1.9C1.1,37,1.5,37.5,2,38c0.5,0.5,1,0.9,1.6,1.2
				c0.6,0.3,1.2,0.5,1.9,0.6c0.7,0.1,1.3,0.2,2,0.2c0.3,0,0.6,0,0.9,0c0.4,0,0.7,0,1.1,0h100.6c0.4,0,0.7,0,1.1,0c0.3,0,0.6,0,0.9,0
				c0.7,0,1.3-0.1,2-0.2c0.7-0.1,1.3-0.3,1.9-0.6c0.6-0.3,1.1-0.7,1.6-1.2c0.5-0.5,0.9-1,1.2-1.6c0.3-0.6,0.5-1.2,0.6-1.9
				c0.1-0.7,0.2-1.3,0.2-2c0-0.3,0-0.6,0-0.9c0-0.4,0-0.7,0-1.1V9.5c0-0.4,0-0.7,0-1.1c0-0.3,0-0.6,0-0.9c0-0.7-0.1-1.3-0.2-2
				c-0.1-0.7-0.3-1.3-0.6-1.9c-0.6-1.2-1.6-2.2-2.8-2.8c-0.6-0.3-1.2-0.5-1.9-0.6c-0.7-0.1-1.3-0.2-2-0.2c-0.3,0-0.6,0-0.9,0
				C110.9,0,110.5,0,110.1,0L110.1,0z"/>
			<path d="M8.4,39.1c-0.3,0-0.6,0-0.9,0c-0.6,0-1.3-0.1-1.9-0.2c-0.6-0.1-1.1-0.3-1.7-0.5c-0.5-0.3-1-0.6-1.4-1
				c-0.4-0.4-0.8-0.9-1-1.4c-0.3-0.5-0.4-1.1-0.5-1.7c-0.1-0.6-0.2-1.2-0.2-1.9c0-0.2,0-0.9,0-0.9V8.4c0,0,0-0.7,0-0.9
				c0-0.6,0.1-1.3,0.2-1.9C1.1,5.1,1.3,4.5,1.6,4c0.3-0.5,0.6-1,1-1.4C3,2.2,3.5,1.9,4,1.6c0.5-0.3,1.1-0.4,1.7-0.5
				c0.6-0.1,1.2-0.2,1.9-0.2l0.9,0h102.8l0.9,0c0.6,0,1.2,0.1,1.9,0.2c0.6,0.1,1.1,0.3,1.7,0.5c1,0.5,1.9,1.4,2.4,2.4
				c0.3,0.5,0.4,1.1,0.5,1.6c0.1,0.6,0.2,1.3,0.2,1.9c0,0.3,0,0.6,0,0.9c0,0.4,0,0.7,0,1.1v20.9c0,0.4,0,0.7,0,1.1
				c0,0.3,0,0.6,0,0.9c0,0.6-0.1,1.2-0.2,1.9c-0.1,0.6-0.3,1.1-0.5,1.7c-0.3,0.5-0.6,1-1,1.4c-0.4,0.4-0.9,0.8-1.4,1
				c-0.5,0.3-1.1,0.5-1.7,0.5c-0.6,0.1-1.2,0.2-1.9,0.2c-0.3,0-0.6,0-0.9,0l-1.1,0L8.4,39.1z"/>
		</g>
		<g id="_Group_">
			<g id="_Group_2">
				<g id="_Group_3">
					<path id="_Path_" style="fill:#FFFFFF;" d="M24.8,20.3c0-1.7,0.9-3.3,2.4-4.2c-0.9-1.3-2.4-2.1-4-2.2c-1.7-0.2-3.3,1-4.2,1
						c-0.9,0-2.2-1-3.6-1c-1.9,0.1-3.6,1.1-4.5,2.7c-1.9,3.3-0.5,8.3,1.4,11c0.9,1.3,2,2.8,3.4,2.8c1.4-0.1,1.9-0.9,3.6-0.9
						c1.7,0,2.1,0.9,3.6,0.9c1.5,0,2.4-1.3,3.3-2.7c0.7-0.9,1.2-2,1.5-3.1C25.9,24,24.8,22.2,24.8,20.3z"/>
					<path id="_Path_2" style="fill:#FFFFFF;" d="M22,12.2c0.8-1,1.2-2.2,1.1-3.5c-1.2,0.1-2.4,0.7-3.2,1.7
						c-0.8,0.9-1.2,2.1-1.1,3.4C20.1,13.8,21.2,13.2,22,12.2z"/>
				</g>
			</g>
		</g>
	</g>
	<g id="_Group_4">
		<g>
			<path style="fill:#FFFFFF;" d="M39.4,14.7h-3.7v-6h0.9v5.1h2.8V14.7z"/>
			<path style="fill:#FFFFFF;" d="M40.3,13.4c0-0.8,0.6-1.3,1.7-1.3l1.2-0.1v-0.4c0-0.5-0.3-0.7-0.9-0.7c-0.5,0-0.8,0.2-0.9,0.5
				h-0.9c0.1-0.8,0.8-1.3,1.8-1.3c1.1,0,1.8,0.6,1.8,1.5v3.1h-0.9v-0.6h-0.1c-0.3,0.5-0.8,0.7-1.4,0.7c-0.7,0.1-1.4-0.5-1.5-1.2
				C40.3,13.5,40.3,13.5,40.3,13.4z M43.2,13v-0.4l-1.1,0.1c-0.6,0-0.9,0.3-0.9,0.6c0,0.4,0.4,0.6,0.8,0.6
				C42.6,14.1,43.2,13.7,43.2,13C43.2,13.1,43.2,13.1,43.2,13z"/>
			<path style="fill:#FFFFFF;" d="M45.3,12.4c0-1.4,0.7-2.3,1.9-2.3c0.6,0,1.1,0.3,1.4,0.8h0.1V8.4h0.9v6.3h-0.9V14h-0.1
				c-0.3,0.5-0.8,0.8-1.4,0.8C46,14.8,45.3,13.9,45.3,12.4z M46.2,12.4c0,1,0.5,1.5,1.2,1.5c0.7,0,1.2-0.6,1.2-1.5
				c0-0.9-0.5-1.5-1.2-1.5C46.6,10.9,46.2,11.5,46.2,12.4L46.2,12.4z"/>
			<path style="fill:#FFFFFF;" d="M54.7,13.5c-0.2,0.8-1.1,1.4-2,1.3c-1.1,0-2.1-0.9-2.1-2c0-0.1,0-0.2,0-0.3
				c-0.2-1.1,0.6-2.2,1.8-2.3c0.1,0,0.2,0,0.3,0c1.3,0,2,0.9,2,2.3v0.3h-3.2v0c-0.1,0.7,0.4,1.2,1.1,1.3c0,0,0.1,0,0.1,0
				c0.4,0.1,0.9-0.2,1.1-0.5L54.7,13.5z M51.6,12h2.3c0-0.6-0.4-1.1-1-1.2c0,0-0.1,0-0.1,0C52.2,10.9,51.6,11.4,51.6,12
				C51.6,12,51.6,12,51.6,12L51.6,12z"/>
			<path style="fill:#FFFFFF;" d="M56,10.2h0.9v0.7h0.1c0.2-0.5,0.8-0.8,1.3-0.8c0.8-0.1,1.5,0.5,1.6,1.4c0,0.1,0,0.2,0,0.3v2.9
				h-0.9V12c0-0.7-0.3-1.1-1-1.1c-0.6,0-1.1,0.4-1.1,1c0,0.1,0,0.1,0,0.2v2.6H56L56,10.2z"/>
		</g>
	</g>
</g>
<g>
	<path style="fill:#FFFFFF;" d="M64.2,11.2h-0.6v-0.7h0.6v-0.4c0-0.8,0.4-1.2,1.3-1.2c0.2,0,0.4,0,0.5,0v0.7c-0.1,0-0.2,0-0.3,0
		c-0.4,0-0.6,0.2-0.6,0.6v0.4H66v0.7h-0.9v3.6h-0.9V11.2z"/>
	<path style="fill:#FFFFFF;" d="M70.4,14.8h-0.8v-0.7h0c-0.2,0.5-0.7,0.8-1.3,0.8c-0.9,0-1.5-0.6-1.5-1.6v-2.8h0.9v2.6
		c0,0.7,0.3,1,0.9,1c0.6,0,1-0.4,1-1.1v-2.5h0.9V14.8z M67.2,9.3c0-0.3,0.2-0.5,0.5-0.5s0.5,0.2,0.5,0.5S68,9.8,67.7,9.8
		S67.2,9.6,67.2,9.3z M68.8,9.3c0-0.3,0.2-0.5,0.5-0.5c0.3,0,0.5,0.2,0.5,0.5s-0.2,0.5-0.5,0.5C69,9.8,68.8,9.6,68.8,9.3z"/>
	<path style="fill:#FFFFFF;" d="M71.2,10.5h0.8v0.7h0c0.1-0.5,0.5-0.8,1-0.8c0.1,0,0.2,0,0.3,0v0.8c-0.1,0-0.2,0-0.4,0
		c-0.6,0-0.9,0.4-0.9,1v2.6h-0.9V10.5z"/>
</g>
<path style="fill:#FFFFFF;" d="M47.3,30.4v-9.8h-0.1l-4,9.7h-1.5l-4-9.7h-0.1v9.8h-1.9V17h2.4l4.3,10.5h0.1L46.8,17h2.4v13.3
	L47.3,30.4z"/>
<path style="fill:#FFFFFF;" d="M50.8,27.6c0-1.7,1.3-2.7,3.6-2.9l2.7-0.1v-0.7c0-1.1-0.7-1.7-1.9-1.7c-0.9-0.1-1.8,0.5-2,1.4h-1.9
	c0.1-1.8,1.7-3,4-3c2.3,0,3.9,1.3,3.9,3.2v6.7h-1.9v-1.6h0c-0.6,1.1-1.8,1.8-3.1,1.8c-1.6,0.2-3.1-1-3.2-2.6
	C50.8,27.8,50.8,27.7,50.8,27.6z M57,26.7V26l-2.4,0.1c-1.2,0.1-1.9,0.6-1.9,1.4c0,0.9,0.7,1.4,1.8,1.4C55.8,29,56.9,28.1,57,26.7
	C57,26.8,57,26.8,57,26.7L57,26.7z"/>
<path style="fill:#FFFFFF;" d="M67.4,24c-0.2-1.1-1.2-1.9-2.3-1.8c-1.5,0-2.5,1.3-2.5,3.3c0,2.1,1,3.3,2.6,3.3
	c1.1,0.1,2.1-0.7,2.3-1.7h1.9c-0.2,2.1-2.1,3.6-4.2,3.4c-2.8,0-4.6-1.9-4.6-5c0-3,1.8-5,4.6-5c2.1-0.2,4,1.4,4.2,3.5L67.4,24z"/>
</svg>
