<svg id="Capa_1" enable-background="new 0 0 511.995 511.995" height="512" viewBox="0 0 511.995 511.995" width="512" xmlns="http://www.w3.org/2000/svg"><g><path d="m436.224 511.993h-318.593v-511.991h318.593c9.214 0 16.683 7.469 16.683 16.683v478.625c0 9.214-7.469 16.683-16.683 16.683z" fill="#fd9468"/><path d="m452.906 16.681v478.634c0 9.212-7.469 16.681-16.681 16.681h-23.118c9.212 0 16.681-7.469 16.681-16.681v-478.634c0-9.212-7.469-16.681-16.681-16.681h23.118c9.212 0 16.681 7.469 16.681 16.681z" fill="#fe7d43"/><path d="m127.95 511.993h-52.179c-9.214 0-16.683-7.469-16.683-16.683v-478.625c0-9.214 7.469-16.683 16.683-16.683h52.179z" fill="#8d9ca8"/><path d="m107.315 0h20.632v511.995h-20.632z" fill="#7a8c98"/><path d="m352.072 163.623h-123.287c-3.723 0-6.74-3.018-6.74-6.74v-64.773c0-3.723 3.018-6.74 6.74-6.74h123.286c3.723 0 6.74 3.018 6.74 6.74v64.773c.001 3.722-3.017 6.74-6.739 6.74z" fill="#e4ebef"/><path d="m358.815 92.11v64.773c0 3.724-3.023 6.736-6.747 6.736h-19.899c3.724 0 6.747-3.012 6.747-6.736v-64.773c0-3.724-3.023-6.736-6.747-6.736h19.899c3.725 0 6.747 3.012 6.747 6.736z" fill="#d0d9dd"/><g><g><path d="m404.659 443.882h-119.324c-4.142 0-7.5-3.358-7.5-7.5s3.358-7.5 7.5-7.5h119.324c4.142 0 7.5 3.358 7.5 7.5s-3.358 7.5-7.5 7.5z" fill="#e56430"/></g><g><path d="m404.659 414.276h-119.324c-4.142 0-7.5-3.358-7.5-7.5s3.358-7.5 7.5-7.5h119.324c4.142 0 7.5 3.358 7.5 7.5s-3.358 7.5-7.5 7.5z" fill="#e56430"/></g><g><path d="m404.659 473.488h-119.324c-4.142 0-7.5-3.358-7.5-7.5s3.358-7.5 7.5-7.5h119.324c4.142 0 7.5 3.358 7.5 7.5s-3.358 7.5-7.5 7.5z" fill="#e56430"/></g></g></g></svg>