<?xml version="1.0" encoding="iso-8859-1"?>
<!-- Generator: Adobe Illustrator 19.0.0, SVG Export Plug-In . SVG Version: 6.00 Build 0)  -->
<svg version="1.1" id="Capa_1" xmlns="http://www.w3.org/2000/svg" xmlns:xlink="http://www.w3.org/1999/xlink" x="0px" y="0px"
	 viewBox="0 0 512.009 512.009" style="enable-background:new 0 0 512.009 512.009;" xml:space="preserve">
<polyline style="fill:#E9BB91;" points="0.005,124.412 58.874,0.001 453.137,0.001 512.004,124.412 275.927,193.372 "/>
<rect x="0.005" y="124.416" style="fill:#CA936C;" width="511.999" height="387.594"/>
<g>
	<polygon style="fill:#764F43;" points="296.3,124.416 296.3,232.009 215.707,232.009 215.707,124.416 224.975,0 287.032,0 	"/>
	<rect x="215.703" y="404.406" style="fill:#764F43;" width="80.593" height="107.593"/>
</g>
<polyline style="fill:#8E6459;" points="215.708,124.412 224.975,0.001 287.035,0.001 296.302,124.412 "/>
<g>
	<path style="fill:#764F43;" d="M46.265,386.756l12.988-12.988v62.022c0,4.328,3.508,7.837,7.837,7.837s7.837-3.509,7.837-7.837
		v-62.022l12.987,12.987c1.531,1.531,3.536,2.296,5.542,2.296c2.005,0,4.011-0.765,5.542-2.296c3.061-3.06,3.061-8.023,0-11.082
		l-26.365-26.366c-1.47-1.47-3.463-2.296-5.542-2.296c-2.078,0-4.071,0.825-5.542,2.296l-26.366,26.366
		c-3.061,3.06-3.061,8.023,0,11.082C38.242,389.816,43.204,389.817,46.265,386.756z"/>
	<path style="fill:#764F43;" d="M124.629,386.756l12.987-12.987v62.022c0,4.328,3.508,7.837,7.837,7.837
		c4.329,0,7.837-3.509,7.837-7.837v-62.022l12.987,12.987c1.531,1.531,3.536,2.296,5.542,2.296c2.005,0,4.011-0.765,5.542-2.296
		c3.061-3.06,3.061-8.023,0-11.082l-26.365-26.366c-1.47-1.47-3.463-2.296-5.542-2.296c-2.079,0-4.071,0.825-5.542,2.296
		l-26.365,26.366c-3.061,3.06-3.061,8.023,0,11.082C116.607,389.816,121.568,389.816,124.629,386.756z"/>
	<path style="fill:#764F43;" d="M171.312,455.12H41.229c-4.329,0-7.837,3.509-7.837,7.837c0,4.328,3.508,7.837,7.837,7.837h130.082
		c4.329,0,7.837-3.509,7.837-7.837C179.148,458.629,175.641,455.12,171.312,455.12z"/>
</g>
<rect x="333.39" y="177.695" style="fill:#F5FFFF;" width="139.483" height="108.147"/>
<g>
	<path style="fill:#764F43;" d="M443.624,220.83h-79.93c-4.329,0-7.837-3.509-7.837-7.837s3.508-7.837,7.837-7.837h79.93
		c4.329,0,7.837,3.509,7.837,7.837S447.953,220.83,443.624,220.83z"/>
	<path style="fill:#764F43;" d="M443.624,258.383h-79.93c-4.329,0-7.837-3.509-7.837-7.837s3.508-7.837,7.837-7.837h79.93
		c4.329,0,7.837,3.509,7.837,7.837S447.953,258.383,443.624,258.383z"/>
</g>
<g>
</g>
<g>
</g>
<g>
</g>
<g>
</g>
<g>
</g>
<g>
</g>
<g>
</g>
<g>
</g>
<g>
</g>
<g>
</g>
<g>
</g>
<g>
</g>
<g>
</g>
<g>
</g>
<g>
</g>
</svg>
