<?xml version="1.0" encoding="utf-8"?>
<!-- Generator: Adobe Illustrator 24.2.3, SVG Export Plug-In . SVG Version: 6.00 Build 0)  -->
<svg version="1.1" id="Capa_1" xmlns="http://www.w3.org/2000/svg" xmlns:xlink="http://www.w3.org/1999/xlink" x="0px" y="0px"
	 viewBox="0 0 470.8 412.1" style="enable-background:new 0 0 470.8 412.1;" xml:space="preserve">
<g>
	<g>
		<g>
			<g>
				<g>
					<g>
						<path style="fill:#FFE07D;" d="M363.3,0h-315C22.1,0,0.8,21.2,0.8,47.4v210.9c0,26.2,21.2,47.4,47.4,47.4h20
							c6.1,0,11.8,3.3,14.9,8.6l32,55.2c3.2,0,6.2-1.7,7.8-4.5l29.4-50.7c3.1-5.3,8.8-8.6,14.9-8.6h60.1h0h136.1
							c26.2,0,47.4-21.2,47.4-47.4V47.4C410.7,21.2,389.5,0,363.3,0L363.3,0z"/>
						<g>
							<path style="fill:#FFD064;" d="M147.1,314.4l-32,55.2l20.7,35.7c5.3,9.2,18.5,9.2,23.9,0l52.6-90.9c3.1-5.3,8.8-8.6,14.9-8.6
								H162C155.8,305.8,150.1,309,147.1,314.4L147.1,314.4z"/>
							<path style="fill:#FFD064;" d="M423.3,0h-65.2c26.2,0,47.4,21.2,47.4,47.4v210.9c0,26.2-21.2,47.4-47.4,47.4h65.2
								c26.2,0,47.4-21.2,47.4-47.4V47.4C470.8,21.2,449.5,0,423.3,0L423.3,0z"/>
						</g>
					</g>
				</g>
			</g>
		</g>
		<g>
			<g>
				<path style="fill:#F0F7FF;" d="M411.5,231.4H60.1c-4.3,0-7.7-3.5-7.7-7.7s3.5-7.7,7.7-7.7h351.4c4.3,0,7.7,3.5,7.7,7.7
					S415.8,231.4,411.5,231.4z"/>
			</g>
			<g>
				<path style="fill:#F0F7FF;" d="M342.2,159.5H62.5c-5.6,0-10.1-3.5-10.1-7.7s4.5-7.7,10.1-7.7h279.7c5.6,0,10.1,3.5,10.1,7.7
					S347.7,159.5,342.2,159.5z"/>
			</g>
			<g>
				<path style="fill:#F0F7FF;" d="M273.9,87.6H60.1c-4.3,0-7.7-3.5-7.7-7.7s3.5-7.7,7.7-7.7h213.8c4.3,0,7.7,3.5,7.7,7.7
					S278.2,87.6,273.9,87.6z"/>
			</g>
		</g>
	</g>
</g>
</svg>
