<?xml version="1.0" encoding="iso-8859-1"?>
<!-- Generator: Adobe Illustrator 19.0.0, SVG Export Plug-In . SVG Version: 6.00 Build 0)  -->
<svg version="1.1" id="Layer_1" xmlns="http://www.w3.org/2000/svg" xmlns:xlink="http://www.w3.org/1999/xlink" x="0px" y="0px"
	 viewBox="0 0 512 512" style="enable-background:new 0 0 512 512;" xml:space="preserve">
<polygon style="fill:#A66206;" points="3.23,283.746 3.23,283.746 9.15,276.961 75.646,238.57 77.597,239.704 81.572,235.149 
	148.068,196.758 150.019,197.89 153.994,193.336 220.49,154.945 222.441,156.078 226.416,151.524 292.911,113.131 294.862,114.265 
	298.838,109.71 365.333,71.319 431.368,109.695 435.339,114.256 437.285,113.132 503.32,151.508 509.24,158.309 509.24,158.309 
	512,166.991 512,233.435 156.297,439.05 147.132,440.681 137.967,439.05 0,358.873 0,292.429 "/>
<polygon style="fill:#D07400;" points="431.368,109.695 365.333,71.319 298.838,109.71 364.872,148.086 "/>
<polygon style="fill:#884D01;" points="431.368,109.695 437.29,116.496 364.868,158.308 364.872,148.086 "/>
<polygon style="fill:#A66206;" points="298.838,109.71 292.917,116.495 364.868,158.308 364.872,148.086 "/>
<polygon style="fill:#D07400;" points="503.32,151.508 437.285,113.132 370.789,151.524 436.824,189.899 "/>
<polygon style="fill:#884D01;" points="156.297,372.607 512,166.991 512,233.435 156.297,439.051 "/>
<polygon style="fill:#D07400;" points="512,166.991 509.24,158.309 147.132,367.373 156.297,372.607 "/>
<polygon style="fill:#884D01;" points="503.32,151.508 509.24,158.309 436.819,200.122 436.824,189.899 "/>
<polygon style="fill:#A66206;" points="370.789,151.524 364.868,158.308 436.819,200.122 436.824,189.899 "/>
<polygon style="fill:#D07400;" points="358.947,151.507 292.911,113.131 226.416,151.524 292.451,189.899 "/>
<polygon style="fill:#884D01;" points="358.947,151.507 364.868,158.308 292.447,200.121 292.451,189.899 "/>
<polygon style="fill:#A66206;" points="226.416,151.524 220.495,158.308 292.447,200.121 292.451,189.899 "/>
<polygon style="fill:#D07400;" points="430.898,193.32 364.863,154.945 298.367,193.337 364.402,231.712 "/>
<polygon style="fill:#884D01;" points="430.898,193.32 436.819,200.122 364.397,241.934 364.402,231.712 "/>
<polygon style="fill:#A66206;" points="298.367,193.337 292.447,200.121 364.397,241.934 364.402,231.712 "/>
<polygon style="fill:#D07400;" points="286.525,193.32 220.49,154.945 153.995,193.336 220.029,231.711 "/>
<polygon style="fill:#884D01;" points="286.525,193.32 292.447,200.121 220.025,241.933 220.029,231.711 "/>
<polygon style="fill:#A66206;" points="153.995,193.336 148.073,200.12 220.025,241.933 220.029,231.711 "/>
<polygon style="fill:#D07400;" points="358.477,235.133 292.441,196.758 225.945,235.149 291.98,273.524 "/>
<polygon style="fill:#884D01;" points="358.477,235.133 364.397,241.934 291.975,283.748 291.98,273.524 "/>
<polygon style="fill:#A66206;" points="225.945,235.149 220.025,241.933 291.975,283.748 291.98,273.524 "/>
<polygon style="fill:#D07400;" points="214.103,235.132 148.068,196.757 81.572,235.149 147.607,273.524 "/>
<polygon style="fill:#884D01;" points="214.103,235.132 220.025,241.933 147.603,283.747 147.607,273.524 "/>
<polygon style="fill:#A66206;" points="81.572,235.149 75.652,241.933 147.603,283.747 147.607,273.524 "/>
<polygon style="fill:#D07400;" points="286.055,276.946 220.02,238.571 153.524,276.962 219.559,315.337 "/>
<polygon style="fill:#884D01;" points="286.055,276.946 291.975,283.748 219.554,325.56 219.559,315.337 "/>
<polygon style="fill:#A66206;" points="153.524,276.962 147.603,283.747 219.554,325.56 219.559,315.337 "/>
<polygon style="fill:#D07400;" points="141.682,276.945 75.646,238.57 9.15,276.961 75.186,315.336 "/>
<polygon style="fill:#884D01;" points="141.682,276.945 147.603,283.747 75.181,325.56 75.186,315.336 "/>
<g>
	<polygon style="fill:#A66206;" points="9.15,276.961 3.23,283.746 75.181,325.56 75.186,315.336 	"/>
	<polygon style="fill:#A66206;" points="137.967,372.607 0,292.429 0,358.873 137.967,439.051 	"/>
</g>
<polygon style="fill:#D07400;" points="213.633,318.758 147.598,280.383 81.102,318.775 147.137,357.15 "/>
<polygon style="fill:#A66206;" points="156.297,439.051 147.132,440.681 147.132,367.373 156.297,372.607 "/>
<polygon style="fill:#D07400;" points="0,292.429 3.23,283.746 147.132,367.373 137.967,372.607 "/>
<g>
	<polygon style="fill:#884D01;" points="137.967,439.051 147.132,440.681 147.132,367.373 137.967,372.607 	"/>
	<polygon style="fill:#884D01;" points="213.633,318.758 219.554,325.56 147.132,367.373 147.137,357.15 	"/>
</g>
<polygon style="fill:#A66206;" points="81.102,318.775 75.181,325.56 147.132,367.373 147.137,357.15 "/>
<g>
</g>
<g>
</g>
<g>
</g>
<g>
</g>
<g>
</g>
<g>
</g>
<g>
</g>
<g>
</g>
<g>
</g>
<g>
</g>
<g>
</g>
<g>
</g>
<g>
</g>
<g>
</g>
<g>
</g>
</svg>
