<svg id="Layer_1" enable-background="new 0 0 512 512" height="512" viewBox="0 0 512 512" width="512" xmlns="http://www.w3.org/2000/svg"><g><g><path d="m512 256c0-3.11-.056-6.208-.165-9.291-4.891-137.081-117.56-246.709-255.835-246.709s-250.944 109.628-255.834 246.709c-.11 3.083-.166 6.181-.166 9.291 0 141.385 131.502 246.71 256 246.71 126.754 0 256-105.325 256-246.71z" fill="#ff5876"/><path d="m256 493.419c-138.273 0-250.922-109.631-255.814-246.71-.111 3.086-.186 6.179-.186 9.291 0 141.385 114.615 256 256 256s256-114.615 256-256c0-3.112-.075-6.205-.185-9.29-4.893 137.079-117.542 246.709-255.815 246.709z" fill="#e6485d"/><path d="m469.419 246.709c-4.864-113.667-98.554-204.327-213.419-204.327s-208.555 90.66-213.419 204.327c-.132 3.081-.001 209.321 213.419 209.321s213.551-206.24 213.419-209.321z" fill="#e4eef9"/><path d="m256 451.037c-114.864 0-208.539-90.662-213.405-204.328-.132 3.082-.213 6.176-.213 9.29 0 117.978 95.64 213.618 213.618 213.618s213.618-95.639 213.618-213.617c0-3.114-.082-6.209-.213-9.29-4.866 113.666-98.541 204.327-213.405 204.327z" fill="#d5e0f2"/><path d="m333.595 181.05c-6.089-6.005-15.893-5.938-21.897.15l-36.334 36.837 3.651 17.537 16.972 5.654 37.759-38.281c6.004-6.088 5.937-15.892-.151-21.897z" fill="#405b6c"/><path d="m234.082 219.447-82.402-73.432c-6.385-5.69-16.172-5.126-21.861 1.259-5.689 6.384-5.126 16.172 1.259 21.861l84.025 74.878 17.509-5.84z" fill="#405b6c"/><path d="m365.636 355.837c-1.758 0-3.524-.595-4.976-1.814l-98.073-82.378c-3.273-2.75-3.699-7.634-.949-10.907 2.75-3.275 7.633-3.7 10.908-.949l98.073 82.379c3.273 2.75 3.699 7.634.949 10.907-1.531 1.823-3.724 2.762-5.932 2.762z" fill="#86dcff"/><path d="m215.103 244.013 14.46 12.886 18.57-6.31-1.007-19.519-13.043-11.623c-9.075 5.453-15.944 14.19-18.98 24.566z" fill="#2d4456"/><path d="m275.363 218.038-12.294 12.464v24.466h19.366l13.552-13.739c-3.724-10.076-11.151-18.349-20.624-23.191z" fill="#2d4456"/><path d="m280.783 246.708c-3.762-10.03-13.439-17.169-24.783-17.169s-21.021 7.139-24.783 17.169c-1.084 2.891-.072 26.462 24.783 26.462s25.867-23.571 24.783-26.462z" fill="#ff5876"/><path d="m256 263.88c-11.344 0-21.017-7.14-24.779-17.17-1.085 2.891-1.682 6.02-1.682 9.29 0 14.614 11.847 26.46 26.46 26.46 14.614 0 26.46-11.847 26.46-26.46 0-3.27-.597-6.399-1.681-9.29-3.761 10.029-13.434 17.17-24.778 17.17z" fill="#e6485d"/></g><g fill="#405b6c"><path d="m263.757 93.573v-24.027c0-4.284-3.473-7.757-7.757-7.757s-7.757 3.473-7.757 7.757v24.027c0 4.284 3.472 7.757 7.757 7.757s7.757-3.473 7.757-7.757z"/><path d="m248.243 418.427v24.027c0 4.284 3.472 7.757 7.757 7.757s7.757-3.473 7.757-7.757v-24.027c0-4.284-3.473-7.757-7.757-7.757s-7.757 3.473-7.757 7.757z"/><path d="m442.454 263.757c4.285 0 7.757-3.473 7.757-7.757s-3.473-7.757-7.757-7.757h-24.027c-4.284 0-7.757 3.473-7.757 7.757s3.473 7.757 7.757 7.757z"/><path d="m69.546 248.243c-4.285 0-7.757 3.473-7.757 7.757s3.472 7.757 7.757 7.757h24.027c4.285 0 7.757-3.473 7.757-7.757s-3.473-7.757-7.757-7.757z"/></g></g></svg>