<svg height="512" viewBox="0 0 58 58" width="512" xmlns="http://www.w3.org/2000/svg"><g id="Page-1" fill="none" fill-rule="evenodd"><g id="021---Monitor" fill-rule="nonzero" transform="translate(-1)"><path id="Shape" d="m59 2.18v39.82h-58v-39.82c-.04521019-1.152631.84774936-2.12595691 2-2.18h54c1.1522506.05404309 2.0452102 1.027369 2 2.18z" fill="#2980ba"/><path id="Shape" d="m52.06 0c-.74 5.8-5.13 35.02-51.06 35.43v-33.25c-.04521019-1.152631.84774936-2.12595691 2-2.18z" fill="#3b97d3"/><path id="Shape" d="m59 42v3.82c.0452102 1.152631-.8477494 2.1259569-2 2.18h-54c-1.15225064-.0540431-2.04521019-1.027369-2-2.18v-3.82z" fill="#84b5cb"/><path id="Shape" d="m41 54h-22l3-6h16z" fill="#547580"/><path id="Shape" d="m47 56c-.0032948 1.1032019-.8967981 1.9967052-2 2h-30c-1.1011688-.0081672-1.9918328-.8988312-2-2 .0032948-1.1032019.8967981-1.9967052 2-2h30c1.1011688.0081672 1.9918328.8988312 2 2z" fill="#84b5cb"/><g fill="#fff"><path id="Shape" d="m5 9c-.4043959-.00008635-.76893405-.2437275-.92367798-.61734544s-.06922994-.80366031.21667798-1.08965456l4-4c.25107447-.25995658.62287789-.3642126.97250732-.27269716.34962944.09151544.6226744.3645604.71418984.71418984.09151544.34962943-.01274058.72143285-.27269716.97250732l-4 4c-.18749273.18754937-.44180519.29294336-.707.293z"/><path id="Shape" d="m5 15c-.4043959-.0000863-.76893405-.2437275-.92367798-.6173454-.15474393-.373618-.06922994-.8036603.21667798-1.0896546l10-10c.2510745-.25995658.6228779-.3642126.9725073-.27269716.3496295.09151544.6226744.3645604.7141899.71418984.0915154.34962943-.0127406.72143285-.2726972.97250732l-10 10c-.18749273.1875494-.44180519.2929434-.707.293z"/></g></g></g></svg>