<?xml version="1.0" encoding="iso-8859-1"?>
<!-- Generator: Adobe Illustrator 19.0.0, SVG Export Plug-In . SVG Version: 6.00 Build 0)  -->
<svg version="1.1" id="Capa_1" xmlns="http://www.w3.org/2000/svg"  x="0px" y="0px"
	 viewBox="0 0 512 512" style="enable-background:new 0 0 512 512;" xml:space="preserve">
<path style="fill:#E5E5E5;" d="M255.949,90c-8.291,0-15-6.709-15-15V15c0-8.291,6.709-15,15-15s15,6.709,15,15v60
	C270.949,83.291,264.24,90,255.949,90z"/>
<path style="fill:#D9D9D9;" d="M270.949,75V15c0-8.291-6.709-15-15-15v90C264.24,90,270.949,83.291,270.949,75z"/>
<path style="fill:#E5E5E5;" d="M179.015,93.809l-42.422-27.422c-6.958-4.497-8.95-13.784-4.453-20.742
	c4.512-6.958,13.77-8.979,20.742-4.453l42.422,27.422c6.958,4.497,8.95,13.784,4.453,20.742
	C195.26,96.309,185.974,98.299,179.015,93.809z"/>
<path style="fill:#FEA832;" d="M420.949,121h-165h-165c-2.862,0-5.502,0.961-7.853,2.433l8.322,99.754L165.949,256l75.469-38.438
	L345.949,256l75-35.156l7.853-97.41C426.453,121.961,423.811,121,420.949,121z"/>
<path style="fill:#FE9923;" d="M345.949,256l75-35.156l7.853-97.41c-2.349-1.472-4.991-2.434-7.853-2.434h-165v101.906L345.949,256z
	"/>
<path style="fill:#D9D9D9;" d="M312.14,89.355c-4.497-6.958-2.505-16.245,4.453-20.742l42.422-27.422
	c6.958-4.541,16.23-2.505,20.742,4.453c4.497,6.958,2.505,16.245-4.453,20.742l-42.422,27.422
	C325.924,98.299,316.638,96.309,312.14,89.355z"/>
<path style="fill:#FFD400;" d="M510.37,248.046l-76.706-120c-1.223-1.956-2.966-3.424-4.861-4.612L345.949,256l-90-135l-90,135
	L83.096,123.433c-1.895,1.188-3.638,2.657-4.861,4.612l-76.346,120c-1.485,2.369-1.902,5.176-1.831,7.954l74.017,45h343.75
	l94.123-45C511.979,253.123,511.712,250.186,510.37,248.046z"/>
<path style="fill:#FDBF00;" d="M417.823,301l94.123-45c0.033-2.876-0.234-5.813-1.577-7.954l-76.706-120
	c-1.223-1.956-2.966-3.424-4.861-4.612L345.949,256l-90-135v180H417.823z"/>
<polygon style="fill:#FEA832;" points="345.949,256 165.949,256 148.136,357.25 255.949,512 356.73,377.875 "/>
<polygon style="fill:#FE9923;" points="345.949,256 255.949,256 255.949,512 356.73,377.875 "/>
<path style="fill:#FE8821;" d="M0.057,256c0.106,4.125,1.516,8.181,3.94,10.605l241.346,241c2.93,2.93,6.768,4.395,10.605,4.395
	l-90-256H0.057z"/>
<path style="fill:#E5741A;" d="M345.949,256l-90,256c3.838,0,7.676-1.465,10.605-4.395l241.706-241
	c2.677-2.677,3.64-6.643,3.686-10.605H345.949z"/>
<g>
</g>
<g>
</g>
<g>
</g>
<g>
</g>
<g>
</g>
<g>
</g>
<g>
</g>
<g>
</g>
<g>
</g>
<g>
</g>
<g>
</g>
<g>
</g>
<g>
</g>
<g>
</g>
<g>
</g>
</svg>
