<?xml version="1.0" encoding="utf-8"?>
<!-- Generator: Adobe Illustrator 24.2.1, SVG Export Plug-In . SVG Version: 6.00 Build 0)  -->
<svg version="1.1" id="Capa_1" xmlns="http://www.w3.org/2000/svg" xmlns:xlink="http://www.w3.org/1999/xlink" x="0px" y="0px"
	 viewBox="0 0 282.4 409.6" style="enable-background:new 0 0 282.4 409.6;" xml:space="preserve">
<g>
	<g>
		<g id="XMLID_559_">
			<g>
				<path style="fill:#FFCEBF;" d="M231.5,114.1c0-7,2.8-13.4,7.5-18c4.6-4.6,11-7.5,18-7.5c14.1,0,25.5,11.4,25.5,25.5V161v157.6
					c0,5.2-1.4,10.4-4,14.9l-12.3,21.1v45.2c0,4.9-3.9,8.8-8.8,8.9l-125.6,0.9c-4.9,0-8.9-3.9-8.9-8.9v-38.2l-51.9-48.2
					c-2.9-2.7-5.2-5.8-7-9.3L2.4,185.5c-1.6-3-2.4-6.3-2.4-9.6c0-5.8,2.5-11.5,7.2-15.5c7.8-6.5,19.3-6.2,26.7,0.7l44.8,41.7V25.5
					c0-7,2.8-13.4,7.5-18c4.7-4.7,11.3-7.6,18.5-7.4c14,0.3,25,12.1,25,26v88c0-14.1,11.4-25.5,25.5-25.5c7,0,13.4,2.8,18,7.5
					c4.6,4.6,7.5,11,7.5,18c0-14.1,11.4-25.5,25.5-25.5c7,0,13.4,2.8,18,7.5C228.7,100.7,231.5,107,231.5,114.1L231.5,114.1z"/>
				<g>
					<path style="fill:#FFB09E;" d="M148.8,400.7v-38.2l-51.9-48.2c-2.9-2.7-5.2-5.8-7-9.3L28.4,185.5c-1.6-3-2.4-6.3-2.4-9.6
						c0-5.8,2.5-11.5,7.2-15.4c-7.5-6.3-18.4-6.4-26,0c-4.7,3.9-7.2,9.7-7.2,15.5c0,3.3,0.8,6.5,2.4,9.6L63.9,305
						c1.8,3.5,4.2,6.6,7,9.3l51.9,48.2v38.2c0,4.9,4,8.9,8.9,8.9l24.2-0.2C151.8,408.6,148.8,405.1,148.8,400.7L148.8,400.7z"/>
					<path style="fill:#FFB09E;" d="M90,202.9c8.2,0,14.8-6.6,14.8-14.8V25.5c0-7,2.8-13.4,7.5-18c1.5-1.5,3.1-2.8,4.9-3.8
						c-3.6-2.2-7.9-3.5-12.4-3.6c-7.2-0.1-13.8,2.7-18.5,7.4c-4.6,4.6-7.5,11-7.5,18v177.4L90,202.9z"/>
				</g>
			</g>
		</g>
	</g>
</g>
</svg>
