<?xml version="1.0" encoding="iso-8859-1"?>
<!-- Generator: Adobe Illustrator 19.0.0, SVG Export Plug-In . SVG Version: 6.00 Build 0)  -->
<svg version="1.1" id="Capa_1" xmlns="http://www.w3.org/2000/svg"  x="0px" y="0px"
	 viewBox="0 0 511.995 511.995" style="enable-background:new 0 0 511.995 511.995;" xml:space="preserve">
<circle style="fill:#393A59;" cx="256.029" cy="255.998" r="255.966"/>
<g>
	<path style="fill:#6A6577;" d="M141.069,314.789c0,16.727-13.561,30.298-30.298,30.298H16.063
		C-6.545,284.345-4.56,219.915,17.443,163.299h52.113c8.369,0,15.933,3.385,21.418,8.87c5.485,5.485,8.88,13.059,8.88,21.428
		c0,16.727-13.571,30.298-30.298,30.298H50.749c-16.737,0-30.298,13.561-30.298,30.298c0,16.727,13.561,30.298,30.298,30.298h60.021
		c8.369,0,15.943,3.385,21.428,8.87C137.684,298.846,141.069,306.421,141.069,314.789z"/>
	<path style="fill:#6A6577;" d="M492.735,353.424c-20.258,49.229-55.79,92.21-103.515,121.192h-15.128
		c-16.727,0-30.298-13.561-30.298-30.298c0-16.737,13.571-30.298,30.298-30.298h10.813c16.737,0,30.298-13.571,30.298-30.298
		c0-16.737,13.571-30.298,30.298-30.298H492.735z"/>
	<path style="fill:#6A6577;" d="M454.058,93.708h-15.086c-8.358,0-15.943,3.395-21.418,8.87c-5.485,5.485-8.88,13.059-8.88,21.428
		c0,16.727-13.561,30.298-30.298,30.298H250.549c-16.737,0-30.298-13.561-30.298-30.298s13.561-30.298,30.298-30.298h10.813
		c16.737,0,30.298-13.571,30.298-30.298c0-16.737,13.571-30.298,30.298-30.298h59.938C409.144,48.459,433.727,68.863,454.058,93.708
		z"/>
</g>
<path style="fill:#EDEDED;" d="M453.536,248.437c0,0-3.082,164.038-206.215,263.384c-35.731-1.191-69.602-9.706-100.161-24.092
	c5.381-26.171,3.479-60.053-13.927-102.971c-6.143-15.159-13.665-29.713-22.253-43.619c-12.84-20.78-43.849-77.793-37.496-134.91
	C85.132,101.282,179.662,25.652,284.608,37.312C389.554,48.961,465.185,143.491,453.536,248.437z"/>
<path style="fill:#D9D9D9;" d="M180.613,384.757c20.112,49.584,12.819,87.112-4.106,114.621
	c-10.071-3.291-19.871-7.188-29.347-11.649c5.381-26.171,3.479-60.053-13.927-102.971c-6.143-15.159-13.665-29.713-22.253-43.619
	c-12.84-20.78-43.849-77.793-37.496-134.91C85.132,101.282,179.662,25.652,284.608,37.312c0.804,0.084,1.598,0.199,2.403,0.293
	c-85.754,10.719-156.192,78.963-166.148,168.624c-6.342,57.117,24.656,114.13,37.496,134.91
	C166.958,355.044,174.47,369.597,180.613,384.757z"/>
<g>
	<circle style="fill:#393A59;" cx="267.563" cy="147.844" r="31.343"/>
	
		<ellipse transform="matrix(-0.3956 -0.9184 0.9184 -0.3956 400.3768 519.3353)" style="fill:#393A59;" cx="371.07" cy="127.928" rx="24.747" ry="17.963"/>
	<path style="fill:#393A59;" d="M387.169,230.784c4.068,0.828,7.616-2.794,6.766-6.857c-6.166-29.438-20.422-50.635-51.259-45.921
		c-30.741,4.698-52.711,31.284-52.488,61.491c0.031,4.276,4.511,7.056,8.333,5.138l6.315-3.169
		c25.207-12.648,53.932-16.464,81.568-10.839L387.169,230.784z"/>
</g>
<g>
</g>
<g>
</g>
<g>
</g>
<g>
</g>
<g>
</g>
<g>
</g>
<g>
</g>
<g>
</g>
<g>
</g>
<g>
</g>
<g>
</g>
<g>
</g>
<g>
</g>
<g>
</g>
<g>
</g>
</svg>
