<?xml version="1.0" encoding="utf-8"?>
<!-- Generator: Adobe Illustrator 23.0.4, SVG Export Plug-In . SVG Version: 6.00 Build 0)  -->
<svg version="1.1" id="Ebene_1" xmlns="http://www.w3.org/2000/svg" xmlns:xlink="http://www.w3.org/1999/xlink" x="0px" y="0px"
	 viewBox="0 0 500 400" style="enable-background:new 0 0 500 400;" xml:space="preserve">
<ellipse style="opacity:0.11;" cx="250.5" cy="387" rx="138.5" ry="10"/>
<path style="fill:#F7434C;" d="M374.07,232.01H125.93c-2.6,0-4.71,2.11-4.71,4.71v145.99c0,2.6,2.11,4.71,4.71,4.71h248.13
	c2.6,0,4.71-2.11,4.71-4.71V236.72C378.77,234.12,376.67,232.01,374.07,232.01z"/>
<path style="fill:#DB2E37;" d="M374.07,232.01H125.93c-2.6,0-4.71,2.11-4.71,4.71v18.82h257.54v-18.82
	C378.77,234.12,376.67,232.01,374.07,232.01z"/>
<path style="fill:#FFDB57;" d="M274.04,232.01h-48.07c-2.6,0-4.71,2.11-4.71,4.71v145.99c0,2.6,2.11,4.71,4.71,4.71h48.07
	c2.6,0,4.71-2.11,4.71-4.71V236.72C278.74,234.12,276.64,232.01,274.04,232.01z"/>
<path style="fill:#F5BA3D;" d="M274.04,232.01h-48.07c-2.6,0-4.71,2.11-4.71,4.71v18.72h57.48v-18.72
	C278.74,234.12,276.64,232.01,274.04,232.01z"/>
<path style="fill:#FFDB57;" d="M364.9,145.09c-4.61-12.03-11.89-23.77-19.47-31.42c-2.78-2.81-6.53-4.23-10.79-4.14
	c-14.13,0.33-37.15,18.06-68.42,52.7c-0.78,0.86-1.21,1.99-1.21,3.15v24.89c0,2.6,2.11,4.71,4.71,4.71h72.38
	c16.13,0,22.78-7.85,25.53-14.43C371.27,171.78,370.31,159.19,364.9,145.09z"/>
<path style="fill:#EF9325;" d="M367.59,153.29c-0.13-0.48-0.34-0.94-0.62-1.36c-7.1-10.74-22.46-6.72-34.08-1.46
	c-33.78,15.29-47.73,36.35-48.31,37.24c-0.94,1.45-1.01,3.29-0.19,4.81c0.82,1.52,2.41,2.46,4.13,2.46h53.55
	c10.26,0,17.87-3.15,22.62-9.36C370.34,178.24,371.34,167.06,367.59,153.29z"/>
<path style="fill:#FFDB57;" d="M233.78,162.24c-31.27-34.64-54.29-52.37-68.42-52.7c-4.27-0.09-8.01,1.33-10.79,4.14
	c-7.58,7.65-14.86,19.39-19.47,31.42c-5.41,14.09-6.37,26.69-2.71,35.46c2.74,6.58,9.4,14.43,25.53,14.43h72.38
	c2.6,0,4.71-2.11,4.71-4.71v-24.89C235,164.23,234.57,163.1,233.78,162.24z"/>
<path style="fill:#EF9325;" d="M215.41,187.72c-0.58-0.89-14.53-21.95-48.31-37.24c-11.63-5.26-26.98-9.28-34.08,1.46
	c-0.28,0.42-0.48,0.88-0.62,1.36c-3.75,13.77-2.75,24.95,2.89,32.33c4.75,6.21,12.36,9.36,22.62,9.36h53.55
	c1.73,0,3.31-0.94,4.13-2.46C216.43,191.01,216.35,189.16,215.41,187.72z"/>
<path style="fill:#F5BA3D;" d="M269.71,156.04h-39.42c-2.6,0-4.71,2.11-4.71,4.71v29.54c0,2.6,2.11,4.71,4.71,4.71h39.42
	c2.6,0,4.71-2.11,4.71-4.71v-29.54C274.41,158.14,272.31,156.04,269.71,156.04z"/>
<path style="fill:#F7434C;" d="M394.29,185.58H105.71c-2.6,0-4.71,2.11-4.71,4.71v46.43c0,2.6,2.11,4.71,4.71,4.71h288.59
	c2.6,0,4.71-2.11,4.71-4.71v-46.43C399,187.69,396.89,185.58,394.29,185.58z"/>
<rect x="213.86" y="185.58" style="fill:#FFDB57;" width="72.29" height="55.84"/>
<polygon style="fill:#FF8888;" points="25.01,153.46 43.71,156.99 30.84,171.58 "/>
<polygon style="fill:#64D3FF;" points="168.69,54.55 175.25,67.93 160.07,66.7 "/>
<polygon style="fill:#FF8888;" points="233.69,113.55 240.25,126.93 225.07,125.7 "/>
<polygon style="fill:#FF8888;" points="73.57,288.48 88.07,291.91 77.49,302.85 "/>
<polygon style="fill:#FF8888;" points="74,346.63 89.4,335.44 91.18,354.81 "/>
<polygon style="fill:#EFCB5B;" points="29.41,321.08 37.74,315.02 38.7,325.5 "/>
<polygon style="fill:#FF8888;" points="63.47,243.76 74.66,246.4 66.49,254.85 "/>
<polygon style="fill:#64D3FF;" points="5.01,240.46 23.71,243.99 10.84,258.58 "/>
<polygon style="fill:#FF8888;" points="20.83,194.76 30.48,201.02 19.94,206.23 "/>
<polygon style="fill:#FF8888;" points="85.17,144.46 98.44,153.07 83.94,160.23 "/>
<polygon style="fill:#64D3FF;" points="87.66,108.37 96.44,114.07 86.84,118.81 "/>
<polygon style="fill:#64D3FF;" points="41.76,72.6 67.17,79.27 51.55,96.98 "/>
<polygon style="fill:#FF8888;" points="99.17,65.46 112.44,74.07 97.94,81.23 "/>
<polygon style="fill:#FF8888;" points="129.15,17.48 146.04,28.45 127.58,37.56 "/>
<polygon style="fill:#EFCB5B;" points="76.23,171.45 83.74,193.29 60.63,188.48 "/>
<polygon style="fill:#EFCB5B;" points="255.2,54.93 268.53,68.52 249.63,73.13 "/>
<polygon style="fill:#FF8888;" points="58.41,38.08 66.74,32.02 67.7,42.5 "/>
<polygon style="fill:#64D3FF;" points="448.44,166.46 429.73,169.99 442.6,184.58 "/>
<polygon style="fill:#FF8888;" points="473.87,236.48 459.38,239.91 469.96,250.85 "/>
<polygon style="fill:#FF8888;" points="432.45,346.63 417.05,335.44 415.26,354.81 "/>
<polygon style="fill:#FF8888;" points="468.04,323.08 459.71,317.02 458.74,327.5 "/>
<polygon style="fill:#EFCB5B;" points="433.98,245.76 422.79,248.4 430.96,256.85 "/>
<polygon style="fill:#64D3FF;" points="439.44,287.46 420.73,290.99 433.6,305.58 "/>
<polygon style="fill:#FF8888;" points="476.61,196.76 466.97,203.02 477.51,208.23 "/>
<polygon style="fill:#FF8888;" points="407.27,136.46 394.01,145.07 408.51,152.23 "/>
<polygon style="fill:#EFCB5B;" points="422.68,99.6 399.99,103.88 415.6,121.58 "/>
<polygon style="fill:#FF8888;" points="467.22,130.45 459.71,152.29 482.81,147.48 "/>
<polygon style="fill:#FF8888;" points="439.04,40.08 430.71,34.02 429.74,44.5 "/>
<polygon style="fill:#FF8888;" points="355.94,23.1 352.23,41.77 337.76,28.76 "/>
<polygon style="fill:#FF8888;" points="213.45,76.33 209.88,90.79 199.04,80.1 "/>
<polygon style="fill:#EFCB5B;" points="139.3,75.18 150.34,90.69 130.95,92.28 "/>
<polygon style="fill:#FF8888;" points="145.29,40.84 151.26,49.23 140.77,50.09 "/>
<polygon style="fill:#FF8888;" points="278.27,99.66 275.51,110.83 267.14,102.58 "/>
<polygon style="fill:#64D3FF;" points="215.14,33.24 211.43,51.91 196.96,38.9 "/>
<polygon style="fill:#FF8888;" points="287.68,30.52 281.33,40.1 276.23,29.51 "/>
<polygon style="fill:#EFCB5B;" points="363.35,74.35 354.61,87.53 347.6,72.96 "/>
<polygon style="fill:#FF8888;" points="401.66,63.58 397.16,86.23 379.61,70.44 "/>
<polygon style="fill:#64D3FF;" points="318.45,77.14 296.54,84.44 301.57,61.38 "/>
<polygon style="fill:#FF8888;" points="438.99,116.64 444.96,125.03 434.47,125.89 "/>
<polygon style="fill:#64D3FF;" points="439.07,71.56 437.79,81.77 429.48,75.31 "/>
</svg>
