<svg width="134" height="134" viewBox="0 0 134 134" fill="none" xmlns="http://www.w3.org/2000/svg">
<g clip-path="url(#clip0_3585_1107)">
<path d="M132.85 91.9648L122.471 81.5855V45.9836L129.247 43.5407C130.803 42.9796 131.84 41.5044 131.841 39.8505C131.843 38.1972 130.807 36.7199 129.252 36.157L67.2571 13.7052C66.3938 13.3925 65.4473 13.3925 64.5839 13.7052L2.58896 36.157C1.03999 36.7181 0.00630483 38.1862 2.41767e-05 39.8335C-0.00573308 41.4809 1.01723 42.9566 2.56174 43.5289L25.4414 52.0044V77.8744C25.4414 78.6773 25.6874 79.461 26.1466 80.1195C26.3992 80.4816 28.7913 83.7484 34.916 86.8311C42.6535 90.7262 52.802 92.7012 65.0791 92.7012C77.3473 92.7012 87.547 90.7304 95.395 86.8429C101.58 83.7792 104.052 80.5465 104.313 80.1883C104.803 79.5165 105.067 78.7066 105.067 77.8749V52.2577L114.621 48.8136V81.5855L104.241 91.9648C103.505 92.7009 103.091 93.6993 103.091 94.7403C103.091 95.7813 103.505 96.7799 104.241 97.5158L114.621 107.895V116.603C114.621 118.771 116.378 120.529 118.546 120.529C120.714 120.529 122.471 118.771 122.471 116.603V107.895L132.85 97.5158C134.383 95.9833 134.383 93.4975 132.85 91.9648ZM65.9207 21.571L116.365 39.8396L65.0976 58.3227L15.3382 39.8895L65.9207 21.571ZM97.2164 76.31C83.797 88.3851 43.9206 87.0004 33.2922 76.3492V54.9129L63.7154 66.183C64.1982 66.2594 64.6541 66.6757 66.4103 66.195L97.2166 55.0887L97.2164 76.31ZM118.546 100.718L112.568 94.7403L118.546 88.7624L124.523 94.7403L118.546 100.718Z" fill="white"/>
</g>
<defs>
<clipPath id="clip0_3585_1107">
<rect width="134" height="134" fill="white"/>
</clipPath>
</defs>
</svg>
