<?xml version="1.0"?>
<svg xmlns="http://www.w3.org/2000/svg" xmlns:xlink="http://www.w3.org/1999/xlink" version="1.1" id="Capa_1" x="0px" y="0px" viewBox="0 0 512 512" style="enable-background:new 0 0 512 512;" xml:space="preserve" width="512px" height="512px"><g><g>
	<g>
		<path d="M390.284,237.005c-8.712-25.18-27.186-45.565-52.017-57.403c-0.611-0.291-1.236-0.551-1.874-0.779l-74.228-26.537    c-0.392-0.14-0.788-0.268-1.187-0.383c-0.368-0.106-0.794-0.232-1.262-0.373c-4.661-2.074-9.406-3.771-14.197-5.103    c-19.063-7.93-47.087-24.136-47.087-50.867c0-30.636,25.57-55.56,57-55.56h10.5c32.804,0,58.5,24.599,58.5,56    c0,11.046,8.954,20,20,20c11.046,0,20-8.954,20-20c0-25.997-10.341-50.273-29.118-68.358C316.809,9.816,292.169,0,265.934,0h-10.5    c-53.486,0-97,42.868-97,95.56c0,19.986,7.462,38.541,21.729,54.378c-22.569,8.911-41.987,25.754-53.441,48.89    c-11.727,23.688-13.505,50.261-5.006,74.823c8.712,25.18,27.186,45.565,52.017,57.403c0.638,0.304,1.291,0.574,1.957,0.809    l79.096,27.882c0.364,0.129,0.732,0.246,1.103,0.354c10.444,3.015,62.546,19.896,62.546,56.343c0,30.636-25.57,55.56-57,55.56    h-10.5c-32.804,0-58.5-24.598-58.5-56c0-11.046-8.954-20-20-20s-20,8.954-20,20c0,25.997,10.341,50.273,29.118,68.358    c18.506,17.824,43.146,27.64,69.381,27.64h10.5c53.486,0,97-42.868,97-95.56c0-24.712-11.404-47.237-32.979-65.14    c-15.074-12.508-35.62-22.961-57.905-29.469l-77.497-27.319c-14.632-7.242-25.458-19.263-30.537-33.941    c-4.968-14.36-3.884-29.984,3.053-43.996c12.848-25.953,42.347-38.769,69.921-32.201c4.279,1.704,8.667,3.265,13.136,4.67    c1.349,0.585,2.727,1.008,4.118,1.28l72.165,25.8c14.652,7.24,25.491,19.269,30.574,33.96c4.968,14.359,3.884,29.984-3.053,43.996    c-4.901,9.899-0.849,21.896,9.05,26.798c2.852,1.412,5.877,2.081,8.858,2.081c7.364,0,14.45-4.085,17.939-11.131    C397.006,288.141,398.783,261.567,390.284,237.005z" data-original="#000000" class="active-path" data-old_color="#000000" fill="#68B3E9"/>
	</g>
</g></g> </svg>
