<?xml version="1.0" encoding="iso-8859-1"?>
<!-- Generator: Adobe Illustrator 19.0.0, SVG Export Plug-In . SVG Version: 6.00 Build 0)  -->
<svg xmlns="http://www.w3.org/2000/svg"  version="1.1" id="Layer_1" x="0px" y="0px" viewBox="0 0 512.001 512.001" style="enable-background:new 0 0 512.001 512.001;" xml:space="preserve">
<path style="fill:#B4E66E;" d="M258.694,282.969l-81.821-22.315H102.4l-81.821,22.315C8.429,286.283,0,297.319,0,309.912v183.469  c0,5.141,4.168,9.309,9.309,9.309h269.964V309.912C279.273,297.319,270.844,286.283,258.694,282.969z"/>
<rect x="93.09" y="223.42" style="fill:#FAD098;" width="93.09" height="74.47"/>
<path style="fill:#D7AF7D;" d="M93.091,249.381c13.981,7.172,29.783,11.274,46.545,11.274s32.565-4.102,46.545-11.274v-25.962  h-93.09V249.381z"/>
<path style="fill:#FFE1B4;" d="M223.418,121.018V65.164H55.855v55.855c-10.282,0-18.618,8.335-18.618,18.618  c0,10.282,8.336,18.618,18.618,18.618c0,46.272,37.51,83.782,83.782,83.782s83.782-37.51,83.782-83.782  c10.282,0,18.618-8.336,18.618-18.618C242.036,129.353,233.701,121.018,223.418,121.018z"/>
<path style="fill:#FAD098;" d="M102.4,158.255V65.164H55.855v55.855c-10.282,0-18.618,8.335-18.618,18.618  c0,10.282,8.336,18.618,18.618,18.618c0,46.272,37.51,83.782,83.782,83.782c8.085,0,15.876-1.207,23.273-3.344  C127.973,228.598,102.4,196.441,102.4,158.255z"/>
<path style="fill:#D7AF7D;" d="M139.636,204.8c-9.855,0-19.273-4.65-25.845-12.755c-3.245-3.995-2.627-9.855,1.364-13.095  c4.009-3.232,9.864-2.614,13.091,1.368c6.145,7.564,16.636,7.564,22.782,0c3.236-3.982,9.091-4.6,13.091-1.368  c3.991,3.241,4.609,9.1,1.364,13.095C158.909,200.15,149.491,204.8,139.636,204.8z"/>
<g>
	<path style="fill:#64463C;" d="M102.4,158.255c-5.145,0-9.309-4.168-9.309-9.309v-9.309c0-5.141,4.164-9.309,9.309-9.309   s9.309,4.168,9.309,9.309v9.309C111.709,154.086,107.545,158.255,102.4,158.255z"/>
	<path style="fill:#64463C;" d="M176.873,158.255c-5.145,0-9.309-4.168-9.309-9.309v-9.309c0-5.141,4.164-9.309,9.309-9.309   s9.309,4.168,9.309,9.309v9.309C186.182,154.086,182.018,158.255,176.873,158.255z"/>
</g>
<path style="fill:#D59F63;" d="M202.301,112.158c2.718,7.199,10.414,10.461,17.994,9.132c1.014-0.178,2.057-0.271,3.124-0.271  c3.409,0,6.561,0.983,9.309,2.582V65.164c0-13.928-7.736-25.926-19.06-32.312c-2.116-13.327-13.563-23.543-27.485-23.543H111.71  c-35.989,0-65.164,29.175-65.164,65.164v49.128c2.748-1.599,5.901-2.582,9.309-2.582c1.197,0,2.364,0.116,3.492,0.339  c9.067,1.785,18.145-3.226,20.414-12.183l0,0l2.777-23.97c0.637-5.5,5.885-9.28,11.274-8.01  c17.111,4.031,53.817,10.102,92.039,0.136c5.226-1.363,10.476,2.161,11.364,7.488l3.696,22.174  C201.21,108.786,201.68,110.513,202.301,112.158z"/>
<g>
	<path style="fill:#A0D755;" d="M0,309.912v183.47c0,5.141,4.168,9.309,9.309,9.309h46.545V369.716   c0-10.351-3.45-20.406-9.805-28.576l-38.79-49.875C2.746,296.27,0,302.814,0,309.912z"/>
	<path style="fill:#A0D755;" d="M279.273,309.912v192.779h-55.855V369.716c0-10.351,3.45-20.406,9.805-28.576l38.791-49.875   C276.527,296.27,279.273,302.814,279.273,309.912z"/>
</g>
<path style="fill:#CD915A;" d="M111.709,9.309c-35.989,0-65.164,29.174-65.164,65.164v49.128c2.748-1.599,5.901-2.582,9.309-2.582  c1.197,0,2.364,0.116,3.492,0.339c9.067,1.785,18.145-3.226,20.415-12.184l2.777-23.97c0.637-5.5,5.885-9.28,11.274-8.01  c2.448,0.577,5.391,1.189,8.588,1.795V65.164c0-30.848,25.007-55.855,55.855-55.855C158.255,9.309,111.709,9.309,111.709,9.309z"/>
<g>
	<path style="fill:#FFDC64;" d="M111.8,390.982c-5.145,0-9.355-4.168-9.355-9.309s4.118-9.309,9.264-9.309h0.091   c5.145,0,9.309,4.168,9.309,9.309S116.945,390.982,111.8,390.982z"/>
	<path style="fill:#FFDC64;" d="M111.8,465.455c-5.145,0-9.355-4.168-9.355-9.309s4.118-9.309,9.264-9.309h0.091   c5.145,0,9.309,4.168,9.309,9.309C121.109,461.286,116.945,465.455,111.8,465.455z"/>
	<path style="fill:#FFDC64;" d="M111.8,428.218c-5.145,0-9.355-4.168-9.355-9.309s4.118-9.309,9.264-9.309h0.091   c5.145,0,9.309,4.168,9.309,9.309S116.945,428.218,111.8,428.218z"/>
</g>
<rect x="130.33" y="297.891" style="fill:#A0D755;" width="18.618" height="204.8"/>
<path style="fill:#785546;" d="M426.191,56.838c1.189-3.289,2.027-6.696,2.027-10.292c0-20.565-20.839-37.236-46.545-37.236  s-46.545,16.671-46.545,37.236c0,3.596,0.839,7.003,2.027,10.292c-34.222,16.574-57.882,51.532-57.882,92.108l0,0  c0,46.271,37.51,83.782,83.782,83.782h37.237c46.271,0,83.782-37.51,83.782-83.782l0,0  C484.073,108.37,460.413,73.412,426.191,56.838z"/>
<path style="fill:#64463C;" d="M344.436,111.709c0-31.645,22.563-58,52.474-63.907c-4.985-0.745-10.045-1.256-15.237-1.256  c-5.629,0-11.112,0.574-16.494,1.448c-1.336-3.403-2.124-6.995-2.124-10.757c0-11.052,6.136-20.872,15.695-27.691  c-24.318,1.229-43.623,17.236-43.623,37.001c0,3.597,0.843,7.001,2.035,10.288c-34.226,16.573-57.889,51.534-57.889,92.112l0,0  c0,46.271,37.51,83.782,83.782,83.782h18.618v-55.855l-37.236-37.236v-27.929H344.436z"/>
<path style="fill:#E6AF78;" d="M494.445,346.723l-63.832-25.533c-7.068-2.827-11.703-9.673-11.703-17.286v-33.94h-74.473v33.94  c0,7.613-4.635,14.459-11.703,17.286l-63.832,25.533c-10.603,4.241-17.555,14.51-17.555,25.93V409.6  c0,5.141,4.168,9.309,9.309,9.309l0,0v74.473c0,5.141,4.168,9.309,9.309,9.309h223.418c5.141,0,9.309-4.168,9.309-9.309v-74.473l0,0  c5.141,0,9.309-4.168,9.309-9.309v-36.947C512,361.233,505.048,350.964,494.445,346.723z"/>
<g>
	<path style="fill:#D29B6E;" d="M260.655,409.6v27.927h9.309c5.141,0,9.309,4.168,9.309,9.309v55.855H307.2V409.6H260.655z"/>
	<path style="fill:#D29B6E;" d="M502.691,409.6v27.927h-9.309c-5.141,0-9.309,4.168-9.309,9.309v55.855h-27.927V409.6H502.691z"/>
</g>
<path style="fill:#FFDC64;" d="M494.445,346.723l-52.903-21.161c-8.821,13.893-28.735,40.544-59.869,56.111  c-31.134-15.567-51.048-42.218-59.869-56.111l-52.903,21.161c-10.603,4.241-17.555,14.51-17.555,25.93V409.6  c0,5.141,4.168,9.309,9.309,9.309h37.236v83.782h167.564v-83.782h37.236c5.141,0,9.309-4.168,9.309-9.309v-36.947  C512,361.233,505.048,350.964,494.445,346.723z"/>
<path style="fill:#D29B6E;" d="M344.436,300.089c11.558,4.534,24.09,7.112,37.236,7.112s25.678-2.578,37.236-7.112v-30.124h-74.473  v30.124H344.436z"/>
<path style="fill:#F0C087;" d="M465.455,204.8c0-61.633-66.622-39.989-113.224-68.97c-4.243-2.639-9.893-1.498-12.654,2.667  c-7.191,10.849-21.907,28.697-41.09,29.06c-10.494,0.199-19.214,7.981-19.214,18.477v0.147c0,10.283,8.336,18.618,18.618,18.618  c0,6.4,0.718,12.632,2.076,18.62c8.467,37.31,41.833,65.162,81.705,65.162s73.238-27.852,81.705-65.162  C464.737,217.432,465.455,211.2,465.455,204.8z"/>
<path style="fill:#E6AF78;" d="M344.436,204.8v-69.809c-1.911,0.614-3.674,1.718-4.86,3.506  c-7.191,10.849-21.907,28.697-41.09,29.061c-10.494,0.199-19.214,7.981-19.214,18.476v0.148c0,10.282,8.336,18.618,18.618,18.618  c0,6.399,0.718,12.631,2.077,18.62c8.466,37.31,41.833,65.162,81.705,65.162c8.091,0,15.891-1.199,23.293-3.339  C370.019,275.156,344.436,242.994,344.436,204.8z"/>
<path style="fill:#D29B6E;" d="M381.673,251.345c-9.855,0-19.273-4.65-25.845-12.755c-3.245-3.995-2.627-9.855,1.364-13.095  c4.009-3.236,9.864-2.618,13.091,1.368c6.145,7.564,16.636,7.564,22.782,0c3.227-3.986,9.091-4.605,13.091-1.368  c3.991,3.241,4.609,9.1,1.364,13.095C400.945,246.695,391.527,251.345,381.673,251.345z"/>
<g>
	<path style="fill:#64463C;" d="M418.909,204.8c-5.145,0-9.309-4.168-9.309-9.309v-9.309c0-5.141,4.164-9.309,9.309-9.309   s9.309,4.168,9.309,9.309v9.309C428.218,200.632,424.055,204.8,418.909,204.8z"/>
	<path style="fill:#64463C;" d="M344.436,204.8c-5.145,0-9.309-4.168-9.309-9.309v-9.309c0-5.141,4.164-9.309,9.309-9.309   s9.309,4.168,9.309,9.309v9.309C353.745,200.632,349.582,204.8,344.436,204.8z"/>
</g>
<g>
	<path style="fill:#FFC850;" d="M297.891,408.003c0-4.938-1.962-9.673-5.453-13.165l-36.857-36.857   c-2.678,4.324-4.235,9.358-4.235,14.672V409.6c0,5.141,4.168,9.309,9.309,9.309h37.236V408.003z"/>
	<path style="fill:#FFC850;" d="M465.455,408.003c0-4.938,1.962-9.673,5.453-13.165l36.857-36.857   c2.678,4.324,4.235,9.358,4.235,14.672V409.6c0,5.141-4.168,9.309-9.309,9.309h-37.236V408.003z"/>
</g>
<g>
	<path style="fill:#C8FF82;" d="M91.74,257.978l47.896,39.913l-30.018,22.514c-4.022,3.017-9.714,2.294-12.855-1.632l-27.348-34.185   c-2.532-3.166-2.725-7.606-0.476-10.979l9.096-13.644C81.105,255.361,87.489,254.435,91.74,257.978z"/>
	<path style="fill:#C8FF82;" d="M187.532,257.978l-47.896,39.913l30.018,22.514c4.022,3.017,9.714,2.294,12.855-1.632l27.348-34.185   c2.532-3.166,2.725-7.606,0.476-10.979l-9.096-13.644C198.168,255.361,191.783,254.435,187.532,257.978z"/>
</g>
<g>
</g>
<g>
</g>
<g>
</g>
<g>
</g>
<g>
</g>
<g>
</g>
<g>
</g>
<g>
</g>
<g>
</g>
<g>
</g>
<g>
</g>
<g>
</g>
<g>
</g>
<g>
</g>
<g>
</g>
</svg>
