<?xml version="1.0" encoding="iso-8859-1"?>
<!-- Generator: Adobe Illustrator 19.0.0, SVG Export Plug-In . SVG Version: 6.00 Build 0)  -->
<svg version="1.1" id="Layer_1" xmlns="http://www.w3.org/2000/svg" xmlns:xlink="http://www.w3.org/1999/xlink" x="0px" y="0px"
	 viewBox="0 0 512 512" style="enable-background:new 0 0 512 512;" xml:space="preserve">
<path style="fill:#FEC377;" d="M512,247.281c-27.9-38.719-68.789-74.33-120.925-104.433
	c-50.177-28.971-110.771-52.841-180.276-69.498l-19.759,27.841l-0.097,34.165c0.045,0.012,0.089,0.025,0.134,0.037L0.097,404.483
	L0,438.65l511.903-122.948L512,281.536c-0.031-0.044-0.066-0.087-0.097-0.13L512,247.281z"/>
<polygon style="fill:#FF9911;" points="511.999,281.535 511.903,315.702 0,438.65 0.097,404.484 "/>
<path style="fill:#FFEB9A;" d="M391.074,177.102c52.139,30.102,93.025,65.712,120.925,104.433L0.097,404.484l210.7-296.879
	C280.303,124.261,340.896,148.132,391.074,177.102z"/>
<polygon style="fill:#FF9911;" points="511.999,247.281 511.903,281.446 463.885,292.983 463.982,258.817 "/>
<g style="enable-background:new    ;">
	<g>
		<g>
			<path style="fill:#FFA834;" d="M463.982,258.817l-0.097,34.165c-27.444-34.336-65.292-65.943-112.304-93.085
				c-24.214-13.98-50.859-26.774-79.761-38.143l0.097-34.165c28.902,11.37,55.547,24.165,79.761,38.143
				C398.69,192.873,436.538,224.481,463.982,258.817"/>
			<path style="fill:#FF9911;" d="M204.672,104.944c-4.503-1.282-9.048-2.533-13.634-3.752l-0.097,34.166
				c4.586,1.218,9.13,2.469,13.634,3.752c23.586,6.717,46.023,14.296,67.244,22.645l0.097-34.165
				C250.695,119.241,228.258,111.661,204.672,104.944z"/>
		</g>
	</g>
</g>
<path style="fill:#FEC377;" d="M391.074,142.848c52.137,30.103,93.025,65.713,120.925,104.433l-48.018,11.537
	c-27.444-34.336-65.292-65.943-112.304-93.085c-45.388-26.203-99.317-48.245-160.639-64.541l19.759-27.841
	C280.303,90.007,340.898,113.877,391.074,142.848z"/>
<g>
	<path style="fill:#FF5023;" d="M207.423,203.075c11.185-6.5,16.783-15.006,16.807-23.524l0.059-20.761
		c-0.001,0.251-0.023,0.501-0.032,0.75c0.367-8.874-5.305-17.825-17.033-24.596c-7.382-4.262-16.257-7.13-25.633-8.614
		l-43.579,61.41l-0.059,20.761C160.069,215.787,188.65,213.985,207.423,203.075z"/>
	<path style="fill:#FF5023;" d="M335.409,222.947c-0.001,0.25-0.023,0.498-0.032,0.748c0.366-8.874-5.308-17.826-17.04-24.6
		c-22.652-13.078-59.266-13.078-81.779,0.005c-11.221,6.521-16.816,15.06-16.804,23.606c0-0.027-0.003-0.054-0.003-0.081
		l-0.059,20.761c-0.024,8.627,5.669,17.266,17.067,23.846c22.66,13.083,59.274,13.082,81.786,0
		c11.185-6.499,16.783-15.004,16.806-23.522L335.409,222.947z"/>
	<path style="fill:#FF5023;" d="M176.636,250.855c-0.001,0.25-0.023,0.498-0.032,0.748c0.366-8.874-5.308-17.826-17.04-24.6
		c-11.717-6.764-27.165-10.022-42.472-9.792L76.985,273.73l-0.059,20.761c0.357,0.216,0.699,0.433,1.065,0.644
		c22.66,13.083,59.275,13.082,81.779,0.004c11.184-6.499,16.782-15.004,16.806-23.522L176.636,250.855z"/>
	<path style="fill:#FF5023;" d="M270.683,291.159c-22.66-13.083-59.275-13.082-81.787,0c-11.216,6.518-16.808,15.055-16.797,23.599
		c0-0.027-0.003-0.055-0.003-0.084l-0.059,20.761c-0.024,8.628,5.671,17.27,17.075,23.854c0.35,0.202,0.716,0.394,1.073,0.591
		l97.475-23.415c0.009-0.237,0.014-0.474,0.015-0.711l0.059-20.761c-0.001,0.237-0.006,0.473-0.015,0.711
		C288.065,306.846,282.391,297.918,270.683,291.159z"/>
	<path style="fill:#FF5023;" d="M111.902,319.062c-16.725-9.656-41.06-12.176-61.716-7.567l-31.824,44.839l-0.059,20.761
		c2.824,3.661,6.823,7.093,12.027,10.097c5.18,2.991,11.083,5.285,17.374,6.905l77.444-18.594c2.493-3.805,3.745-7.821,3.756-11.84
		l0.059-20.761c0,0.043-0.005,0.086-0.005,0.127C129.039,334.363,123.355,325.674,111.902,319.062z"/>
	<path style="fill:#FF5023;" d="M429.456,263.25c-22.66-13.083-59.275-13.082-81.787,0c-11.217,6.518-16.801,15.053-16.785,23.594
		c0-0.03-0.005-0.061-0.005-0.091l-0.059,20.761c-0.017,5.785,2.538,11.576,7.657,16.75l105.867-25.429l0.059-20.761
		C441.811,272.648,436.839,267.512,429.456,263.25z"/>
</g>
<path style="fill:#CD2A01;" d="M224.289,158.79l-0.059,20.761c-0.024,8.518-5.623,17.024-16.807,23.524
	c-18.773,10.91-47.354,12.712-69.471,5.427l0.059-20.761c22.117,7.285,50.698,5.483,69.471-5.427
	C218.667,175.814,224.265,167.307,224.289,158.79z"/>
<path style="fill:#FF5023;" d="M207.224,134.944c22.652,13.078,22.771,34.287,0.258,47.369
	c-18.773,10.91-47.354,12.712-69.471,5.427l43.579-61.41C190.967,127.814,199.841,130.682,207.224,134.944z"/>
<path style="fill:#CD2A01;" d="M335.409,222.947l-0.059,20.761c-0.024,8.518-5.623,17.023-16.806,23.522
	c-22.513,13.083-59.127,13.083-81.786,0c-11.398-6.581-17.091-15.219-17.067-23.846l0.059-20.761
	c-0.024,8.627,5.669,17.265,17.067,23.846c22.66,13.082,59.274,13.082,81.786,0C329.786,239.97,335.385,231.465,335.409,222.947z"/>
<path style="fill:#FF5023;" d="M318.336,199.095c22.66,13.082,22.779,34.291,0.266,47.374c-22.513,13.083-59.127,13.083-81.786,0
	c-22.652-13.078-22.772-34.287-0.259-47.369S295.685,186.017,318.336,199.095z"/>
<path style="fill:#CD2A01;" d="M176.636,250.855l-0.059,20.761c-0.024,8.518-5.623,17.023-16.806,23.522
	c-22.504,13.078-59.119,13.078-81.779-0.004c-0.366-0.211-0.707-0.427-1.065-0.644l0.059-20.761
	c0.357,0.216,0.699,0.432,1.065,0.644c22.66,13.082,59.275,13.082,81.779,0.004C171.013,267.878,176.612,259.372,176.636,250.855z"
	/>
<path style="fill:#FF5023;" d="M159.562,227.003c22.66,13.082,22.779,34.291,0.266,47.374
	c-22.504,13.078-59.119,13.078-81.779-0.004c-0.366-0.211-0.707-0.427-1.065-0.644l40.106-56.518
	C132.398,216.98,147.847,220.238,159.562,227.003z"/>
<g>
	<path style="fill:#CD2A01;" d="M287.733,314.993l-0.059,20.761c-0.001,0.237-0.005,0.473-0.015,0.711l0.059-20.761
		C287.728,315.467,287.733,315.23,287.733,314.993z"/>
	<polygon style="fill:#CD2A01;" points="287.718,315.705 287.66,336.466 190.185,359.881 190.244,339.12 	"/>
</g>
<path style="fill:#FF3502;" d="M172.037,335.436l0.059-20.761c-0.024,8.628,5.671,17.27,17.074,23.854
	c0.35,0.202,0.716,0.394,1.073,0.591l-0.059,20.761c-0.357-0.197-0.724-0.39-1.073-0.591
	C177.708,352.706,172.013,344.064,172.037,335.436z"/>
<path style="fill:#FF5023;" d="M270.683,291.159c11.708,6.76,17.382,15.688,17.035,24.546l-97.475,23.415
	c-0.357-0.197-0.724-0.39-1.073-0.591c-22.66-13.082-22.779-34.291-0.275-47.369C211.408,278.075,248.023,278.075,270.683,291.159z"
	/>
<g>
	<path style="fill:#CD2A01;" d="M128.963,342.902l-0.059,20.761c-0.011,4.019-1.263,8.035-3.756,11.84l0.059-20.761
		C127.7,350.937,128.951,346.92,128.963,342.902z"/>
	<polygon style="fill:#CD2A01;" points="125.206,354.743 125.148,375.504 47.704,394.098 47.763,373.337 	"/>
</g>
<path style="fill:#FF3502;" d="M47.763,373.337l-0.059,20.761c-6.29-1.62-12.194-3.915-17.374-6.905
	c-5.204-3.004-9.201-6.436-12.027-10.097l0.059-20.761c2.824,3.661,6.823,7.093,12.027,10.097
	C35.569,369.421,41.473,371.717,47.763,373.337z"/>
<path style="fill:#FF5023;" d="M111.902,319.062c16.708,9.647,21.147,23.71,13.305,35.681l-77.444,18.594
	c-6.29-1.62-12.194-3.915-17.374-6.905c-5.204-3.004-9.201-6.436-12.027-10.097l31.824-44.839
	C70.842,306.885,95.177,309.406,111.902,319.062z"/>
<polygon style="fill:#CD2A01;" points="444.403,278.074 444.344,298.836 338.477,324.266 338.535,303.504 "/>
<path style="fill:#FF3502;" d="M330.82,307.515l0.059-20.761c-0.017,5.785,2.538,11.576,7.657,16.75l-0.059,20.761
	C333.358,319.091,330.804,313.299,330.82,307.515z"/>
<path style="fill:#FF5023;" d="M429.456,263.25c7.382,4.262,12.355,9.398,14.946,14.824l-105.867,25.429
	c-12.65-12.787-9.639-29.343,9.134-40.253C370.182,250.168,406.796,250.168,429.456,263.25z"/>
<g>
</g>
<g>
</g>
<g>
</g>
<g>
</g>
<g>
</g>
<g>
</g>
<g>
</g>
<g>
</g>
<g>
</g>
<g>
</g>
<g>
</g>
<g>
</g>
<g>
</g>
<g>
</g>
<g>
</g>
</svg>
