<?xml version="1.0" encoding="iso-8859-1"?>
<!-- Generator: Adobe Illustrator 19.0.0, SVG Export Plug-In . SVG Version: 6.00 Build 0)  -->
<svg version="1.1" id="Layer_1" xmlns="http://www.w3.org/2000/svg"  x="0px" y="0px"
	 viewBox="0 0 511.872 511.872" style="enable-background:new 0 0 511.872 511.872;" xml:space="preserve">
<g>
	<g>
		<path style="fill:#996459;" d="M436.452,358.027l-75.047-14.023c-0.484-0.086-0.977-0.133-1.469-0.133h-208
			c-0.492,0-0.984,0.047-1.469,0.133l-75.726,14.187c-38.609,10.813-58.805,48.844-58.805,80.828v43.836
			c0,16,14.352,29.016,32,29.016h416c17.648,0,32-13.016,32-29.016v-43.836C495.936,407.035,475.741,369.004,436.452,358.027z"/>
	</g>
	<g>
		<path style="fill:#4BB9EC;" d="M294.712,511.871l-14.885-89.312c-0.641-3.859-3.977-6.688-7.891-6.688h-32
			c-3.914,0-7.25,2.828-7.891,6.688l-14.885,89.312L294.712,511.871L294.712,511.871z"/>
	</g>
	<g>
		<path style="fill:#009BCA;" d="M239.936,415.871c-2.044,0-3.903,0.799-5.331,2.086l53.346,53.351l-4.525-27.151l-28.283-28.286
			H239.936z"/>
	</g>
	<g>
		<path style="fill:#3482AC;" d="M287.882,376.019c-0.008-4.414-3.586-7.984-8-7.984h-40c-3.031,0-5.797,1.711-7.156,4.422l-8,16
			c-0.563,1.117-0.852,2.352-0.844,3.609l0.055,15.812c0,13.227,10.766,23.992,24,23.992h16c13.234,0,24-10.766,24-24.016
			L287.882,376.019z"/>
	</g>
	<g>
		<path style="fill:#B4B6BC;" d="M259.78,345.051l-71.945-40.164c-3.492-1.961-7.883-1.008-10.281,2.164l-30.195,40
			c-2.063,2.734-2.164,6.477-0.242,9.305l48.773,71.992c2.688,3.961,6.961,6.492,11.719,6.945c0.516,0.047,1.031,0.07,1.539,0.07
			c4.219,0,8.266-1.656,11.289-4.672c0.203-0.203,0.398-0.422,0.578-0.648l33.148-41.156c0.359-0.438,0.672-0.922,0.922-1.43
			l7.945-15.836c0.563-1.109,0.852-2.344,0.852-3.586v-16C263.882,349.137,262.311,346.465,259.78,345.051z"/>
	</g>
	<g>
		<path style="fill:#B4B6BC;" d="M251.983,345.051l71.945-40.164c3.492-1.961,7.883-1.008,10.281,2.164l30.195,40
			c2.063,2.734,2.164,6.477,0.242,9.305l-48.773,71.992c-2.688,3.961-6.961,6.492-11.719,6.945c-0.516,0.047-1.031,0.07-1.539,0.07
			c-4.219,0-8.266-1.656-11.289-4.672c-0.203-0.203-0.398-0.422-0.578-0.648l-33.147-41.156c-0.359-0.438-0.672-0.922-0.922-1.43
			l-7.945-15.836c-0.563-1.109-0.852-2.344-0.852-3.586v-16C247.882,349.137,249.452,346.465,251.983,345.051z"/>
	</g>
	<g>
		<path style="fill:#FFDCAD;" d="M367.882,152.035l-15.781-16c0,0-54.219-14.667-168.219,0l-48,16c0,11,0,17.55,0,56
			c0,79.529,53.726,144,120,144s120-64.471,120-144c0-12.906,0-37.5,0-56C373.811,154.349,367.882,152.035,367.882,152.035z"/>
	</g>
	<g>
		<circle style="fill:#AEEFFF;" cx="207.717" cy="208.035" r="32"/>
	</g>
	<g>
		<path style="fill:#FFFFFF;" d="M207.936,176.035c-8.78,0-16.726,3.547-22.507,9.273l45.234,45.234
			c5.727-5.782,9.273-13.727,9.273-22.507C239.936,190.362,225.61,176.035,207.936,176.035z"/>
	</g>
	<g>
		<circle style="fill:#AEEFFF;" cx="303.717" cy="208.035" r="32"/>
	</g>
	<g>
		<path style="fill:#FFFFFF;" d="M303.936,176.035c-8.78,0-16.726,3.547-22.507,9.273l45.234,45.234
			c5.727-5.782,9.273-13.727,9.273-22.507C335.936,190.362,321.61,176.035,303.936,176.035z"/>
	</g>
	<g>
		<g>
			<path style="fill:#5C546A;" d="M272.101,216.035c-4.422,0-8-3.578-8-8c0-4.414-3.586-8-8-8s-8,3.586-8,8c0,4.422-3.578,8-8,8
				s-8-3.578-8-8c0-13.234,10.766-24,24-24c13.234,0,24,10.766,24,24C280.101,212.457,276.522,216.035,272.101,216.035z"/>
		</g>
	</g>
	<g>
		<g>
			<path style="fill:#5C546A;" d="M176.101,208.035h-40.219c-4.422,0-8-3.578-8-8s3.578-8,8-8h40.219c4.422,0,8,3.578,8,8
				S180.522,208.035,176.101,208.035z"/>
		</g>
	</g>
	<g>
		<g>
			<path style="fill:#5C546A;" d="M375.882,208.035h-39.781c-4.422,0-8-3.578-8-8s3.578-8,8-8h39.781c4.422,0,8,3.578,8,8
				S380.304,208.035,375.882,208.035z"/>
		</g>
	</g>
	<g>
		<g>
			<path style="fill:#868491;" d="M208.101,248.035c-22.055,0-40-17.945-40-40s17.945-40,40-40s40,17.945,40,40
				S230.155,248.035,208.101,248.035z M208.101,184.035c-13.234,0-24,10.766-24,24s10.766,24,24,24s24-10.766,24-24
				C232.101,194.801,221.335,184.035,208.101,184.035z"/>
		</g>
	</g>
	<g>
		<g>
			<path style="fill:#868491;" d="M304.101,248.035c-22.055,0-40-17.945-40-40s17.945-40,40-40s40,17.945,40,40
				S326.155,248.035,304.101,248.035z M304.101,184.035c-13.234,0-24,10.766-24,24s10.766,24,24,24s24-10.766,24-24
				C328.1,194.801,317.335,184.035,304.101,184.035z"/>
		</g>
	</g>
	<g>
		<g>
			<path style="fill:#FFFFFF;" d="M221.827,282.629c-4.336,0-8.594-1.406-12.102-5.711c-2.781-3.43-2.266-8.469,1.164-11.258
				c3.438-2.781,8.469-2.266,11.258,1.164c0.828,0.125,5.125-1.367,7.914-2.32c8.367-2.852,19.828-6.766,30.516,0.852
				c3.602,2.563,4.438,7.555,1.875,11.156c-2.563,3.586-7.555,4.43-11.156,1.875c-3.727-2.664-8.562-1.297-16.078,1.266
				C231.233,281.012,226.491,282.629,221.827,282.629z"/>
		</g>
	</g>
	<g>
		<g>
			<path style="fill:#FFFFFF;" d="M290.046,282.629c-4.656,0-9.406-1.617-13.391-2.977c-7.523-2.555-12.359-3.93-16.078-1.266
				c-3.594,2.57-8.594,1.719-11.156-1.875c-2.563-3.602-1.727-8.594,1.875-11.156c10.672-7.602,22.148-3.703,30.516-0.852
				c2.789,0.953,6.992,2.461,8.328,2.102c2.781-3.422,7.609-3.836,11.047-1.055c3.43,2.781,3.742,7.93,0.961,11.359
				C298.647,281.223,294.382,282.629,290.046,282.629z"/>
		</g>
	</g>
	<g>
		<path style="fill:#FFFFFF;" d="M287.874,303.371c-0.266-4.219-3.758-7.5-7.984-7.5h-47.906c-4.227,0-7.719,3.281-7.984,7.5
			c-0.148,2.391-3.359,59,25.82,93.656c1.516,1.805,3.758,2.844,6.117,2.844s4.602-1.039,6.117-2.844
			C291.233,362.371,288.022,305.762,287.874,303.371z"/>
	</g>
	<g>
		<g>
			<path style="fill:#5C546A;" d="M415.936,207.871c-4.422,0-8-3.578-8-8v-95.383c0-4.422,3.578-8,8-8s8,3.578,8,8v95.383
				C423.936,204.293,420.358,207.871,415.936,207.871z"/>
		</g>
	</g>
	<g>
		<path style="fill:#5C546A;" d="M441.936,60.324L279.21,4.535c-17.617-6.047-37.047-6.047-54.68,0L61.804,60.324
			c-8.508,2.922-14,10.609-14,19.602s5.492,16.68,14,19.602l79.57,27.281c0.836,0.281,1.711,0.43,2.594,0.43c0.031,0,0.07,0,0.102,0
			l223.969-2.797c0.844-0.008,1.688-0.156,2.492-0.43l71.406-24.484c8.508-2.922,14-10.609,14-19.602S450.444,63.246,441.936,60.324
			z"/>
	</g>
	<g>
		<g>
			<path style="fill:#5D647F;" d="M228.498,141.195c8.483-0.616,17.577-0.996,27.439-0.996c9.862,0,18.956,0.379,27.439,0.996
				c32.577,1.882,71.284,7.267,92.561,18.84v-64c0-27.484-62.203-40-120-40s-120,12.516-120,40v64
				C157.214,148.461,195.92,143.077,228.498,141.195z"/>
		</g>
		<g>
			<path style="fill:#5C546A;" d="M255.936,100.363c-34.716,0-92.229,4.566-120,19.672v20.328c0-6.969,42.055-24,120-24
				s120,17.031,120,24v-20.328C348.166,104.93,290.653,100.363,255.936,100.363z"/>
		</g>
		<g>
			<path style="fill:#68748D;" d="M255.936,56.035c-0.018,0-0.037,0.001-0.055,0.001V140.2c0.019,0,0.036-0.001,0.055-0.001
				c9.862,0,18.956,0.379,27.439,0.996c32.577,1.882,71.284,7.267,92.561,18.84v-64C375.936,68.551,313.733,56.035,255.936,56.035z"
				/>
		</g>
		<g>
			<path style="fill:#5D647F;" d="M255.882,100.364v16c0.019,0,0.036-0.001,0.055-0.001c77.945,0,120,17.031,120,24v-20.328
				c-27.771-15.105-85.284-19.672-120-19.672C255.919,100.363,255.899,100.364,255.882,100.364z"/>
		</g>
	</g>
	<g>
		<path style="fill:#FFE671;" d="M423.882,256.035h-16c-4.418,0-8-3.582-8-8v-32c0-8.837,7.163-16,16-16l0,0c8.837,0,16,7.163,16,16
			v32C431.882,252.453,428.3,256.035,423.882,256.035z"/>
	</g>
	<g>
		<path style="fill:#FFCD00;" d="M399.882,216.035v32c0,4.418,3.582,8,8,8h8v-56C407.045,200.035,399.882,207.198,399.882,216.035z"
			/>
	</g>
	<g>
		<path style="fill:#B4B6BC;" d="M95.938,458.382c0-16.974-6.743-33.252-18.745-45.255L41.667,377.6
			c-16.948,16.802-25.73,40.394-25.73,61.419v43.836c0,16,14.352,29.016,32,29.016h48.002v-53.489H95.938z"/>
	</g>
	<g>
		<path style="fill:#B4B6BC;" d="M470.136,377.676l-35.451,35.452c-12.003,12.002-18.746,28.281-18.746,45.255v53.489h47.998
			c17.648,0,32-13.016,32-29.016V439.02C495.936,418.045,487.194,394.516,470.136,377.676z"/>
	</g>
	<g>
		<polygon style="fill:#009BCA;" points="229.159,439.882 225.926,459.275 278.517,511.871 294.712,511.871 293.427,504.156 		"/>
	</g>
	<g>
		<polygon style="fill:#009BCA;" points="218.784,502.132 228.522,511.871 251.147,511.871 222.016,482.739 		"/>
	</g>
</g>
<g>
</g>
<g>
</g>
<g>
</g>
<g>
</g>
<g>
</g>
<g>
</g>
<g>
</g>
<g>
</g>
<g>
</g>
<g>
</g>
<g>
</g>
<g>
</g>
<g>
</g>
<g>
</g>
<g>
</g>
</svg>
