<svg viewBox="0 0 512 512" xmlns="http://www.w3.org/2000/svg"><path d="m296 286c5.519531 0 10-4.480469 10-10s-4.480469-10-10-10-10 4.480469-10 10 4.480469 10 10 10zm0 0"/><path d="m76 286c5.519531 0 10-4.480469 10-10s-4.480469-10-10-10-10 4.480469-10 10 4.480469 10 10 10zm0 0"/><path d="m10 126c5.523438 0 10-4.476562 10-10v-96h96c5.523438 0 10-4.476562 10-10s-4.476562-10-10-10h-106c-5.523438 0-10 4.476562-10 10v106c0 5.523438 4.476562 10 10 10zm0 0"/><path d="m126 502c0-5.523438-4.476562-10-10-10h-96v-96c0-5.523438-4.476562-10-10-10s-10 4.476562-10 10v106c0 5.523438 4.476562 10 10 10h106c5.523438 0 10-4.476562 10-10zm0 0"/><path d="m502 386c-5.523438 0-10 4.476562-10 10v96h-96c-5.523438 0-10 4.476562-10 10s4.476562 10 10 10h106c5.523438 0 10-4.476562 10-10v-106c0-5.523438-4.476562-10-10-10zm0 0"/><path d="m502 0h-106c-5.523438 0-10 4.476562-10 10s4.476562 10 10 10h96v96c0 5.523438 4.476562 10 10 10s10-4.476562 10-10v-106c0-5.523438-4.476562-10-10-10zm0 0"/><path d="m66 436c0 5.523438 4.476562 10 10 10h100c5.523438 0 10-4.476562 10-10v-100c0-5.523438-4.476562-10-10-10h-100c-5.523438 0-10 4.476562-10 10zm20-90h80v80h-80zm0 0"/><path d="m176 66h-100c-5.523438 0-10 4.476562-10 10v100c0 5.523438 4.476562 10 10 10h100c5.523438 0 10-4.476562 10-10v-100c0-5.523438-4.476562-10-10-10zm-10 100h-80v-80h80zm0 0"/><path d="m446 76c0-5.523438-4.476562-10-10-10h-100c-5.523438 0-10 4.476562-10 10v100c0 5.523438 4.476562 10 10 10h100c5.523438 0 10-4.476562 10-10zm-20 90h-80v-80h80zm0 0"/><path d="m446 436v-100c0-5.523438-4.476562-10-10-10h-100c-5.523438 0-10 4.476562-10 10v100c0 5.523438 4.476562 10 10 10h100c5.523438 0 10-4.476562 10-10zm-20-10h-80v-80h80zm0 0"/><path d="m136 366h-20c-5.523438 0-10 4.476562-10 10v20c0 5.523438 4.476562 10 10 10h20c5.523438 0 10-4.476562 10-10v-20c0-5.523438-4.476562-10-10-10zm0 0"/><path d="m116 146h20c5.523438 0 10-4.476562 10-10v-20c0-5.523438-4.476562-10-10-10h-20c-5.523438 0-10 4.476562-10 10v20c0 5.523438 4.476562 10 10 10zm0 0"/><path d="m376 146h20c5.523438 0 10-4.476562 10-10v-20c0-5.523438-4.476562-10-10-10h-20c-5.523438 0-10 4.476562-10 10v20c0 5.523438 4.476562 10 10 10zm0 0"/><path d="m376 406h20c5.523438 0 10-4.476562 10-10v-20c0-5.523438-4.476562-10-10-10h-20c-5.523438 0-10 4.476562-10 10v20c0 5.523438 4.476562 10 10 10zm0 0"/><path d="m106 276c0 5.523438 4.476562 10 10 10h130v50c0 5.523438 4.476562 10 10 10s10-4.476562 10-10v-60c0-5.523438-4.476562-10-10-10h-140c-5.523438 0-10 4.476562-10 10zm0 0"/><path d="m176 246c5.523438 0 10-4.476562 10-10s-4.476562-10-10-10h-100c-5.523438 0-10 4.476562-10 10s4.476562 10 10 10zm0 0"/><path d="m216 246h40c5.523438 0 10-4.476562 10-10s-4.476562-10-10-10h-40c-5.523438 0-10 4.476562-10 10s4.476562 10 10 10zm0 0"/><path d="m216 66c-5.523438 0-10 4.476562-10 10v100c0 5.523438 4.476562 10 10 10h70v50c0 5.523438 4.476562 10 10 10h40c5.523438 0 10-4.476562 10-10s-4.476562-10-10-10h-30v-50c0-5.523438-4.476562-10-10-10h-70v-90c0-5.523438-4.476562-10-10-10zm0 0"/><path d="m436 226h-60c-5.523438 0-10 4.476562-10 10s4.476562 10 10 10h60c5.523438 0 10-4.476562 10-10s-4.476562-10-10-10zm0 0"/><path d="m436 266h-100c-5.523438 0-10 4.476562-10 10s4.476562 10 10 10h100c5.523438 0 10-4.476562 10-10s-4.476562-10-10-10zm0 0"/><path d="m256 366h-40c-5.523438 0-10 4.476562-10 10v60c0 5.523438 4.476562 10 10 10s10-4.476562 10-10v-50h30c5.523438 0 10-4.476562 10-10s-4.476562-10-10-10zm0 0"/><path d="m286 426h-30c-5.523438 0-10 4.476562-10 10s4.476562 10 10 10h40c5.523438 0 10-4.476562 10-10v-120c0-5.523438-4.476562-10-10-10s-10 4.476562-10 10zm0 0"/><path d="m296 146c5.523438 0 10-4.476562 10-10v-60c0-5.523438-4.476562-10-10-10s-10 4.476562-10 10v50h-30c-5.523438 0-10 4.476562-10 10s4.476562 10 10 10zm0 0"/></svg>