<?xml version="1.0" encoding="iso-8859-1"?>
<!-- Generator: Adobe Illustrator 19.0.0, SVG Export Plug-In . SVG Version: 6.00 Build 0)  -->
<svg version="1.1" id="Layer_1" xmlns="http://www.w3.org/2000/svg" xmlns:xlink="http://www.w3.org/1999/xlink" x="0px" y="0px"
	 viewBox="0 0 512 512" style="enable-background:new 0 0 512 512;" xml:space="preserve">
<g>
	<polygon style="fill:#FFB657;" points="255.168,152.509 0,300.797 0,346.724 256.832,495.006 512,346.718 512,300.792 	"/>
	<polygon style="fill:#FFB657;" points="512,300.792 512,346.718 256.832,495.006 256.832,449.079 	"/>
</g>
<polygon style="fill:#FEC377;" points="256.832,449.079 256.832,495.006 0,346.724 0,300.797 "/>
<polygon style="fill:#FEDAAA;" points="512,300.792 256.832,449.079 0,300.797 255.168,152.51 "/>
<g>
	<path style="fill:#AD2201;" d="M444.27,286.185c0.55-28.4-17.948-56.93-55.481-78.599c-73.667-42.532-192.721-42.528-265.91,0.004
		c-36.476,21.198-54.672,48.959-54.634,76.741c0-0.089-0.005-0.179-0.005-0.267l-0.161,8.942
		c-0.079,28.051,18.435,56.146,55.505,77.548c73.667,42.532,192.721,42.535,265.91,0.002c36.359-21.13,54.559-48.782,54.638-76.477
		l0.161-8.942C444.293,285.486,444.276,285.835,444.27,286.185z"/>
	<path style="fill:#AD2201;" d="M444.294,285.136l-0.161,8.942c-0.078,27.695-18.279,55.347-54.638,76.477
		c-73.189,42.533-192.242,42.529-265.91-0.002c-37.07-21.403-55.584-49.497-55.505-77.548l0.161-8.942
		c-0.079,28.051,18.435,56.146,55.505,77.548c73.667,42.532,192.721,42.535,265.91,0.002
		C426.015,340.484,444.215,312.831,444.294,285.136z"/>
</g>
<path style="fill:#CD2A01;" d="M388.789,207.586c73.667,42.532,74.055,111.496,0.867,154.028s-192.242,42.529-265.91-0.002
	s-74.055-111.489-0.867-154.021S315.121,165.053,388.789,207.586z"/>
<path style="fill:#B3FA08;" d="M444.523,195.662c-12.932-7.464-37.547-10.405-51.023-18.185
	c-13.471-7.777-18.629-22.029-31.561-29.495c-2.225-1.284-4.68-2.368-7.447-3.184c-19.525-5.757-47.259,2.941-68.436,1.007
	c-21.396-1.951-43.274-15.141-64.649-13.19c-21.155,1.934-34.789,18.324-54.256,24.078c-18.779,5.559-49.839,2.223-65.531,11.342
	c-15.685,9.116-9.825,27.095-19.36,37.99c-9.877,11.3-38.122,19.246-41.398,31.51c-3.29,12.383,19.546,25.017,22.99,37.4
	c3.4,12.264-11.527,28.357-1.523,39.648c1.417,1.601,3.295,3.018,5.52,4.303c12.932,7.466,37.554,10.408,51.023,18.185
	c13.477,7.78,18.632,22.03,31.562,29.495c2.225,1.284,4.679,2.368,7.446,3.183c19.532,5.763,47.259-2.94,68.443-1.011
	c21.389,1.955,43.282,15.145,64.642,13.194c21.169-1.933,34.789-18.324,54.264-24.082c18.786-5.555,49.838-2.223,65.523-11.338
	c15.692-9.12,9.84-27.095,19.367-37.995c9.87-11.295,38.129-19.242,41.391-31.506c3.305-12.383-19.546-25.017-22.983-37.404
	c-3.407-12.26,11.527-28.348,1.516-39.643C448.625,198.363,446.748,196.947,444.523,195.662z"/>
<g>
	<path style="fill:#FE0B37;" d="M454.059,263.863c0.288-14.879-9.403-29.827-29.067-41.179
		c-38.594-22.282-100.967-22.28-139.312,0.002c-19.11,11.105-28.643,25.65-28.623,40.206c0-0.047-0.003-0.093-0.002-0.14
		l-0.085,20.668c-0.042,14.697,9.658,29.415,29.079,40.628c38.594,22.282,100.967,22.285,139.312,0.001
		c19.048-11.07,28.584-25.557,28.625-40.067l0.085-20.668C454.072,263.497,454.062,263.68,454.059,263.863z"/>
	<path style="fill:#FE0B37;" d="M454.072,263.313l-0.085,20.668c-0.041,14.509-9.576,28.997-28.625,40.067
		c-38.344,22.283-100.717,22.281-139.312-0.001c-19.422-11.213-29.121-25.931-29.079-40.628l0.085-20.668
		c-0.042,14.697,9.658,29.415,29.08,40.628c38.594,22.282,100.967,22.285,139.312,0.001
		C444.495,292.31,454.031,277.823,454.072,263.313z"/>
</g>
<path style="fill:#FF3E61;" d="M424.992,222.684c38.594,22.282,38.798,58.413,0.455,80.696
	c-38.344,22.283-100.717,22.281-139.312-0.001c-38.595-22.282-38.798-58.41-0.455-80.693S386.398,200.401,424.992,222.684z"/>
<g>
	<path style="fill:#FE0B37;" d="M256.958,263.863c0.288-14.879-9.403-29.827-29.067-41.179
		c-38.594-22.282-100.967-22.28-139.312,0.002c-19.11,11.105-28.643,25.65-28.623,40.206c0-0.047-0.003-0.093-0.002-0.14
		l-0.085,20.668c-0.042,14.697,9.658,29.415,29.08,40.628c38.594,22.282,100.967,22.285,139.312,0.001
		c19.048-11.07,28.584-25.557,28.625-40.067l0.085-20.668C256.97,263.497,256.961,263.68,256.958,263.863z"/>
	<path style="fill:#FE0B37;" d="M256.971,263.313l-0.085,20.668c-0.041,14.509-9.576,28.997-28.625,40.067
		c-38.344,22.283-100.717,22.281-139.312-0.001c-19.422-11.213-29.121-25.931-29.08-40.628l0.085-20.668
		c-0.042,14.697,9.658,29.415,29.08,40.628c38.594,22.282,100.967,22.285,139.312,0.001
		C247.394,292.31,256.929,277.823,256.971,263.313z"/>
</g>
<path style="fill:#FF3E61;" d="M227.891,222.684c38.594,22.282,38.798,58.413,0.455,80.696
	c-38.344,22.283-100.717,22.281-139.312-0.001c-38.595-22.282-38.798-58.41-0.455-80.693S189.296,200.401,227.891,222.684z"/>
<g>
	<polygon style="fill:#FEDA44;" points="255.51,122.319 43.233,245.681 43.198,257.629 256.864,380.989 469.141,257.627 
		469.176,245.678 	"/>
	<polygon style="fill:#FEDA44;" points="469.176,245.678 469.141,257.627 256.864,380.989 256.899,369.041 	"/>
</g>
<polygon style="fill:#FFDE56;" points="256.899,369.041 256.864,380.989 43.198,257.629 43.233,245.681 "/>
<polygon style="fill:#FFE577;" points="469.176,245.678 256.899,369.041 43.233,245.681 255.51,122.319 "/>
<g>
	<polygon style="fill:#FFB657;" points="255.168,16.994 0,165.282 0,211.208 256.832,359.49 512,211.203 512,165.276 	"/>
	<polygon style="fill:#FFB657;" points="512,165.276 512,211.203 256.832,359.49 256.832,313.563 	"/>
</g>
<polygon style="fill:#FEC377;" points="256.832,313.563 256.832,359.49 0,211.208 0,165.282 "/>
<polygon style="fill:#FEDAAA;" points="512,165.276 256.832,313.563 0,165.282 255.168,16.994 "/>
<g>
</g>
<g>
</g>
<g>
</g>
<g>
</g>
<g>
</g>
<g>
</g>
<g>
</g>
<g>
</g>
<g>
</g>
<g>
</g>
<g>
</g>
<g>
</g>
<g>
</g>
<g>
</g>
<g>
</g>
</svg>
