<?xml version="1.0" encoding="iso-8859-1"?>
<!-- Generator: Adobe Illustrator 19.0.0, SVG Export Plug-In . SVG Version: 6.00 Build 0)  -->
<svg version="1.1" id="Capa_1" xmlns="http://www.w3.org/2000/svg" xmlns:xlink="http://www.w3.org/1999/xlink" x="0px" y="0px"
	 viewBox="0 0 512 512" style="enable-background:new 0 0 512 512;" xml:space="preserve">
<circle style="fill:#FFD93B;" cx="256" cy="256" r="256"/>
<path style="fill:#F4C534;" d="M512,256c0,141.44-114.64,256-256,256c-80.48,0-152.32-37.12-199.28-95.28
	c43.92,35.52,99.84,56.72,160.72,56.72c141.36,0,256-114.56,256-256c0-60.88-21.2-116.8-56.72-160.72
	C474.8,103.68,512,175.52,512,256z"/>
<g>
	<path style="fill:#3E4347;" d="M114.176,228.784c-2.288-5.424,0.256-11.68,5.68-13.968c5.44-2.288,11.68,0.256,13.968,5.68
		c5.584,13.248,18.848,21.088,32.976,19.552c14.128-1.552,25.36-12.096,27.936-26.24c1.056-5.792,6.624-9.632,12.4-8.576
		c5.792,1.056,9.648,6.608,8.576,12.4c-4.288,23.504-23.008,41.024-46.592,43.616C145.632,263.84,123.488,250.848,114.176,228.784z"
		/>
	<path style="fill:#3E4347;" d="M342.864,261.248c-23.584-2.592-42.304-20.112-46.592-43.616c-1.056-5.792,2.784-11.36,8.576-12.416
		c5.792-1.04,11.344,2.784,12.416,8.576c2.576,14.144,13.808,24.688,27.936,26.24c14.176,1.536,27.392-6.304,32.976-19.552
		c2.288-5.424,8.544-7.968,13.968-5.68c5.424,2.288,7.968,8.544,5.68,13.968C388.496,250.896,366.32,263.84,342.864,261.248z"/>
	<circle style="fill:#3E4347;" cx="256" cy="368.48" r="54.304"/>
</g>
<g>
	<path style="fill:#E24B4B;" d="M386.384,142.96v17.936h-69.728v-16.064c5.52-6.4,34.112-39.504,39.888-45.28
		c-6.528,0.384-29.968-0.128-36.992,0V82.88H384v14.544c-34.992,40.384-26.848,30.976-40.256,45.52h42.64V142.96z"/>
	<path style="fill:#E24B4B;" d="M507.056,96.992v27.376H400.608V99.856c8.432-9.76,52.08-60.304,60.88-69.12
		c-9.952,0.576-45.76-0.192-56.48,0V5.28h98.416v22.208C450,89.136,462.448,74.784,441.968,96.992H507.056z"/>
</g>
<g>
</g>
<g>
</g>
<g>
</g>
<g>
</g>
<g>
</g>
<g>
</g>
<g>
</g>
<g>
</g>
<g>
</g>
<g>
</g>
<g>
</g>
<g>
</g>
<g>
</g>
<g>
</g>
<g>
</g>
</svg>
