<?xml version="1.0" encoding="iso-8859-1"?>
<!-- Generator: Adobe Illustrator 19.0.0, SVG Export Plug-In . SVG Version: 6.00 Build 0)  -->
<svg version="1.1" id="Layer_1" xmlns="http://www.w3.org/2000/svg" xmlns:xlink="http://www.w3.org/1999/xlink" x="0px" y="0px"
	 viewBox="0 0 512 512" style="enable-background:new 0 0 512 512;" xml:space="preserve">
<path style="fill:#6F7485;" d="M361.931,512H150.069c-14.626,0-26.483-11.857-26.483-26.483V26.483
	C123.586,11.857,135.443,0,150.069,0h211.862c14.626,0,26.483,11.857,26.483,26.483v459.034
	C388.414,500.143,376.557,512,361.931,512z"/>
<g>
	<path style="fill:#444455;" d="M361.931,441.379H150.069c-4.875,0-8.828-3.953-8.828-8.828V79.448c0-4.875,3.953-8.828,8.828-8.828
		h211.862c4.875,0,8.828,3.953,8.828,8.828v353.103C370.759,437.427,366.806,441.379,361.931,441.379z"/>
	<path style="fill:#444455;" d="M273.655,44.138h-35.31c-4.875,0-8.828-3.953-8.828-8.828l0,0c0-4.875,3.953-8.828,8.828-8.828
		h35.31c4.875,0,8.828,3.953,8.828,8.828l0,0C282.483,40.185,278.53,44.138,273.655,44.138z"/>
	<path style="fill:#444455;" d="M211.862,44.138L211.862,44.138c-4.875,0-8.828-3.953-8.828-8.828l0,0
		c0-4.875,3.953-8.828,8.828-8.828l0,0c4.875,0,8.828,3.953,8.828,8.828l0,0C220.69,40.185,216.737,44.138,211.862,44.138z"/>
</g>
<circle style="fill:#5A5D6F;" cx="256" cy="476.69" r="22.069"/>
<g>
</g>
<g>
</g>
<g>
</g>
<g>
</g>
<g>
</g>
<g>
</g>
<g>
</g>
<g>
</g>
<g>
</g>
<g>
</g>
<g>
</g>
<g>
</g>
<g>
</g>
<g>
</g>
<g>
</g>
</svg>
