<?xml version="1.0" encoding="iso-8859-1"?>
<!-- Generator: Adobe Illustrator 19.0.0, SVG Export Plug-In . SVG Version: 6.00 Build 0)  -->
<svg version="1.1" id="Capa_1" xmlns="http://www.w3.org/2000/svg" xmlns:xlink="http://www.w3.org/1999/xlink" x="0px" y="0px"
	 viewBox="0 0 513.386 513.386" style="enable-background:new 0 0 513.386 513.386;" xml:space="preserve">
<path style="fill:#FFD15C;" d="M512.673,248.45c-5.333-1.067-11.733-2.133-20.267-3.2c-40.533-3.2-81.067,8.533-113.067,33.067
	c-8.533,6.4-17.067,12.8-27.733,21.333c-12.8,10.667-24.533,7.467-39.467,1.067c-6.4-3.2-13.867-5.333-23.467-7.467
	c-55.467-12.8-117.333,18.133-125.867,37.333c0,0-11.733-9.6-25.6-4.267c0,0,22.4-26.667,9.6-115.2c0,0-4.267-90.667,38.4-104.533
	c0,0,25.6-6.4,37.333,6.4c11.733,12.8,49.067,9.6,49.067,9.6s32,0,41.6,4.267c9.6,4.267,41.6-12.8,41.6-12.8
	s10.667-17.067-4.267-18.133c0,0,26.667-9.6,14.933-20.267L326.006,3.117c0,0-17.067-10.667-88.533,7.467
	c-71.467,19.2-66.133,9.6-109.867,50.133C83.873,100.183,26.273,224.983,26.273,224.983s-36.267,104.533-22.4,181.333
	c3.2,19.2,5.333,38.4,4.267,57.6c0,1.067,0,2.133,0,4.267c-1.067,10.667,9.6,19.2,21.333,23.467
	c17.067,7.467,36.267,8.533,54.4,4.267c11.733-2.133,32,0,39.467,3.2c13.867,5.333,83.2,35.2,208-11.733
	c13.867-5.333,27.733-11.733,41.6-19.2c14.933-8.533,45.867-14.933,66.133,43.733h73.6V248.45z"/>
<g>
	<path style="fill:#FF7058;" d="M203.34,413.783c0,0,2.133,0,5.333,1.067s8.533,1.067,14.933,2.133
		c6.4,1.067,12.8,1.067,20.267,1.067c2.133,0,4.267,0,5.333,0c2.133,0,4.267,0,5.333,0c4.267,0,7.467,0,11.733-1.067
		c4.267,0,7.467-1.067,11.733-2.133c2.133,0,4.267-1.067,5.333-1.067c2.133-1.067,3.2-1.067,5.333-1.067
		c3.2-1.067,7.467-2.133,10.667-3.2c1.067-1.067,3.2-1.067,4.267-2.133c1.067-1.067,3.2-1.067,4.267-2.133
		c1.067-1.067,2.133-1.067,4.267-2.133c1.067-1.067,2.133-1.067,3.2-2.133c2.133-1.067,4.267-2.133,5.333-3.2
		c3.2-2.133,5.333-3.2,5.333-3.2s-1.067,2.133-3.2,4.267c-1.067,1.067-3.2,3.2-4.267,5.333c-2.133,2.133-4.267,4.267-6.4,5.333
		c-1.067,1.067-2.133,2.133-4.267,3.2c-1.067,1.067-3.2,2.133-4.267,3.2c-3.2,2.133-6.4,3.2-10.667,5.333
		c-4.267,1.067-7.467,3.2-11.733,4.267c-3.2,1.067-7.467,2.133-11.733,2.133s-8.533,1.067-12.8,1.067c-4.267,0-8.533,0-12.8-1.067
		c-4.267,0-7.467-1.067-11.733-2.133c-3.2-1.067-6.4-2.133-9.6-3.2c-3.2-1.067-5.333-2.133-8.533-3.2
		c-2.133-1.067-4.267-2.133-6.4-3.2C205.473,415.917,203.34,413.783,203.34,413.783z"/>
	<path style="fill:#FF7058;" d="M512.673,503.383c-2.133-4.267-5.333-8.533-8.533-12.8c-3.2-4.267-7.467-9.6-11.733-13.867
		s-8.533-9.6-13.867-13.867c-5.333-4.267-10.667-9.6-17.067-12.8c-6.4-4.267-12.8-7.467-19.2-11.733c-3.2-2.133-6.4-3.2-9.6-4.267
		c-3.2-1.067-6.4-3.2-9.6-4.267c-3.2-2.133-6.4-3.2-8.533-5.333c-1.067-1.067-3.2-2.133-4.267-3.2c-1.067-1.067-3.2-2.133-4.267-3.2
		c-3.2-2.133-5.333-4.267-7.467-6.4c-2.133-2.133-4.267-4.267-6.4-6.4c-4.267-4.267-7.467-8.533-10.667-12.8
		c-1.067-2.133-2.133-4.267-4.267-6.4c-1.067-2.133-2.133-4.267-3.2-6.4c-1.067-4.267-3.2-7.467-3.2-10.667
		c-1.067-3.2-1.067-5.333-1.067-7.467c0-2.133,0-2.133,0-2.133s0,1.067,0,2.133c0,1.067,0,2.133,0,3.2s0,3.2,0,4.267
		c0,3.2,1.067,7.467,1.067,11.733c1.067,2.133,1.067,4.267,2.133,7.467c1.067,2.133,2.133,5.333,3.2,7.467
		c2.133,5.333,6.4,10.667,10.667,14.933c2.133,2.133,4.267,5.333,6.4,7.467c2.133,2.133,5.333,5.333,7.467,6.4
		c1.067,1.067,3.2,2.133,4.267,3.2c1.067,1.067,3.2,2.133,4.267,3.2c3.2,2.133,6.4,4.267,9.6,5.333c3.2,2.133,6.4,3.2,9.6,5.333
		c3.2,2.133,6.4,3.2,9.6,5.333c6.4,3.2,12.8,6.4,18.133,10.667c3.2,2.133,5.333,4.267,8.533,5.333c3.2,2.133,5.333,4.267,8.533,6.4
		c5.333,4.267,9.6,8.533,14.933,12.8c4.267,4.267,8.533,8.533,11.733,12.8c3.2,4.267,6.4,7.467,9.6,10.667
		c1.067,2.133,2.133,3.2,3.2,4.267L512.673,503.383L512.673,503.383z"/>
	<path style="fill:#FF7058;" d="M218.273,87.383c0,0,1.067,0,4.267,0c1.067,0,3.2,0,4.267,0c2.133,0,3.2,0,5.333,0
		c4.267,0,9.6-1.067,13.867-2.133c2.133-1.067,5.333-2.133,7.467-3.2c1.067,0,2.133-1.067,3.2-2.133
		c1.067,0,1.067-1.067,2.133-1.067l1.067-1.067l2.133-1.067l1.067-1.067c1.067-1.067,2.133-2.133,3.2-3.2
		c1.067,0,1.067-1.067,2.133-1.067l2.133-1.067c1.067,0,1.067-1.067,2.133-1.067s1.067-1.067,2.133-1.067
		c3.2-1.067,5.333-1.067,8.533-1.067c2.133,0,5.333,0,7.467,1.067c2.133,0,4.267,1.067,5.333,2.133
		c2.133,1.067,3.2,1.067,4.267,2.133c2.133,1.067,3.2,2.133,3.2,2.133s-1.067,0-4.267-1.067c-1.067,0-3.2,0-4.267-1.067
		c-2.133,0-3.2,0-5.333-1.067c-2.133,0-4.267,0-6.4,0c-1.067,0-1.067,0-2.133,0c-1.067,0-1.067,0-2.133,0s-2.133,1.067-3.2,1.067
		s-1.067,0-2.133,1.067c0,0-1.067,0-1.067,1.067l-1.067,1.067l-1.067,1.067l-1.067,1.067l0,0l0,0l0,0l0,0l0,0l0,0l-2.133,1.067
		c-1.067,1.067-1.067,1.067-2.133,2.133l-2.133,1.067l-2.133,1.067c-1.067,0-1.067,1.067-2.133,1.067c0,1.067-1.067,2.133-3.2,2.133
		c-1.067,1.067-3.2,1.067-4.267,1.067c-1.067,0-3.2,1.067-4.267,1.067c-3.2,1.067-5.333,1.067-7.467,1.067c-2.133,0-5.333,0-7.467,0
		c-2.133,0-4.267,0-6.4-1.067c-2.133,0-3.2-1.067-4.267-1.067C220.406,88.45,220.406,88.45,218.273,87.383L218.273,87.383z"/>
	<path style="fill:#FF7058;" d="M280.14,83.117c0,0,1.067,0,2.133,0s3.2,0,5.333,1.067c1.067,0,2.133,1.067,3.2,1.067
		c1.067,1.067,2.133,1.067,3.2,2.133c1.067,1.067,2.133,1.067,3.2,2.133s2.133,2.133,2.133,2.133c0,1.067,0,2.133,1.067,2.133
		c1.067,1.067,2.133,1.067,2.133,2.133c1.067,0,2.133,1.067,2.133,1.067c1.067,0,2.133,1.067,2.133,1.067
		c1.067,0,2.133,0,2.133,1.067c1.067,0,1.067,0,2.133,0c1.067,0,2.133,0,2.133,0s0,0-1.067,1.067c-1.067,0-1.067,0-2.133,1.067
		c-1.067,0-2.133,0-3.2,0s-2.133,0-3.2,0c-1.067,0-2.133-1.067-3.2-1.067c-1.067-1.067-2.133-1.067-3.2-2.133
		c-1.067-1.067-2.133-2.133-3.2-3.2l-1.067-1.067c-1.067-1.067-1.067-1.067-1.067-1.067c-1.067-1.067-1.067-2.133-2.133-2.133
		c-1.067-1.067-1.067-2.133-2.133-3.2c-1.067,0-1.067-1.067-2.133-1.067c-1.067-1.067-2.133-2.133-3.2-2.133
		C281.206,83.117,280.14,83.117,280.14,83.117z"/>
	<path style="fill:#FF7058;" d="M274.806,70.317c1.067-2.133,4.267-2.133,6.4-4.267c1.067-1.067,2.133-2.133,2.133-3.2
		c1.067-2.133,2.133-5.333,3.2-8.533c0-1.067,1.067-2.133,1.067-2.133c2.133-1.067,4.267,1.067,4.267,2.133
		c0,2.133,0,4.267,1.067,5.333c1.067,2.133,3.2,3.2,5.333,4.267c5.333,1.067,11.733-2.133,12.8-7.467c0,3.2,1.067,6.4,3.2,8.533
		c1.067,2.133,4.267,3.2,3.2,5.333c-1.067,2.133-3.2,2.133-5.333,2.133c-4.267,0-8.533,1.067-12.8-1.067
		c-1.067,0-2.133-1.067-4.267-1.067c-1.067,0-2.133,0-3.2,0c-2.133,0-4.267,0-5.333,0s-2.133,0-3.2,0c-2.133,1.067-3.2,3.2-3.2,6.4
		c-2.133,0-4.267-1.067-5.333-2.133C273.74,74.583,273.74,71.383,274.806,70.317"/>
</g>
<g>
</g>
<g>
</g>
<g>
</g>
<g>
</g>
<g>
</g>
<g>
</g>
<g>
</g>
<g>
</g>
<g>
</g>
<g>
</g>
<g>
</g>
<g>
</g>
<g>
</g>
<g>
</g>
<g>
</g>
</svg>
