<?xml version="1.0" encoding="utf-8"?>
<!-- Generator: Adobe Illustrator 22.1.0, SVG Export Plug-In . SVG Version: 6.00 Build 0)  -->
<svg version="1.1" id="Layer_1" xmlns="http://www.w3.org/2000/svg"  x="0px" y="0px"
	 viewBox="0 0 464 464" style="enable-background:new 0 0 464 464;" xml:space="preserve">
<g>
	<path style="fill:#F6B47B;" d="M455.9,453.5l-3.9-29.1c-0.8-6.2-5-11.4-10.9-13.6l-23-8.4c-2.8-0.9-4.6-3.5-4.6-6.4v-10.9l14.5-6.1
		c7.5-3.1,12.5-10.5,12.5-18.7V357c5.6,0,10.1-4.5,10.1-10.1s-4.5-10.1-10.1-10.1V330c0-9.3-7.6-23.6-16.9-23.6h-60.7
		c-9.3,0-16.9,14.3-16.9,23.6v6.7c-5.6,0-10.1,4.5-10.1,10.1S340.4,357,346,357v3.4c0,8.2,4.9,15.5,12.5,18.7l14.5,6.1V396
		c0,2.9-1.9,5.5-4.6,6.4l-23,8.4c-5.9,2.2-10.1,7.4-10.9,13.6l-3.9,29.1c-0.8,6.1,3.9,11.5,10,11.5h105.1
		C452,465,456.7,459.6,455.9,453.5z"/>
	<path style="fill:#6E4439;" d="M443.9,353.6h-6.7c0,0-3.2,8.9-3.4,20.2c-0.1,6.4,1.6,13.5,3.4,20.2h6.7c1.8-6.8,3.5-13.9,3.4-20.2
		C447.1,362.5,443.9,353.6,443.9,353.6z"/>
	<path style="fill:#5E342E;" d="M349.4,353.6h-6.7c0,0-3.2,8.9-3.4,20.2c-0.1,6.4,1.6,13.5,3.4,20.2h6.7c1.8-6.8,3.5-13.9,3.4-20.2
		C352.6,362.5,349.4,353.6,349.4,353.6z"/>
	<g>
		<path style="fill:#F23F44;" d="M344.4,331.8h-18.6c-2.4,0-4,2.4-3.1,4.6l3.4,8.6c0.8,1.9,3.1,2.7,4.9,1.6l13.5-8.1V331.8z"/>
	</g>
	<g>
		<path style="fill:#FF4F4F;" d="M344.4,331.8h-18.6c-2.4,0-4-2.4-3.1-4.6l3.4-8.6c0.8-1.9,3.1-2.7,4.9-1.6l13.5,8.1V331.8z"/>
	</g>
	<g>
		<path style="fill:#F23F44;" d="M442.1,331.8h18.6c2.4,0,4,2.4,3.1,4.6l-3.4,8.6c-0.8,1.9-3.1,2.7-4.9,1.6l-13.5-8.1V331.8z"/>
	</g>
	<g>
		<path style="fill:#FF4F4F;" d="M442.1,331.8h18.6c2.4,0,4-2.4,3.1-4.6l-3.4-8.6c-0.8-1.9-3.1-2.7-4.9-1.6l-13.5,8.1V331.8z"/>
	</g>
	<g>
		<path style="fill:#E2A071;" d="M413.5,385.1l-40.5-9V396c0,2.4-1.3,4.6-3.4,5.8C397.9,406.7,413.5,385.1,413.5,385.1z"/>
	</g>
	<g>
		<path style="fill:#FDC88E;" d="M346,336.7c-5.6,0-10.1,4.5-10.1,10.1c0,5.6,4.5,10.1,10.1,10.1v3.4c0,8.2,4.9,15.5,12.5,18.7
			l21.8,9.1c4.1,1.7,8.5,2.6,13,2.6l0,0c4.5,0,8.9-0.9,13-2.6l21.8-9.1c7.5-3.1,12.5-10.5,12.5-18.7V357c5.6,0,10.1-4.5,10.1-10.1
			s-4.5-10.1-10.1-10.1v-11c0-10.7-8.7-19.4-19.4-19.4h-55.7c-10.7,0-19.4,8.7-19.4,19.4V336.7z"/>
	</g>
	<g>
		<path style="fill:#623F33;" d="M369.7,350.2L369.7,350.2c-1.9,0-3.4-1.5-3.4-3.4v-3.4c0-1.9,1.5-3.4,3.4-3.4l0,0
			c1.9,0,3.4,1.5,3.4,3.4v3.4C373,348.7,371.5,350.2,369.7,350.2z"/>
	</g>
	<g>
		<path style="fill:#623F33;" d="M416.9,350.2L416.9,350.2c-1.9,0-3.4-1.5-3.4-3.4v-3.4c0-1.9,1.5-3.4,3.4-3.4l0,0
			c1.9,0,3.4,1.5,3.4,3.4v3.4C420.3,348.7,418.8,350.2,416.9,350.2z"/>
	</g>
	<g>
		<g>
			<path style="fill:#E2A071;" d="M393.3,373.9c-6,0-11.6-1.5-15.4-4.1c-1.5-1-1.9-3.1-0.9-4.7c1-1.5,3.1-1.9,4.7-0.9
				c2.7,1.8,7,2.9,11.6,2.9s8.9-1.1,11.6-2.9c1.5-1.1,3.6-0.6,4.7,0.9c1,1.5,0.6,3.6-0.9,4.7C404.9,372.5,399.3,373.9,393.3,373.9z"
				/>
		</g>
	</g>
	<path style="fill:#F6B47B;" d="M346,336.7c-5.6,0-10.1,4.5-10.1,10.1S340.4,357,346,357v3.4c0,8.2,4.9,15.5,12.5,18.7l21.8,9.1
		c1.1,0.4,2.2,0.8,3.3,1.2c-9.6-7-16.1-13.2-19.8-17.2c-2.7-2.9-4.2-6.8-4.2-10.8v-18.9c9.7-3.4,36.8-14.4,37.1-32.6l-4.2-4.2
		C392.4,305.5,390.6,329.7,346,336.7z"/>
	<g>
		<path style="fill:#F23F44;" d="M432,407l-12.1,19.4c-1.9,3-5.1,4.8-8.6,4.8h-36c-3.5,0-6.7-1.8-8.6-4.8L354.5,407
			c-1-1.6-3-2.1-4.6-1.1l-11.1,6.7c-1.6,1-2.1,3.1-1.1,4.7l15.1,24.1h81l15.1-24.1c1-1.6,0.5-3.7-1.1-4.7l-11.1-6.7
			C435,405,433,405.5,432,407z"/>
	</g>
	<g>
		<rect x="352.8" y="441.3" style="fill:#FF4F4F;" width="81" height="23.6"/>
	</g>
	<path style="fill:#6E4439;" d="M410.1,269.2c-11,0-16.9,3.4-16.9,3.4s-5.9-3.4-16.9-3.4s-52.6,21.1-37.1,70c0,0,54-9.6,54-32.9
		c0,23.3,54,32.9,54,32.9C462.7,290.3,421.1,269.2,410.1,269.2z"/>
	<g>
		<path style="fill:#5E342E;" d="M393.3,272.6L393.3,272.6c0,0-5.9-3.4-16.9-3.4s-52.6,21.1-37.1,70c0,0,6.5-1.2,15.1-3.7
			C344.8,291.7,382.8,272.6,393.3,272.6z"/>
	</g>
	<g>
		<path style="fill:#F23F44;" d="M349.4,400.8h-6.7c-1.9,0-3.4-1.5-3.4-3.4l0,0c0-1.9,1.5-3.4,3.4-3.4h6.7c1.9,0,3.4,1.5,3.4,3.4
			l0,0C352.8,399.3,351.3,400.8,349.4,400.8z"/>
	</g>
	<g>
		<path style="fill:#5E342E;" d="M349.4,400.8c0,0,5.9,10.1-3.4,23.6c-9.3-13.5-3.4-23.6-3.4-23.6"/>
	</g>
	<g>
		<path style="fill:#FF4F4F;" d="M437.1,400.8h6.7c1.9,0,3.4-1.5,3.4-3.4l0,0c0-1.9-1.5-3.4-3.4-3.4h-6.7c-1.9,0-3.4,1.5-3.4,3.4
			l0,0C433.8,399.3,435.3,400.8,437.1,400.8z"/>
	</g>
	<g>
		<path style="fill:#6E4439;" d="M437.1,400.8c0,0-5.9,10.1,3.4,23.6c9.3-13.5,3.4-23.6,3.4-23.6"/>
	</g>
</g>
<g>
	<g>
		<path style="fill:#5E342E;" d="M27.3,346.4L27.3,346.4L27.3,346.4c-7.4,0-13.4,6-13.4,13.4c0,1.3,0.2,2.5,0.6,3.7
			c-6.1,1.3-10.6,6.7-10.6,13.1c0,2.3,0.6,4.5,1.7,6.4c-3,2.5-5,6.2-5,10.4c0,5.3,3.1,9.9,7.6,12.1c-0.6,1.5-0.9,3.1-0.9,4.7
			c0,7.4,6,13.4,13.4,13.4h60.4v-77.2H27.3z"/>
		<path style="fill:#734A3E;" d="M161.6,393.4c0-4.2-2-7.9-5-10.4c1-1.9,1.7-4.1,1.7-6.4c0-6.5-4.6-11.8-10.6-13.1
			c0.3-1.2,0.6-2.4,0.6-3.7c0-7.4-6-13.4-13.4-13.4l0,0v0H81.1v77.2h60.4c7.4,0,13.4-6,13.4-13.4c0-1.7-0.3-3.3-0.9-4.7
			C158.5,403.3,161.6,398.8,161.6,393.4z"/>
	</g>
	<path style="fill:#F6B47B;" d="M143.3,452.5l-3.9-28.9c-0.4-2.8-1.4-5.3-3-7.5c0.7-1.5,0.2-3.4-1.3-4.3l-11-6.6
		c-1.6-0.9-3.6-0.5-4.6,1.1l-0.2,0.4l-13.6-5c-2.7-0.9-4.6-3.5-4.6-6.4v-10.8l14.5-6c7.5-3.1,12.4-10.5,12.4-18.6v-30.2
		c0-9.3-7.5-23.5-16.8-23.5H50.8c-9.3,0-16.8,14.2-16.8,23.5v30.2c0,8.1,4.9,15.5,12.4,18.6l14.5,6v10.8c0,2.9-1.8,5.5-4.6,6.4
		l-13.6,5l-0.2-0.4c-1-1.6-3-2-4.6-1.1l-11,6.6c-1.5,0.9-2,2.8-1.3,4.3c-1.6,2.2-2.6,4.7-3,7.5l-3.9,28.9c-0.8,6,3.9,11.4,10,11.4
		h104.6C139.4,463.9,144.1,458.6,143.3,452.5z"/>
	<path style="fill:#E2A071;" d="M101.2,384.2H60.9v11.1c0,2.4-1.3,4.6-3.3,5.7C85.7,405.9,101.2,384.2,101.2,384.2z"/>
	<g>
		<path style="fill:#FDC88E;" d="M115.7,378.5l-21.7,9c-4.1,1.7-8.5,2.6-12.9,2.6l0,0c-4.4,0-8.8-0.9-12.9-2.6l-21.7-9
			c-7.5-3.1-12.4-10.5-12.4-18.6v-30.2c0-9.3,7.5-23.5,16.8-23.5h60.4c9.3,0,16.8,14.2,16.8,23.5v30.2
			C128,368,123.2,375.3,115.7,378.5z"/>
	</g>
	<g>
		<path style="fill:#623F33;" d="M57.6,349.8L57.6,349.8c-1.8,0-3.4-1.5-3.4-3.4v-3.4c0-1.8,1.5-3.4,3.4-3.4l0,0
			c1.8,0,3.4,1.5,3.4,3.4v3.4C60.9,348.3,59.4,349.8,57.6,349.8z"/>
	</g>
	<g>
		<path style="fill:#623F33;" d="M104.5,349.8L104.5,349.8c-1.8,0-3.4-1.5-3.4-3.4v-3.4c0-1.8,1.5-3.4,3.4-3.4l0,0
			c1.8,0,3.4,1.5,3.4,3.4v3.4C107.9,348.3,106.4,349.8,104.5,349.8z"/>
	</g>
	<g>
		<g>
			<path style="fill:#E2A071;" d="M81.1,373.4c-6,0-11.6-1.5-15.3-4c-1.5-1-1.9-3.1-0.9-4.7c1-1.5,3.1-1.9,4.7-0.9
				c2.6,1.8,7,2.9,11.5,2.9s8.9-1.1,11.5-2.9c1.5-1,3.6-0.6,4.7,0.9c1,1.5,0.6,3.6-0.9,4.7C92.6,371.9,87,373.4,81.1,373.4z"/>
		</g>
	</g>
	<path style="fill:#F6B47B;" d="M81.1,296.1c0,0-9.4,11.9-31,25.2c-6.7,4.1-15.9,12.9-15.9,21v17.6c0,8.1,4.9,15.5,12.4,18.6l21.7,9
		c1.1,0.4,2.1,0.8,3.2,1.2c-9.6-7-16-13.1-19.7-17.1c-2.7-2.9-4.2-6.8-4.2-10.8v-23.5c10.3-11.4,39.8-21,40.3-31.1
		C88.1,299.2,81.1,296.1,81.1,296.1z"/>
	<g>
		<path style="fill:#FF8C51;" d="M119.6,406.3l-12.1,19.3c-1.8,2.9-5.1,4.7-8.5,4.7H63.1c-3.5,0-6.7-1.8-8.5-4.7l-12.1-19.3
			c-1-1.6-3-2-4.6-1.1l-11,6.6c-1.6,1-2.1,3.1-1.1,4.7l15,24h80.6l15-24c1-1.6,0.5-3.7-1.1-4.7l-11-6.6
			C122.6,404.3,120.6,404.7,119.6,406.3z"/>
	</g>
	<g>
		<rect x="40.8" y="440.4" style="fill:#FF7941;" width="80.6" height="23.5"/>
	</g>
	<path style="fill:#5E342E;" d="M34.1,350.2c0-0.1,0-0.3,0-0.4c0-20.7,47-37.5,47-47v-30.2c0,0-1.4-3.2-10.1-3.4
		c-4.6-0.1-13.3,1.9-20.1,6.7c-20.4,14.4-28.5,47.4-31.7,74.3H34.1z"/>
	<path style="fill:#734A3E;" d="M128,349.8c0,0.1,0,0.3,0,0.4H143c-3.2-26.8-11.3-59.8-31.7-74.3c-6.8-4.8-15.6-6.8-20.1-6.7
		c-8.7,0.1-10.1,3.4-10.1,3.4v30.2C81.1,312.3,128,329.1,128,349.8z"/>
</g>
<g>
	<path style="fill:#FFD7A3;" d="M344.9,444.3l-7.4-59.1c-1.1-8.9-7.3-16.4-15.8-19.3l-28.5-9.5c-3.9-1.3-8.2-0.5-11.2,2.1l-8.4-2.8
		c-4.8-1.6-8-6-8-11.1v-18.8l25.1-10.5c13-5.4,21.6-18.2,21.6-32.3v-5.8c9.7,0,17.5-7.8,17.5-17.5c0-4.4-1.6-8.3-4.2-11.4
		c5-18,18.9-75.1,4.2-99.5l5.8-23.3c0,0-61.3,1.5-93.4,11.7l11.7-11.7c0,0-82.1,0-99.2,29.2l0,0c0,0-29.2-0.2-29.2,35
		c0,12.9,7.2,45.1,10.3,58.4c-2.8,3.1-4.5,7.2-4.5,11.7c0,9.7,7.8,17.5,17.5,17.5v5.8c0,14.1,8.5,26.9,21.6,32.3l25.1,10.5v18.8
		c0,5-3.2,9.5-8,11.1l-8.4,2.8c-3-2.6-7.3-3.4-11.2-2.1l-28.5,9.5c-8.5,2.8-14.7,10.3-15.8,19.3l-7.4,59.1
		c-1.3,10.5,6.8,19.7,17.4,19.7h0.2h193.5h0.2C338,464,346.2,454.8,344.9,444.3z"/>
	<g>
		<path style="fill:#FDC88E;" d="M265.6,325.9l-70,0v18.8c0,4.2-2.3,7.9-5.8,10C238.7,363.2,265.6,325.9,265.6,325.9z"/>
	</g>
	<g>
		<path style="fill:#734A3E;" d="M137.2,253.9c0,0-11.7-47.8-11.7-64.2c0-35.3,29.2-35,29.2-35l0,0c17.1-29.2,99.2-29.2,99.2-29.2
			l-11.7,11.7c32.1-10.2,93.4-11.7,93.4-11.7l-5.8,23.3c17.5,29.2-5.8,105.1-5.8,105.1H137.2z"/>
	</g>
	<g>
		<path style="fill:#623F33;" d="M253.9,125.5c0,0-82.1,0-99.2,29.2l0,0c0,0-29.2-0.2-29.2,35c0,16.4,11.7,64.2,11.7,64.2
			s121.4-54.2,198.4-128.4c0,0-61.3,1.5-93.4,11.7L253.9,125.5z"/>
	</g>
	<path style="fill:#FFE1B2;" d="M312.3,242.2v-11.7c0-16.1-13.1-29.2-29.2-29.2H178.1c-16.1,0-29.2,13.1-29.2,29.2v11.7
		c-9.7,0-17.5,7.8-17.5,17.5s7.8,17.5,17.5,17.5v5.8c0,14.1,8.5,26.9,21.6,32.3l37.7,15.7c7.1,3,14.7,4.5,22.4,4.5l0,0
		c7.7,0,15.3-1.5,22.4-4.5l37.7-15.7c13-5.4,21.6-18.2,21.6-32.3v-5.8c9.7,0,17.5-7.8,17.5-17.5S322,242.2,312.3,242.2z"/>
	<g>
		<path style="fill:#623F33;" d="M189.7,265.6L189.7,265.6c-3.2,0-5.8-2.6-5.8-5.8v-5.8c0-3.2,2.6-5.8,5.8-5.8l0,0
			c3.2,0,5.8,2.6,5.8,5.8v5.8C195.6,262.9,192.9,265.6,189.7,265.6z"/>
	</g>
	<g>
		<path style="fill:#623F33;" d="M271.4,265.6L271.4,265.6c-3.2,0-5.8-2.6-5.8-5.8v-5.8c0-3.2,2.6-5.8,5.8-5.8l0,0
			c3.2,0,5.8,2.6,5.8,5.8v5.8C277.3,262.9,274.7,265.6,271.4,265.6z"/>
	</g>
	<g>
		<g>
			<path style="fill:#E4B07B;" d="M230.6,306.6c-10.4,0-20.1-2.6-26.6-7c-2.7-1.8-3.4-5.4-1.5-8.1c1.8-2.7,5.4-3.4,8.1-1.5
				c4.6,3.1,12.1,5,20.1,5c8,0,15.5-1.9,20.1-5c2.7-1.8,6.3-1.1,8.1,1.5c1.8,2.7,1.1,6.3-1.5,8.1C250.7,304,241,306.6,230.6,306.6z"
				/>
		</g>
	</g>
	<g>
		<path style="fill:#00BEA4;" d="M344.9,444.3l-7.4-59.1c-1.1-8.9-7.3-16.4-15.8-19.3l-28.5-9.5c-5-1.7-10.5,0.1-13.3,4.5
			c-10.3,16.3-28.5,27.1-49.3,27.1s-38.9-10.8-49.3-27.1c-2.8-4.4-8.4-6.2-13.3-4.5l-28.5,9.5c-8.5,2.8-14.7,10.3-15.8,19.3
			l-7.4,59.1c-1.3,10.5,6.8,19.7,17.4,19.7h193.8C338,464,346.2,454.8,344.9,444.3z"/>
	</g>
	<g>
		<path style="fill:#00AB9A;" d="M128.6,373.7c-2.6,3.3-4.3,7.2-4.9,11.6l-7.4,59.1c-1.3,10.5,6.8,19.7,17.4,19.7h32.7v-38
			c0-5.6-2-11-5.7-15.3L128.6,373.7z"/>
	</g>
	<g>
		<path style="fill:#00AB9A;" d="M332.6,373.7c2.6,3.3,4.3,7.2,4.9,11.6l7.4,59.1c1.3,10.5-6.8,19.7-17.4,19.7h-32.7v-38
			c0-5.6,2-11,5.7-15.3L332.6,373.7z"/>
	</g>
	<path style="fill:#FFD7A3;" d="M179.5,303.3c-4.7-5.1-7.3-11.8-7.3-18.7v-66.1c18.6-1.4,77.1-6.5,110.9-17.1H178.1
		c-2,0-4,0.2-5.8,0.6v-0.1c-13.3,2.7-23.3,14.5-23.3,28.6v11.7c-9.7,0-17.5,7.8-17.5,17.5s7.8,17.5,17.5,17.5v5.8
		c0,14.1,8.5,26.9,21.6,32.3l37.7,15.7c1.8,0.8,3.7,1.4,5.6,2C197.1,320.9,186,310.3,179.5,303.3z"/>
</g>
</svg>
