<?xml version="1.0" encoding="iso-8859-1"?>
<!-- Generator: Adobe Illustrator 19.0.0, SVG Export Plug-In . SVG Version: 6.00 Build 0)  -->
<svg version="1.1" id="Layer_1" xmlns="http://www.w3.org/2000/svg" xmlns:xlink="http://www.w3.org/1999/xlink" x="0px" y="0px"
	 viewBox="0 0 512.001 512.001" style="enable-background:new 0 0 512.001 512.001;" xml:space="preserve">
<path style="fill:#D5DCED;" d="M355.404,405.935l-87.016-55.374v-86.303c0-4.56-3.694-8.258-8.258-8.258s-8.258,3.698-8.258,8.258
	v86.303l-87.016,55.374c-3.847,2.448-4.984,7.552-2.532,11.403c2.444,3.843,7.54,4.98,11.403,2.532l86.403-54.984l86.403,54.984
	c1.379,0.875,2.911,1.29,4.427,1.29c2.726,0,5.403-1.351,6.976-3.823C360.388,413.488,359.251,408.383,355.404,405.935z"/>
<path style="fill:#5A4146;" d="M202.324,33.032v5.795c0,7.101,1.145,14.155,3.39,20.891l13.126,39.378h24.774V8.258h-16.516
	C213.415,8.258,202.324,19.35,202.324,33.032z"/>
<path style="fill:#694B4B;" d="M315.395,50.187l-13.974,48.91L235.356,41.29c-9.122,0-16.516-7.395-16.516-16.516l0,0
	C218.84,11.092,229.931,0,243.614,0h57.806c9.122,0,16.516,7.395,16.516,16.516v15.522
	C317.936,38.176,317.081,44.285,315.395,50.187z"/>
<rect x="235.351" y="123.87" style="fill:#E6AF78;" width="49.548" height="36.549"/>
<path style="fill:#D29B6E;" d="M235.356,139.04c7.659,3.112,16.011,4.864,24.774,4.864s17.115-1.752,24.774-4.864v-15.169h-49.548
	L235.356,139.04L235.356,139.04z"/>
<path style="fill:#707487;" d="M324.742,155.287l-39.84-11.382l-24.772,16.439l-24.774-16.44l-39.838,11.383
	c-10.636,3.039-17.968,12.76-17.968,23.821v43.86c0,4.561,3.697,8.258,8.258,8.258h148.645c4.561,0,8.258-3.697,8.258-8.258v-43.86
	C342.711,168.047,335.378,158.325,324.742,155.287z"/>
<polygon style="fill:#00C3FF;" points="268.388,231.226 251.872,231.226 256.001,160.42 264.259,160.42 "/>
<path style="fill:#F0C087;" d="M260.13,132.129L260.13,132.129c-27.365,0-49.548-22.184-49.548-49.548v-9.675
	c0-4.38,1.74-8.581,4.837-11.679l14.975-14.975c3.171-3.171,7.507-4.994,11.989-4.853c26.398,0.833,49.764,6.488,62.537,18.963
	c3.127,3.054,4.759,7.326,4.759,11.696v10.523C309.678,109.945,287.495,132.129,260.13,132.129z"/>
<path style="fill:#E6AF78;" d="M235.356,74.955c0-9.526,8-17.098,17.507-16.492c16.671,1.064,41.409,3.85,56.586,11.15
	c-0.495-3.484-1.992-6.773-4.529-9.251c-12.773-12.475-36.139-18.13-62.537-18.963l-0.001,0.001l-0.001-0.001
	c-4.481-0.141-8.818,1.683-11.988,4.853l-14.974,14.974c-3.098,3.097-4.838,7.298-4.838,11.679v9.675
	c0,22.596,15.141,41.621,35.82,47.579c-6.883-8.492-11.045-19.272-11.045-31.063V74.955z"/>
<g>
	<path style="fill:#5B5D6E;" d="M210.582,203.715c0-6.571-2.61-12.872-7.256-17.518l-21.257-21.257
		c-2.841,4.061-4.519,8.95-4.519,14.169v43.86c0,4.561,3.697,8.258,8.258,8.258h24.774V203.715z"/>
	<path style="fill:#5B5D6E;" d="M309.678,203.715c0-6.571,2.61-12.872,7.256-17.518l21.257-21.257
		c2.841,4.061,4.519,8.95,4.519,14.169v43.86c0,4.561-3.697,8.258-8.258,8.258h-24.774L309.678,203.715L309.678,203.715z"/>
</g>
<path style="fill:#0096DC;" d="M264.259,176.937h-8.258c-2.28,0-4.129-1.849-4.129-4.129V160.42h16.516v12.387
	C268.388,175.088,266.539,176.937,264.259,176.937z"/>
<g>
	<path style="fill:#5B5D6E;" d="M260.13,160.344l-13.997,10.692c-2.411,1.842-5.897,1.104-7.354-1.558l-12.556-22.93l5.054-7.709
		c1.121-1.71,3.51-2.001,5.009-0.611L260.13,160.344z"/>
	<path style="fill:#5B5D6E;" d="M260.13,160.344l13.997,10.692c2.411,1.842,5.897,1.104,7.354-1.558l12.556-22.93l-5.054-7.709
		c-1.121-1.71-3.51-2.001-5.009-0.611L260.13,160.344z"/>
</g>
<path style="fill:#5A4146;" d="M28.904,313.806v5.795c0,7.101,1.145,14.155,3.39,20.891L45.42,379.87h24.774v-90.839H53.678
	C39.996,289.032,28.904,300.124,28.904,313.806z"/>
<path style="fill:#694B4B;" d="M141.975,330.961l-13.974,48.91l-66.065-57.806c-9.122,0-16.516-7.395-16.516-16.516l0,0
	c0-13.682,11.092-24.774,24.774-24.774h57.807c9.122,0,16.516,7.395,16.516,16.516v15.522
	C144.517,318.95,143.662,325.059,141.975,330.961z"/>
<rect x="61.936" y="404.64" style="fill:#E6AF78;" width="49.548" height="36.549"/>
<path style="fill:#D29B6E;" d="M61.936,419.815c7.659,3.112,16.011,4.864,24.774,4.864s17.115-1.752,24.774-4.864v-15.169H61.936
	V419.815z"/>
<path style="fill:#D5DCED;" d="M151.323,436.061l-39.84-11.382l-24.772,16.439l-24.774-16.44l-39.838,11.383
	c-10.636,3.039-17.968,12.76-17.968,23.821v43.86c0,4.561,3.697,8.258,8.258,8.258h148.645c4.561,0,8.258-3.697,8.258-8.258v-43.86
	C169.291,448.821,161.958,439.1,151.323,436.061z"/>
<polygon style="fill:#FFF082;" points="94.969,512 78.453,512 82.582,441.195 90.84,441.195 "/>
<path style="fill:#F0C087;" d="M86.711,412.903L86.711,412.903c-27.365,0-49.548-22.184-49.548-49.548v-9.675
	c0-4.38,1.74-8.581,4.837-11.679l14.975-14.975c3.171-3.171,7.507-4.994,11.989-4.853c26.398,0.833,49.764,6.488,62.537,18.963
	c3.127,3.054,4.759,7.326,4.759,11.696v10.523C136.259,390.72,114.076,412.903,86.711,412.903z"/>
<path style="fill:#E6AF78;" d="M61.936,355.729c0-9.526,8-17.098,17.507-16.492c16.671,1.064,41.409,3.85,56.586,11.15
	c-0.495-3.484-1.992-6.773-4.529-9.251c-12.773-12.475-36.139-18.13-62.537-18.963h-0.001h-0.001
	c-4.481-0.141-8.818,1.683-11.988,4.853L41.999,342c-3.098,3.097-4.838,7.298-4.838,11.679v9.675
	c0,22.596,15.141,41.621,35.82,47.579c-6.883-8.492-11.045-19.272-11.045-31.063C61.936,379.87,61.936,355.729,61.936,355.729z"/>
<g>
	<path style="fill:#C7CFE2;" d="M37.162,484.489c0-6.571-2.61-12.872-7.256-17.518L8.649,445.713
		c-2.841,4.061-4.519,8.95-4.519,14.169v43.86c0,4.561,3.697,8.258,8.258,8.258h24.774V484.489z"/>
	<path style="fill:#C7CFE2;" d="M136.259,484.489c0-6.571,2.61-12.872,7.256-17.518l21.257-21.257
		c2.841,4.061,4.519,8.95,4.519,14.169v43.86c0,4.561-3.697,8.258-8.258,8.258h-24.774V484.489z"/>
</g>
<path style="fill:#FFDC64;" d="M90.84,457.711h-8.258c-2.28,0-4.129-1.849-4.129-4.129v-12.387h16.516v12.387
	C94.969,455.862,93.12,457.711,90.84,457.711z"/>
<g>
	<path style="fill:#C7CFE2;" d="M86.711,441.118L72.714,451.81c-2.411,1.842-5.897,1.104-7.354-1.558l-12.556-22.93l5.054-7.709
		c1.121-1.71,3.51-2.001,5.009-0.611L86.711,441.118z"/>
	<path style="fill:#C7CFE2;" d="M86.711,441.118l13.997,10.692c2.411,1.842,5.897,1.104,7.354-1.558l12.556-22.93l-5.054-7.709
		c-1.121-1.71-3.51-2.001-5.009-0.611L86.711,441.118z"/>
</g>
<ellipse style="fill:#785550;" cx="433.551" cy="284.9" rx="33.03" ry="28.903"/>
<path style="fill:#694B4B;" d="M425.291,284.903c0-12.124,8.549-22.468,20.645-26.76c-3.831-1.359-8-2.143-12.387-2.143
	c-18.243,0-33.032,12.941-33.032,28.903s14.789,28.903,33.032,28.903c4.388,0,8.556-0.784,12.387-2.143
	C433.841,307.371,425.291,297.027,425.291,284.903z"/>
<path style="fill:#E6AF78;" d="M494.176,449.297l-26.724-13.361c-5.596-2.798-9.131-8.518-9.13-14.774l0.001-24.775h-49.548v24.776
	c0,6.256-3.534,11.974-9.13,14.772l-26.724,13.362c-8.393,4.197-13.695,12.775-13.695,22.158v32.286c0,4.56,3.697,8.258,8.258,8.258
	h132.129c4.561,0,8.258-3.698,8.258-8.258v-32.285C507.872,462.073,502.57,453.494,494.176,449.297z"/>
<path style="fill:#D29B6E;" d="M433.549,429.419c8.892,0,17.409-1.833,25.217-5.096c-0.205-1.041-0.444-2.076-0.444-3.161
	l0.001-24.775h-49.548v24.776c0,1.091-0.239,2.131-0.446,3.176C416.142,427.585,424.655,429.419,433.549,429.419z"/>
<path style="fill:#00C3FF;" d="M494.176,449.297l-19.038-9.519c-8.828,13.632-24.139,22.673-41.589,22.673
	c-17.45,0-32.762-9.041-41.59-22.674l-19.038,9.52c-8.393,4.197-13.695,12.775-13.695,22.159v32.286
	c0,4.561,3.697,8.258,8.258,8.258h132.129c4.561,0,8.258-3.697,8.258-8.258v-32.285C507.872,462.073,502.57,453.494,494.176,449.297
	z"/>
<circle style="fill:#5A4146;" cx="433.551" cy="338.58" r="57.806"/>
<path style="fill:#694B4B;" d="M490.814,330.567c-3.177-23.557-21.225-43.251-44.436-48.376c-4.234-0.935-8.402-1.39-12.468-1.415
	c-27.695-0.173-36.943,38.067-12.046,50.198c1.339,0.652,2.187,0.945,2.187,0.945L452.818,384c0,0,7.665,0.524,15.396,0.762
	C484.196,372.745,493.799,352.702,490.814,330.567z"/>
<path style="fill:#F0C087;" d="M433.549,412.903L433.549,412.903c-25.192,0-45.992-18.8-49.137-43.135
	c-0.456-3.525,1.239-6.983,4.413-8.584c3.802-1.918,9.327-5.152,14.617-9.872c5.891-5.256,9.347-10.799,11.299-14.868
	c1.681-3.504,5.545-5.486,9.311-4.525c29.076,7.416,48.871,22.543,56.053,28.719c1.928,1.658,3.039,4.103,2.841,6.639
	C480.946,392.808,459.594,412.903,433.549,412.903z"/>
<path style="fill:#E6AF78;" d="M480.104,360.638c-7.181-6.176-26.977-21.303-56.053-28.719c-3.766-0.961-7.63,1.021-9.311,4.525
	c-1.478,3.082-3.921,7.008-7.546,11.016c-0.001,0.01-0.004,0.018-0.005,0.028c-1.125,1.275-2.323,2.553-3.747,3.825
	c-5.29,4.721-10.815,7.954-14.617,9.872c-3.174,1.601-4.868,5.059-4.413,8.585c2.825,21.855,19.927,39.12,41.625,42.438
	c-9.887-6.726-17.262-15.845-17.262-32.335v-11.776c1.876-1.385,3.765-2.766,5.663-4.46c4.59-4.096,8.597-8.833,11.81-13.933
	c22.243,6.941,37.323,18.502,43.04,23.418c1.565,1.372,5.449,4.952,9.993,9.215c1.955-4.705,3.248-9.753,3.663-15.058
	C483.144,364.741,482.033,362.296,480.104,360.638z"/>
<g>
	<path style="fill:#00AAF0;" d="M364.261,456.57c-3.181,4.221-5.034,9.401-5.034,14.887v32.286c0,4.561,3.697,8.258,8.258,8.258
		h24.774v-25.094c0-5.017-2.281-9.763-6.199-12.897L364.261,456.57z"/>
	<path style="fill:#00AAF0;" d="M502.838,456.57c3.181,4.221,5.034,9.401,5.034,14.887v32.286c0,4.561-3.697,8.258-8.258,8.258
		H474.84v-25.094c0-5.017,2.281-9.763,6.199-12.897L502.838,456.57z"/>
</g>
<g>
</g>
<g>
</g>
<g>
</g>
<g>
</g>
<g>
</g>
<g>
</g>
<g>
</g>
<g>
</g>
<g>
</g>
<g>
</g>
<g>
</g>
<g>
</g>
<g>
</g>
<g>
</g>
<g>
</g>
</svg>
