<?xml version="1.0" encoding="utf-8"?>
<!-- Generator: Adobe Illustrator 23.0.1, SVG Export Plug-In . SVG Version: 6.00 Build 0)  -->
<svg version="1.1" id="Ebene_1" xmlns="http://www.w3.org/2000/svg"  x="0px" y="0px"
	 viewBox="0 0 1200 800" style="enable-background:new 0 0 1200 800;" xml:space="preserve">
<g>
	<path style="fill:#EEBDA4;" d="M222.3,339.8v-71.3c-22-2.9-44.9,13.9-44.9,36.8c0,22.4,19.7,40.6,45,36.8
		C222.4,341.3,222.3,340.6,222.3,339.8z"/>
	<path style="fill:#E6B49F;" d="M448.4,280.1c-8.2-8.8-20.7-13.7-35-11.6v71.3c0,0.8,0,1.5-0.1,2.3c14.3,2.2,26.9-2.8,35.1-11.6
		V280.1z"/>
	<g>
		<path style="fill:#EEBDA4;" d="M381.7,467.3c-5-1.9-8.3-6.7-8.3-12.1v-41.1C358,424.8,339.3,431,319.2,431
			c-21,0-39.5-5.8-54.6-15.4v39.2c0,5.6-3.5,10.7-8.7,12.7l-16.8,7.1l4.9,20.1c0,0,18.9,11.9,52.6,24.2c31.6,7.4,66.1-1.9,90.6-27.9
			l14.9-15.8L381.7,467.3z"/>
		<path style="fill:#E6B49F;" d="M301.4,477.9c9.8-3,7.6-19.2,7.6-24.9v-23.8c-19.6-0.6-30.2-4.2-44.4-13.3l0.1,39.3
			c-0.2,5.6-3.6,10.1-8.6,12.3l-16.9,7.1l21.9,22.6"/>
		<path style="fill:#E6B49F;" d="M302.5,479.4"/>
		<path style="fill:#3CB8E8;" d="M122.4,519.8l116.8-45.2l15,16c24.2,25.7,58.5,34.7,89.7,26.9c-9.3,14.1-16.3,32.6-16.3,56.1v197.7
			c0,15.4,12.4,27.8,27.8,27.8h-262c-13.4,0-24.2-10.9-24.2-24.2V602.4C69.2,541.7,122.4,519.8,122.4,519.8z"/>
		<g>
			<path style="fill:#20A6DC;" d="M239.1,474.6L118,521.5c0,0-53.2,21.9-53.2,82.5v172.4c0,13.4,10.9,24.2,24.2,24.2h37.1
				c-13.4,0-24.2-10.3-24.2-22.9V614.7c0-57.4,53.2-78.1,53.2-78.1l105.9-39.4"/>
		</g>
		<path style="fill:#5F6478;" d="M317.9,101.2c-71.9,0-130.1,58.3-130.1,130.1v52.4c8.7-8.1,24-12.4,36.1-10.8v-6.5
			c0-5.2,4.4-9.2,9.5-8.8c50.3,3.6,98.6-12.4,137.3-37.7c3.6-2.4,8.4-1.8,11.3,1.4c33.1,35.6,30,34.2,30,38.8v12.7
			c13.2-2,27.9,2.1,36.1,9.7v-51.3C448,159.4,389.7,101.2,317.9,101.2z"/>
		<path style="fill:#53596E;" d="M237.8,231.3c0-63.3,45.2-116,105.1-127.7c-8.1-1.6-16.5-2.4-25-2.4
			c-71.9,0-130.1,58.3-130.1,130.1v52.4c8.7-8.1,24-12.4,36.1-10.8v-6.5c0-5.2,4.4-9.2,9.5-8.8c1.5,0.1,3,0.2,4.5,0.3V231.3z"/>
		<path style="fill:#EEBDA4;" d="M413.4,268.5v71.3c0,0.8,0,1.5-0.1,2.3c25.2,3.8,45-14.4,45-36.8
			C458.3,282.9,438.5,264.7,413.4,268.5z"/>
		<path style="fill:#E6B49F;" d="M222.3,330.5c-6.2-6.7-9.9-15.6-9.9-25.2c0-9.4,3.8-17.7,9.9-24.1v-12.7
			c-22-2.9-44.9,13.9-44.9,36.8c0,22.4,19.7,40.6,45,36.8c0-0.8-0.1-1.5-0.1-2.3V330.5z"/>
		<path style="fill:#F5C5A9;" d="M381.9,216.9c-2.9-3.2-7.7-3.7-11.3-1.4c-38.7,25.3-89.9,41.3-140.2,37.7c-5.1-0.4-9.5,3.7-9.5,8.8
			v77.7c0,50,39.2,95.6,98.4,95.6c52.7,0,95.6-42.9,95.6-95.6v-84C414.8,251.1,415,252.5,381.9,216.9z"/>
	</g>
	<path style="fill:#EEBDA4;" d="M270.9,339.8v-87.7c-13.4,1.7-27,2.1-40.5,1.1c-5.1-0.4-9.5,3.7-9.5,8.8v77.7
		c0,50,39.2,95.6,98.4,95.6c8.4,0,16.5-1.1,24.2-3.1C298.9,421.2,270.9,382.1,270.9,339.8z"/>
</g>
<g>
	<path style="fill:#EEBDA4;" d="M803.3,340.8v-71.3c-22-2.9-44.9,13.9-44.9,36.8c0,22.4,19.7,40.6,45,36.8
		C803.4,342.3,803.3,341.6,803.3,340.8z"/>
	<path style="fill:#E6B49F;" d="M1029.4,281.1c-8.2-8.8-20.7-13.7-35-11.6v71.3c0,0.8,0,1.5-0.1,2.3c14.3,2.2,26.9-2.8,35.1-11.6
		V281.1z"/>
	<g>
		<path style="fill:#EEBDA4;" d="M962.7,468.3c-5-1.9-8.3-6.7-8.3-12.1v-41.1C939,425.8,920.3,432,900.2,432
			c-21,0-39.5-5.8-54.6-15.4v39.2c0,5.6-3.5,10.7-8.7,12.7l-17.3,6.7L832,480c0,0,27.6,11.4,45.7,40c31.6,7.4,66.1-1.9,90.6-27.9
			l14.9-15.8L962.7,468.3z"/>
		<path style="fill:#E6B49F;" d="M883,480c-4.4-1.7-4.4-7.9,0-9.6l5-1.9c5.3-2,8.7-7.1,8.7-12.7V432c-19.6-0.6-36.8-6.3-51.1-15.4
			v39.2c0,5.6-3.5,10.7-8.7,12.7l-17.3,6.7L832,480c0,0,27.6,11.4,45.7,40c16.4,3.8,33.6,3.1,49.7-2C909.3,490.8,883,480,883,480z"
			/>
		<path style="fill:#32A6DF;" d="M1098.2,520.8l-116.8-45.2l-15,16c-24.2,25.7-58.5,34.7-89.7,26.9c9.3,14.1,16.3,32.6,16.3,56.1
			v197.7c0,15.4-12.4,27.8-27.8,27.8h262c13.4,0,24.2-10.9,24.2-24.2V603.4C1151.4,542.7,1098.2,520.8,1098.2,520.8z"/>
		<path style="fill:#1799D6;" d="M945.2,772.2V574.6c0-24.7-7.7-43.7-17.6-58c-16.5,5.5-34.2,6.1-51,1.9
			c9.3,14.1,16.3,32.6,16.3,56.1v197.7c0,15.4-12.4,27.8-27.8,27.8h52.3C932.8,800,945.2,787.6,945.2,772.2z"/>
		<path style="fill:#5F6478;" d="M898.9,102.2c-71.9,0-130.1,58.3-130.1,130.1v52.4c8.7-8.1,24-12.4,36.1-10.8v-6.5
			c0-5.2,4.4-9.2,9.5-8.8c50.3,3.6,98.6-12.4,137.3-37.7c3.6-2.4,8.4-1.8,11.3,1.4c33.1,35.6,30,34.2,30,38.8v12.7
			c13.2-2,27.9,2.1,36.1,9.7v-51.3C1029,160.4,970.7,102.2,898.9,102.2z"/>
		<path style="fill:#53596E;" d="M818.8,232.3c0-63.3,45.2-116,105.1-127.7c-8.1-1.6-16.5-2.4-25-2.4
			c-71.9,0-130.1,58.3-130.1,130.1v52.4c8.7-8.1,24-12.4,36.1-10.8v-6.5c0-5.2,4.4-9.2,9.5-8.8c1.5,0.1,3,0.2,4.5,0.3V232.3z"/>
		<path style="fill:#EEBDA4;" d="M994.4,269.5v71.3c0,0.8,0,1.5-0.1,2.3c25.2,3.8,45-14.4,45-36.8
			C1039.3,283.9,1019.5,265.7,994.4,269.5z"/>
		<path style="fill:#E6B49F;" d="M803.3,331.5c-6.2-6.7-9.9-15.6-9.9-25.2c0-9.4,3.8-17.7,9.9-24.1v-12.7
			c-22-2.9-44.9,13.9-44.9,36.8c0,22.4,19.7,40.6,45,36.8c0-0.8-0.1-1.5-0.1-2.3V331.5z"/>
		<path style="fill:#F5C5A9;" d="M962.9,217.9c-2.9-3.2-7.7-3.7-11.3-1.4c-38.7,25.3-89.9,41.3-140.2,37.7c-5.1-0.4-9.5,3.7-9.5,8.8
			v77.7c0,50,39.2,95.6,98.4,95.6c52.7,0,95.6-42.9,95.6-95.6v-84C995.8,252.1,996,253.5,962.9,217.9z"/>
	</g>
	<path style="fill:#EEBDA4;" d="M851.9,340.8v-87.7c-13.4,1.7-27,2.1-40.5,1.1c-5.1-0.4-9.5,3.7-9.5,8.8v77.7
		c0,50,39.2,95.6,98.4,95.6c8.4,0,16.5-1.1,24.2-3.1C879.9,422.2,851.9,383.1,851.9,340.8z"/>
</g>
<path style="fill:#EEBDA4;" d="M528.9,447c43.7,46.5,115.3,46.5,159,0l17-18.1l-23.4-9.1c-5.7-2.2-9.5-7.7-9.5-13.8v-47.1
	c-17.7,12.2-39,19.3-62.1,19.3c-24.1,0-45.3-6.6-62.6-17.7v44.9c0,6.5-4,12.2-10,14.6l-24.9,9.6L528.9,447z"/>
<path style="fill:#E6B49F;" d="M577.3,447c-7.8-8.3-4.7-21.8,5.9-25.9l2.7-1c6-2.3,10-8.1,10-14.6v-28.1c-18.3-2.1-34.6-8-48.4-16.9
	v44.9c0,6.5-4,12.2-10,14.6l-24.9,9.6l16.3,17.3c28,29.8,67.5,40.4,103.7,32.1C612.3,474.3,593,463.7,577.3,447z"/>
<path style="fill:#3ABFF0;" d="M837,480l-133.9-51.8l-17.3,18.3c-42.6,45.3-112.3,45.3-154.9,0l-16.5-17.6L382.7,480
	c0,0-61,25.1-61,94.6v197.7c0,15.4,12.4,27.8,27.8,27.8h520.7c15.4,0,27.8-12.4,27.8-27.8V574.6C898,505.1,837,480,837,480z"/>
<g>
	<path style="fill:#32A6DF;" d="M371.7,772.2V549.6c0-40.5,20.7-65.9,38-80l-27,10.5c0,0-61,25.1-61,94.6v197.7
		c0,15.4,12.4,27.8,27.8,27.8h50C384.2,800,371.7,787.6,371.7,772.2z"/>
	<path style="fill:#32A6DF;" d="M438,800V598.5c0-6.9-5.6-12.5-12.5-12.5c-6.9,0-12.5,5.6-12.5,12.5V800H438z"/>
	<path style="fill:#32A6DF;" d="M806.7,800V598.5c0-6.9-5.6-12.5-12.5-12.5c-6.9,0-12.5,5.6-12.5,12.5V800H806.7z"/>
</g>
<path style="fill:#5F6478;" d="M608.4,0.1c-82.4,0-149.2,66.8-149.2,149.2v60.1c10-9.2,27.5-14.3,41.3-12.4v-7.4
	c0-5.9,5-10.6,10.9-10.1c57.7,4.1,113-14.2,157.4-43.2c4.1-2.7,9.6-2,13,1.6c37.9,40.8,34.4,39.2,34.4,44.5v14.6
	c15.2-2.3,32,2.4,41.3,11.1v-58.8C757.6,66.8,690.8,0.1,608.4,0.1z"/>
<path style="fill:#53596E;" d="M509.3,149.2c0-73.9,53.7-135.2,124.1-147.1c-8.1-1.4-16.5-2.1-25-2.1
	c-82.4,0-149.2,66.8-149.2,149.2v60.1c10-9.2,27.5-14.3,41.3-12.4v-7.4c0-5.2,3.8-9.4,8.7-10.1V149.2z"/>
<path style="fill:#EEBDA4;" d="M717.9,191.9v81.7c0,0.9-0.1,1.8-0.1,2.6c28.9,4.4,51.6-16.5,51.6-42.2
	C769.4,208.3,746.8,187.5,717.9,191.9z"/>
<path style="fill:#EEBDA4;" d="M498.9,273.6v-81.7c-25.2-3.4-51.5,16-51.5,42.2c0,25.6,22.6,46.6,51.6,42.2
	C499,275.3,498.9,274.5,498.9,273.6z"/>
<path style="fill:#E6B49F;" d="M757.1,204.2c-9.4-9.5-23.4-14.7-39.2-12.3v81.7c0,0.9,0,1.8-0.1,2.6c15.9,2.4,29.9-2.8,39.3-12.3
	V204.2z"/>
<path style="fill:#E6B49F;" d="M498.9,263.9c-7.7-7.8-12.3-18.3-12.3-29.9c0-11.2,4.8-21.1,12.3-28.6v-13.6
	c-25.2-3.4-51.5,16-51.5,42.2c0,25.6,22.6,46.6,51.6,42.2c0-0.9-0.1-1.8-0.1-2.6V263.9z"/>
<path style="fill:#F5C5A9;" d="M681.9,132.7c-3.4-3.6-8.8-4.3-13-1.6c-44.4,29-103.1,47.3-160.7,43.2c-5.8-0.4-10.9,4.2-10.9,10.1
	v89.1c0,57.3,44.9,109.6,112.8,109.6c60.4,0,109.6-49.2,109.6-109.6v-96.3C719.6,171.9,719.8,173.5,681.9,132.7z"/>
<path style="fill:#EEBDA4;" d="M547.3,273.6v-99.8c-13,1.2-26.1,1.4-39.2,0.5c-5.8-0.4-10.9,4.2-10.9,10.1v89.1
	c0,57.3,44.9,109.6,112.8,109.6c8.3,0,16.4-1,24.1-2.7C581,369.1,547.3,323.2,547.3,273.6z"/>
</svg>
