<svg height="512pt" viewBox="-21 0 512 512.00165" width="512pt" xmlns="http://www.w3.org/2000/svg"><path d="m215.785156 348.964844c-103.722656 183.527344-1.980468 3.5-89.371094 158.101562-3.945312 6.984375-14.183593 6.445313-17.382812-.910156l-25.1875-57.929688c-1.730469-3.976562-5.894531-6.328124-10.195312-5.757812l-62.621094 8.277344c-7.957032 1.058594-13.695313-7.4375-9.75-14.421875 58.011718-102.617188 28.980468-51.257813 89.371094-158.09375l62.570312 35.371093zm0 0" fill="#169b62"/><path d="m458.878906 450.746094-62.621094-8.277344c-4.296874-.570312-8.464843 1.78125-10.195312 5.757812l-25.183594 57.929688c-3.203125 7.355469-13.441406 7.894531-17.386718.910156l-46.148438-81.621094-13.984375-24.75-29.238281-51.730468 62.566406-35.363282 62.570312-35.371093c4.078126 7.214843 86.214844 152.511719 89.371094 158.09375 3.945313 6.984375-1.792968 15.480469-9.75 14.421875zm0 0" fill="#169b62"/><path d="m153.21875 313.601562 62.566406 35.363282c-1.191406 2.105468 3.75-6.636719-43.265625 76.554687-35.234375 1.34375-69.976562-26.535156-67.839843-68.269531.722656-13.582031-10.464844-25.300781-24.578126-24.574219-6.679687.320313-13.125-.332031-19.195312-1.824219 40.902344-72.355468 26.621094-47.09375 29.742188-52.621093zm0 0" fill="#127d4f"/><path d="m409.011719 330.871094c-6.113281 1.503906-12.566407 2.144531-19.207031 1.804687-13.75-.726562-25.28125 10.617188-24.574219 24.574219.890625 18.121094-5.304688 35.09375-17.449219 47.847656-13.335938 14.007813-31.929688 21.15625-50.4375 20.347656l-13.984375-24.753906-29.238281-51.730468 62.566406-35.359376 62.570312-35.371093c3.113282 5.511719-11.144531-19.714844 29.753907 52.640625zm0 0" fill="#127d4f"/><path d="m390.863281 311.976562c-25.878906-1.375-47.664062 20.035157-46.328125 46.328126 2.046875 41.734374-49.132812 62.496093-76.820312 31.824218-8.765625-9.703125-20.765625-14.5625-32.761719-14.5625-11.992187 0-23.996094 4.859375-32.757813 14.5625-27.820312 30.816406-78.941406 9.648438-76.820312-31.824218 1.378906-25.875-20.03125-47.664063-46.328125-46.328126-41.730469 2.046876-62.496094-49.128906-31.824219-76.820312 19.421875-17.53125 19.410156-47.992188 0-65.515625-30.828125-27.839844-9.636718-78.953125 31.824219-76.824219 25.878906 1.375 47.664063-20.03125 46.328125-46.328125-2.039062-41.625 49.058594-62.570312 76.820312-31.820312 17.535157 19.417969 47.992188 19.410156 65.519532 0 27.839844-30.828125 78.949218-9.640625 76.820312 31.820312-1.375 25.878907 20.03125 47.664063 46.328125 46.328125 41.730469-2.042968 62.496094 49.132813 31.824219 76.824219-19.421875 17.53125-19.414062 47.992187 0 65.515625 30.828125 27.839844 9.636719 78.953125-31.824219 76.820312zm0 0" fill="#1ed688"/><path d="m390.863281 311.976562c-25.878906-1.375-47.664062 20.035157-46.328125 46.328126 2.046875 41.734374-49.132812 62.496093-76.820312 31.824218-8.765625-9.703125-20.765625-14.5625-32.761719-14.5625-11.992187 0-23.996094 4.859375-32.757813 14.5625-4.796874 5.316406-10.289062 9.082032-16.078124 11.460938-16.308594-6.464844-28.910157-22.265625-27.835938-43.285156 1.375-25.875-20.03125-47.664063-46.328125-46.328126-41.730469 2.046876-62.496094-49.128906-31.824219-76.820312 9.707032-8.761719 14.554688-20.765625 14.554688-32.757812 0-11.996094-4.847656-23.996094-14.554688-32.757813-30.828125-27.839844-9.636718-78.953125 31.824219-76.824219 25.878906 1.375 47.664063-20.03125 46.328125-46.328125-.835938-15.15625 6.476562-33.140625 14.183594-46.4062498 10.632812.6367188 21.257812 5.1992188 29.730468 14.5859378 17.535157 19.417969 47.992188 19.410156 65.519532 0 27.839844-30.828125 78.949218-9.640625 76.820312 31.820312-1.375 25.878907 20.03125 47.664063 46.328125 46.328125 41.730469-2.042968 62.496094 49.132813 31.824219 76.824219-19.421875 17.53125-19.414062 47.992187 0 65.515625 30.828125 27.839844 9.636719 78.953125-31.824219 76.820312zm0 0" fill="#35e298"/><path d="m376.660156 202.398438c0 70.601562-51.640625 129.15625-119.210937 139.925781-7.324219 1.175781-14.839844 1.78125-22.496094 1.78125-78.253906 0-141.707031-63.449219-141.707031-141.707031 0-78.257813 63.453125-141.707032 141.707031-141.707032 7.65625 0 15.171875.609375 22.496094 1.78125 67.570312 10.769532 119.210937 69.324219 119.210937 139.925782zm0 0" fill="#169b62"/><path d="m376.660156 202.398438c0 70.601562-51.640625 129.15625-119.210937 139.925781-67.574219-10.769531-119.210938-69.320313-119.210938-139.925781 0-70.601563 51.636719-129.15625 119.210938-139.925782 67.570312 10.769532 119.210937 69.324219 119.210937 139.925782zm0 0" fill="#1ab975"/><path d="m329.476562 202.746094v50.933594c0 21.902343-17.917968 39.820312-39.820312 39.820312h-78.472656c-10.3125 0-18.75-8.4375-18.75-18.75v-86.320312c0-10.3125 8.4375-18.75 18.75-18.75h17.089844c1.652343 0 3.21875-.738282 4.269531-2.015626l40.226562-48.554687c6.902344-8.390625 19.175781-10.402344 28.078125-4.179687 9.960938 6.957031 11.722656 20.90625 4.148438 30.109374l-12.90625 15.660157c-2.894532 3.617187-.316406 8.980469 4.316406 8.980469 18.265625 0 33.070312 14.804687 33.070312 33.066406zm0 0" fill="#ffd993"/><path d="m140.433594 277.457031v-94.320312c0-6.5 5.269531-11.765625 11.765625-11.765625h26.3125c7.660156 0 13.921875 6.265625 13.921875 13.921875v90.007812c0 7.660157-6.265625 13.921875-13.921875 13.921875h-26.3125c-6.496094 0-11.765625-5.269531-11.765625-11.765625zm0 0" fill="#ffa90b"/></svg>