<?xml version="1.0" encoding="utf-8"?>
<!-- Generator: Adobe Illustrator 23.0.1, SVG Export Plug-In . SVG Version: 6.00 Build 0)  -->
<svg version="1.1" id="Ebene_1" xmlns="http://www.w3.org/2000/svg" xmlns:xlink="http://www.w3.org/1999/xlink" x="0px" y="0px"
	 viewBox="0 0 478.6 112" style="enable-background:new 0 0 478.6 112;" xml:space="preserve">
<title>Element 2</title>
<g>
	<g>
		<path style="fill:#4DB9EB;" d="M121.9,69c-0.1-1.1,0.6-1.7,1.7-1.7h7.3c0.9-0.1,1.6,0.5,1.7,1.4c0,0.1,0,0.1,0,0.2
			c0.5,2.4,2.5,3.6,6.4,3.6c4.3,0,5.7-1.7,5.7-3.6c0-2.7-3.3-3.9-7.3-5.3c-6.6-2.3-14.8-5-14.8-15c0-9.3,7.5-13.8,15.4-13.8
			s15.2,4.2,15.9,13.7c0.1,1.1-0.6,1.7-1.7,1.7h-7.3c-0.9,0.1-1.6-0.5-1.7-1.4c0-0.1,0-0.1,0-0.2c-0.5-2.4-2.3-3.6-5.3-3.6
			c-3.3,0-4.8,1.7-4.8,3.6c0,2.7,2.7,4.1,6.6,5.5c6.6,2.3,15.6,4.7,15.6,14.9c0,9.3-7.4,13.8-16.2,13.8S122.7,78.6,121.9,69z"/>
		<path style="fill:#4DB9EB;" d="M194.8,37.2v43c0.1,0.8-0.5,1.6-1.3,1.7c-0.1,0-0.2,0-0.4,0h-7.3c-0.8,0.1-1.6-0.5-1.7-1.3
			c0-0.1,0-0.2,0-0.4V63.1h-13.3v17.1c0.1,0.8-0.5,1.6-1.3,1.7c-0.1,0-0.2,0-0.4,0h-7.3c-0.8,0.1-1.6-0.5-1.7-1.3c0-0.1,0-0.2,0-0.4
			v-43c-0.1-0.8,0.5-1.6,1.3-1.7c0.1,0,0.2,0,0.4,0h7.3c0.8-0.1,1.6,0.5,1.7,1.3c0,0.1,0,0.2,0,0.4V53h13.3V37.2
			c-0.1-0.8,0.5-1.6,1.3-1.7c0.1,0,0.2,0,0.4,0h7.3c0.8-0.1,1.6,0.5,1.7,1.3C194.8,37,194.8,37.1,194.8,37.2z"/>
		<path style="fill:#4DB9EB;" d="M240.4,81.8h-8.1c-0.9,0.1-1.7-0.5-1.9-1.4l-1.8-5.8h-16.2l-1.8,5.8c-0.2,0.9-1,1.5-1.9,1.4h-8.1
			c-1.2,0-1.8-0.7-1.4-1.9l14-43c0.2-0.9,1-1.5,1.9-1.4h10.5c0.9-0.1,1.7,0.5,1.9,1.4l14,43C242.2,81.1,241.6,81.8,240.4,81.8z
			 M225.9,64.6l-5.1-17.5l-5.2,17.5H225.9z"/>
		<path style="fill:#4DB9EB;" d="M283.9,79.8c0.8,1.1,0.4,2-1,2h-8.5c-0.8,0.1-1.6-0.3-2-1l-11.2-14.1h-4.1v13.6
			c0.1,0.8-0.5,1.6-1.3,1.7c-0.1,0-0.2,0-0.4,0h-7.3c-0.8,0.1-1.6-0.5-1.7-1.3c0-0.1,0-0.2,0-0.4v-43c-0.1-0.8,0.5-1.6,1.3-1.7
			c0.1,0,0.2,0,0.4,0h16.3c8.7,0,15.9,7,15.9,15.7c0,0.1,0,0.1,0,0.2c-0.1,5.6-3.3,10.7-8.2,13.3L283.9,79.8L283.9,79.8z M257,57.3
			h7.3c2.9,0,5.3-2.6,5.3-6s-2.4-6-5.3-6H257V57.3z"/>
		<path style="fill:#4DB9EB;" d="M315.9,73.3v6.9c0.1,0.8-0.5,1.6-1.3,1.7c-0.1,0-0.2,0-0.4,0h-24.5c-0.8,0.1-1.6-0.5-1.7-1.3
			c0-0.1,0-0.2,0-0.4v-43c-0.1-0.8,0.5-1.6,1.3-1.7c0.1,0,0.2,0,0.4,0h24.2c0.8-0.1,1.6,0.5,1.7,1.3c0,0.1,0,0.2,0,0.4v6.9
			c0.1,0.8-0.5,1.6-1.3,1.7c-0.1,0-0.2,0-0.4,0h-15.2v7.8h13.6c0.8-0.1,1.6,0.5,1.7,1.3c0,0.1,0,0.2,0,0.4v6.6
			c0.1,0.8-0.5,1.6-1.3,1.7c-0.1,0-0.2,0-0.4,0h-13.6v8.2h15.5c0.7-0.2,1.5,0.3,1.7,1C315.9,73,315.9,73.1,315.9,73.3z"/>
		<path style="fill:#4DB9EB;" d="M350.3,71.7c0.8-0.1,1.6,0.5,1.7,1.3c0,0.1,0,0.2,0,0.4v6.9c0.1,0.8-0.5,1.6-1.3,1.7
			c-0.1,0-0.2,0-0.4,0h-28.4c-0.8,0.1-1.6-0.5-1.7-1.3c0-0.1,0-0.2,0-0.4v-5.4c0-0.7,0.2-1.4,0.6-2l17.1-27h-15.8
			c-0.8,0.1-1.6-0.5-1.7-1.3c0-0.1,0-0.2,0-0.4v-6.9c-0.1-0.8,0.5-1.6,1.3-1.7c0.1,0,0.2,0,0.4,0h27.8c0.8-0.1,1.6,0.5,1.7,1.3
			c0,0.1,0,0.2,0,0.4v5.4c0,0.7-0.2,1.4-0.6,2l-17.2,27H350.3z"/>
		<path style="fill:#4DB9EB;" d="M353.9,58.7c0-13.3,10.8-24.1,24.1-24.1s24.1,10.8,24.1,24.1S391.3,82.8,378,82.8
			c-13.2,0.1-24-10.4-24.1-23.6C353.9,59,353.9,58.9,353.9,58.7z M391.3,58.7c0-8.2-6-13.7-13.5-13.7s-13.5,5.5-13.5,13.7
			s6,13.7,13.5,13.7S391.3,66.9,391.3,58.7z"/>
		<path style="fill:#4DB9EB;" d="M434.1,35.5h7.3c0.8-0.1,1.6,0.5,1.7,1.3c0,0.1,0,0.2,0,0.4v43c0.1,0.8-0.5,1.6-1.3,1.7
			c-0.1,0-0.2,0-0.4,0h-5c-0.8,0-1.6-0.4-2-1.1L418.6,56v24.1c0.1,0.8-0.5,1.6-1.3,1.7c-0.1,0-0.2,0-0.4,0h-7.3
			c-0.8,0.1-1.6-0.5-1.7-1.3c0-0.1,0-0.2,0-0.4v-43c-0.1-0.8,0.5-1.6,1.3-1.7c0.1,0,0.2,0,0.4,0h5c0.8,0,1.6,0.4,2,1.1l15.8,24.7
			v-24c-0.1-0.8,0.5-1.6,1.3-1.7C433.9,35.5,434,35.5,434.1,35.5z"/>
		<path style="fill:#4DB9EB;" d="M478.6,73.3v6.9c0.1,0.8-0.5,1.6-1.3,1.7c-0.1,0-0.2,0-0.4,0h-24.5c-0.8,0.1-1.6-0.5-1.7-1.3
			c0-0.1,0-0.2,0-0.4v-43c-0.1-0.8,0.5-1.6,1.3-1.7c0.1,0,0.2,0,0.4,0h24.2c0.8-0.1,1.6,0.5,1.7,1.3c0,0.1,0,0.2,0,0.4v6.9
			c0.1,0.8-0.5,1.6-1.3,1.7c-0.1,0-0.2,0-0.4,0h-15.2v7.8H475c0.8-0.1,1.6,0.5,1.7,1.3c0,0.1,0,0.2,0,0.4v6.6
			c0.1,0.8-0.5,1.6-1.3,1.7c-0.1,0-0.2,0-0.4,0h-13.6v8.2h15.5c0.7-0.2,1.5,0.3,1.7,1C478.6,73,478.6,73.1,478.6,73.3z"/>
		<g id="Ebene_2_1_">
			<g>
				<defs>
					<rect id="SVGID_1_" x="-0.1" width="111.9" height="111.9"/>
				</defs>
				<clipPath id="SVGID_2_">
					<use xlink:href="#SVGID_1_"  style="overflow:visible;"/>
				</clipPath>
				<g id="Ebene_1-2" style="clip-path:url(#SVGID_2_);">
					<g>
						<g>
							<defs>
								<rect id="SVGID_3_" x="-0.1" width="111.9" height="111.9"/>
							</defs>
							<clipPath id="SVGID_4_">
								<use xlink:href="#SVGID_3_"  style="overflow:visible;"/>
							</clipPath>
							<g style="clip-path:url(#SVGID_4_);">
								<path style="fill:#FFFFFF;" d="M112,56c0,30.9-25.1,56-56,56S0,86.9,0,56S25.1,0,56,0S112,25.1,112,56L112,56"/>
								<path style="fill:#4DB9EB;" d="M80.4,20.7H31.9c-1.8,0-3.3,1.4-3.3,3.2c0,0,0,0,0,0.1v64c0,1.8,1.4,3.3,3.2,3.3
									c0,0,0,0,0.1,0h48.5c1.8,0,3.3-1.4,3.3-3.2c0,0,0,0,0-0.1V24c0.1-1.8-1.3-3.2-3.1-3.3C80.5,20.7,80.5,20.7,80.4,20.7"/>
								<path style="fill:#069BCA;" d="M35.2,20.7h-4.4c-1.8,0-3.3,1.4-3.3,3.2c0,0,0,0,0,0.1v64c0,1.8,1.4,3.3,3.2,3.3
									c0,0,0,0,0.1,0h4.4C35.2,91.3,35.2,20.7,35.2,20.7z"/>
								<path style="fill:#5D556B;" d="M29.6,29.4h-4.4c-0.6,0-1.1-0.5-1.1-1.1s0.5-1.1,1.1-1.1h4.4c0.6,0,1.1,0.5,1.1,1.1
									c0.1,0.5-0.3,1-0.9,1.1C29.7,29.4,29.7,29.4,29.6,29.4"/>
								<path style="fill:#5D556B;" d="M29.6,35h-4.4c-0.6,0-1.1-0.5-1.1-1.1s0.5-1.1,1.1-1.1h4.4c0.6,0,1.1,0.5,1.1,1.1
									c0.1,0.5-0.3,1-0.9,1.1C29.7,35,29.7,35,29.6,35"/>
								<path style="fill:#5D556B;" d="M29.6,40.5h-4.4c-0.6,0-1.1-0.5-1.1-1.1s0.5-1.1,1.1-1.1h4.4c0.6,0,1.1,0.5,1.1,1.1
									c0.1,0.5-0.3,1-0.9,1.1C29.7,40.5,29.7,40.5,29.6,40.5"/>
								<path style="fill:#5D556B;" d="M29.6,46h-4.4c-0.6,0-1.1-0.5-1.1-1.1s0.5-1.1,1.1-1.1h4.4c0.6,0,1.1,0.5,1.1,1.1
									c0.1,0.5-0.3,1-0.9,1.1C29.7,46,29.7,46,29.6,46"/>
								<path style="fill:#5D556B;" d="M29.6,51.5h-4.4c-0.6,0-1.1-0.5-1.1-1.1s0.5-1.1,1.1-1.1h4.4c0.6,0,1.1,0.5,1.1,1.1
									c0.1,0.5-0.3,1-0.9,1.1C29.7,51.5,29.7,51.5,29.6,51.5"/>
								<path style="fill:#5D556B;" d="M29.6,57h-4.4c-0.6,0-1.1-0.5-1.1-1.1s0.5-1.1,1.1-1.1h4.4c0.6,0,1.1,0.5,1.1,1.1
									c0.1,0.5-0.3,1-0.9,1.1C29.7,57,29.7,57,29.6,57"/>
								<path style="fill:#5D556B;" d="M29.6,62.5h-4.4c-0.6,0-1.1-0.5-1.1-1.1s0.5-1.1,1.1-1.1h4.4c0.6,0,1.1,0.5,1.1,1.1
									c0.1,0.5-0.3,1-0.9,1.1C29.7,62.5,29.7,62.5,29.6,62.5"/>
								<path style="fill:#5D556B;" d="M29.6,68.1h-4.4c-0.6,0-1.1-0.5-1.1-1.1s0.5-1.1,1.1-1.1h4.4c0.6,0,1.1,0.5,1.1,1.1
									c0.1,0.5-0.3,1-0.9,1.1C29.7,68.1,29.7,68.1,29.6,68.1"/>
								<path style="fill:#5D556B;" d="M29.6,73.6h-4.4c-0.6,0-1.1-0.5-1.1-1.1s0.5-1.1,1.1-1.1h4.4c0.6,0,1.1,0.5,1.1,1.1
									c0.1,0.5-0.3,1-0.9,1.1C29.7,73.6,29.7,73.6,29.6,73.6"/>
								<path style="fill:#5D556B;" d="M29.6,79.1h-4.4c-0.6,0-1.1-0.5-1.1-1.1s0.5-1.1,1.1-1.1h4.4c0.6,0,1.1,0.5,1.1,1.1
									c0.1,0.5-0.3,1-0.9,1.1C29.7,79.1,29.7,79.1,29.6,79.1"/>
								<path style="fill:#5D556B;" d="M29.6,84.6h-4.4c-0.6,0-1.1-0.5-1.1-1.1s0.5-1.1,1.1-1.1h4.4c0.6,0,1.1,0.5,1.1,1.1
									c0.1,0.5-0.3,1-0.9,1.1C29.7,84.6,29.7,84.6,29.6,84.6"/>
								<path style="fill:#3782AD;" d="M35.2,89c-0.6,0-1.1-0.5-1.1-1.1v-64c0-0.6,0.5-1.1,1.1-1.1s1.1,0.5,1.1,1.1v64
									C36.3,88.5,35.8,89,35.2,89"/>
								<path style="fill:#1781BB;" d="M72.1,53.8c-0.3-5.2-4.6-9.3-9.8-9.4c-3.2,0.1-6.2,1.6-8.1,4.1h-0.1c-0.1,0-0.2-0.1-0.4-0.1
									s-0.1,0-0.2-0.1s-0.2-0.1-0.4-0.1h-0.2c-0.1,0-0.3,0-0.4-0.1h-0.7c-2.9,0-5.3,2.4-5.3,5.3v0.2l0,0c-2.5,1.4-4,4-4.1,6.8
									c0,4.1,3.3,7.4,7.4,7.4l0,0h20.3c3.8,0,6.9-3.1,6.9-6.9C77.4,57.6,75.3,54.6,72.1,53.8 M70.3,66.3H50
									c-3.5,0-6.3-2.8-6.3-6.3c0.1-2.5,1.5-4.8,3.7-6l0.4-0.1V53c0-2.2,1.8-4.1,4-4.1h0.1h0.6c0.1,0,0.4,0,0.5,0.1h0.1
									c0.2,0,0.4,0.1,0.5,0.2l0,0c0.1,0.1,0.2,0.1,0.4,0.2c1.2,0.8,1.9,2.1,1.9,3.5c0,0.3,0.3,0.6,0.6,0.6s0.6-0.3,0.6-0.6
									c0-1.5-0.7-3-1.9-3.9c1.8-2.2,4.4-3.5,7.2-3.6c4.5,0.1,8.2,3.5,8.6,8c-0.8-0.1-1.6,0-2.4,0.1c-0.4,0-0.5,0.4-0.5,0.7
									s0.3,0.5,0.6,0.5h0.1c0.9-0.1,1.8-0.1,2.7,0c3.2,0.6,5.3,3.6,4.7,6.8C75.7,64.3,73.2,66.4,70.3,66.3"/>
								<path style="fill:#1781BB;" d="M45.3,65.1c0,0-5.4-6.2,1.4-11.3c0.2-2.7,2.3-4.8,4.9-5.1c4.7-0.7,3.3,1.6,3.5,1.2l0.2-1.7
									l2.7-2.1l3.8-0.8l3.5,0.4l4.1,1.9l1.3,3l0.5,2.3l0.4,1.2l1.3,1.3l2.4,1.3L76,59l0.5,2l-0.4,2.3L73.7,66l-2.5,1.1l-5,0.6H54
									l-5.7-0.6L45.3,65.1z"/>
							</g>
						</g>
					</g>
				</g>
			</g>
		</g>
	</g>
</g>
</svg>
