<?xml version="1.0"?>
<svg xmlns="http://www.w3.org/2000/svg" xmlns:xlink="http://www.w3.org/1999/xlink" version="1.1" id="Capa_1" x="0px" y="0px" viewBox="0 0 480 480" style="enable-background:new 0 0 480 480;" xml:space="preserve" width="512px" height="512px"><g><g>
	<g>
		<path d="M479.848,79.216c-0.054-0.543-0.161-1.078-0.32-1.6c-0.16-0.517-0.375-1.016-0.64-1.488    c-0.128-0.224-0.152-0.488-0.304-0.704s-0.344-0.304-0.496-0.488c-0.357-0.421-0.757-0.804-1.192-1.144    c-0.379-0.304-0.786-0.572-1.216-0.8c-0.447-0.23-0.916-0.415-1.4-0.552c-0.523-0.155-1.058-0.262-1.6-0.32    c-0.24,0-0.448-0.136-0.696-0.136H8c-0.242,0.036-0.483,0.084-0.72,0.144c-0.521,0.052-1.036,0.157-1.536,0.312    c-0.496,0.141-0.979,0.329-1.44,0.56c-0.421,0.23-0.819,0.498-1.192,0.8c-0.44,0.34-0.842,0.726-1.2,1.152    c-0.152,0.184-0.36,0.288-0.496,0.488c-0.136,0.2-0.176,0.48-0.304,0.704c-0.265,0.472-0.48,0.971-0.64,1.488    c-0.159,0.522-0.266,1.057-0.32,1.6c0,0.264-0.152,0.496-0.152,0.8v319.984c0,4.418,3.582,8,8,8h464c4.418,0,8-3.582,8-8v-320    C480,79.744,479.872,79.512,479.848,79.216z M446.304,88.016L240,230.296L33.696,88.016H446.304z M464,392.016H16V95.256    L235.456,246.6c2.735,1.888,6.353,1.888,9.088,0L464,95.256V392.016z" data-original="#000000" class="active-path" data-old_color="#000000" fill="#68B3E9"/>
	</g>
</g></g> </svg>
