<?xml version="1.0" encoding="utf-8"?>
<!-- Generator: Adobe Illustrator 23.0.3, SVG Export Plug-In . SVG Version: 6.00 Build 0)  -->
<svg version="1.1" id="Capa_1" xmlns="http://www.w3.org/2000/svg" xmlns:xlink="http://www.w3.org/1999/xlink" x="0px" y="0px"
	 viewBox="0 0 512 512" style="enable-background:new 0 0 512 512;" xml:space="preserve">
<circle style="fill:#41B4E6;" cx="256" cy="256" r="256"/>
<path style="fill:#00A5D8;" d="M512,256c0-6.2-0.2-12.4-0.7-18.5L405.2,131.4L106.8,248.8L221,363l1.5,5.4l1.9-2l0,0l-1.9,1.9
	l126.3,126.3C444.3,457.5,512,364.7,512,256z"/>
<polygon style="fill:#FFFFFF;" points="231.1,293.3 346.8,380.6 405.2,131.4 106.8,248.8 197.6,278.8 363.3,167.7 "/>
<polygon style="fill:#D2D2D7;" points="197.6,278.8 222.5,368.3 231.1,293.3 363.3,167.7 "/>
<polygon style="fill:#B9B9BE;" points="268.7,321.7 222.5,368.3 231.1,293.3 "/>
</svg>
