<?xml version="1.0"?>
<svg xmlns="http://www.w3.org/2000/svg" xmlns:xlink="http://www.w3.org/1999/xlink" version="1.1" id="Capa_1" x="0px" y="0px" viewBox="0 0 58 58" style="enable-background:new 0 0 58 58;" xml:space="preserve" width="512px" height="512px" class=""><g><g>
	<path d="M42.899,4.5c-0.465-2.279-2.484-4-4.899-4c-0.552,0-1,0.447-1,1s0.448,1,1,1c1.654,0,3,1.346,3,3s-1.346,3-3,3   c-0.552,0-1,0.447-1,1s0.448,1,1,1c2.414,0,4.434-1.721,4.899-4H56v9H2v-9h14h3c0.552,0,1-0.447,1-1s-0.448-1-1-1h-1.816   c0.414-1.162,1.514-2,2.816-2c1.654,0,3,1.346,3,3s-1.346,3-3,3c-0.552,0-1,0.447-1,1s0.448,1,1,1c2.757,0,5-2.243,5-5   s-2.243-5-5-5c-2.414,0-4.434,1.721-4.899,4H0v13v40h58v-40v-13H42.899z M56,55.5H2v-38h54V55.5z" data-original="#000000" class="active-path" data-old_color="#000000" fill="#68B3E9"/>
	<path d="M12.293,30.207C12.488,30.402,12.744,30.5,13,30.5s0.512-0.098,0.707-0.293L18,25.914V48.5h-3c-0.552,0-1,0.447-1,1   s0.448,1,1,1h8c0.552,0,1-0.447,1-1s-0.448-1-1-1h-3v-25c0-0.13-0.027-0.26-0.077-0.382c-0.101-0.245-0.296-0.44-0.541-0.541   c-0.244-0.101-0.52-0.101-0.764,0c-0.123,0.051-0.233,0.124-0.326,0.216l-5.999,6C11.902,29.184,11.902,29.816,12.293,30.207z" data-original="#000000" class="active-path" data-old_color="#000000" fill="#68B3E9"/>
	<path d="M38,48.5c-2.757,0-5-2.243-5-5c0-0.553-0.448-1-1-1s-1,0.447-1,1c0,3.859,3.14,7,7,7s7-3.141,7-7v-14c0-3.859-3.14-7-7-7   s-7,3.141-7,7s3.14,7,7,7c1.958,0,3.728-0.811,5-2.11v9.11C43,46.257,40.757,48.5,38,48.5z M38,34.5c-2.757,0-5-2.243-5-5   s2.243-5,5-5s5,2.243,5,5S40.757,34.5,38,34.5z" data-original="#000000" class="active-path" data-old_color="#000000" fill="#68B3E9"/>
	<path d="M26,2.5c1.654,0,3,1.346,3,3s-1.346,3-3,3c-0.552,0-1,0.447-1,1s0.448,1,1,1c2.757,0,5-2.243,5-5s-2.243-5-5-5   c-0.552,0-1,0.447-1,1S25.448,2.5,26,2.5z" data-original="#000000" class="active-path" data-old_color="#000000" fill="#68B3E9"/>
	<path d="M32,2.5c1.654,0,3,1.346,3,3s-1.346,3-3,3c-0.552,0-1,0.447-1,1s0.448,1,1,1c2.757,0,5-2.243,5-5s-2.243-5-5-5   c-0.552,0-1,0.447-1,1S31.448,2.5,32,2.5z" data-original="#000000" class="active-path" data-old_color="#000000" fill="#68B3E9"/>
</g></g> </svg>
