<?xml version="1.0" encoding="utf-8"?>
<!-- Generator: Adobe Illustrator 23.0.1, SVG Export Plug-In . SVG Version: 6.00 Build 0)  -->
<svg version="1.1" id="Ebene_1" xmlns="http://www.w3.org/2000/svg" xmlns:xlink="http://www.w3.org/1999/xlink" x="0px" y="0px"
	 viewBox="0 0 530 112" style="enable-background:new 0 0 530 112;" xml:space="preserve">
<title>Element 2</title>
<g>
	<g>
		<path style="fill:#4DB9EB;" d="M173.3,69.1c-0.1-1.1,0.6-1.7,1.7-1.7h7.3c0.9-0.1,1.6,0.5,1.7,1.4c0,0.1,0,0.1,0,0.2
			c0.5,2.4,2.5,3.6,6.4,3.6c4.3,0,5.7-1.7,5.7-3.6c0-2.7-3.3-3.9-7.3-5.3c-6.6-2.3-14.8-5-14.8-15c0-9.3,7.5-13.8,15.4-13.8
			s15.2,4.2,15.9,13.7c0.1,1.1-0.6,1.7-1.7,1.7h-7.3c-0.9,0.1-1.6-0.5-1.7-1.4c0-0.1,0-0.1,0-0.2c-0.5-2.4-2.3-3.6-5.3-3.6
			c-3.3,0-4.8,1.7-4.8,3.6c0,2.7,2.7,4.1,6.6,5.5c6.6,2.3,15.6,4.7,15.6,14.9c0,9.3-7.4,13.8-16.2,13.8S174.1,78.7,173.3,69.1z"/>
		<path style="fill:#4DB9EB;" d="M246.2,37.3v43c0.1,0.8-0.5,1.6-1.3,1.7c-0.1,0-0.2,0-0.4,0h-7.3c-0.8,0.1-1.6-0.5-1.7-1.3
			c0-0.1,0-0.2,0-0.4V63.2h-13.3v17.1c0.1,0.8-0.5,1.6-1.3,1.7c-0.1,0-0.2,0-0.4,0h-7.3c-0.8,0.1-1.6-0.5-1.7-1.3c0-0.1,0-0.2,0-0.4
			v-43c-0.1-0.8,0.5-1.6,1.3-1.7c0.1,0,0.2,0,0.4,0h7.3c0.8-0.1,1.6,0.5,1.7,1.3c0,0.1,0,0.2,0,0.4v15.8h13.3V37.3
			c-0.1-0.8,0.5-1.6,1.3-1.7c0.1,0,0.2,0,0.4,0h7.3c0.8-0.1,1.6,0.5,1.7,1.3C246.2,37.1,246.2,37.2,246.2,37.3z"/>
		<path style="fill:#4DB9EB;" d="M291.8,81.9h-8.1c-0.9,0.1-1.7-0.5-1.9-1.4l-1.8-5.8h-16.2l-1.8,5.8c-0.2,0.9-1,1.5-1.9,1.4H252
			c-1.2,0-1.8-0.7-1.4-1.9l14-43c0.2-0.9,1-1.5,1.9-1.4H277c0.9-0.1,1.7,0.5,1.9,1.4l14,43C293.6,81.2,293,81.9,291.8,81.9z
			 M277.3,64.7l-5.1-17.5L267,64.7H277.3z"/>
		<path style="fill:#4DB9EB;" d="M335.3,79.9c0.8,1.1,0.4,2-1,2h-8.5c-0.8,0.1-1.6-0.3-2-1l-11.2-14.1h-4.1v13.6
			c0.1,0.8-0.5,1.6-1.3,1.7c-0.1,0-0.2,0-0.4,0h-7.3c-0.8,0.1-1.6-0.5-1.7-1.3c0-0.1,0-0.2,0-0.4v-43c-0.1-0.8,0.5-1.6,1.3-1.7
			c0.1,0,0.2,0,0.4,0h16.3c8.7,0,15.9,7,15.9,15.7c0,0.1,0,0.1,0,0.2c-0.1,5.6-3.3,10.7-8.2,13.3L335.3,79.9L335.3,79.9z
			 M308.4,57.4h7.3c2.9,0,5.3-2.6,5.3-6s-2.4-6-5.3-6h-7.3V57.4z"/>
		<path style="fill:#4DB9EB;" d="M367.3,73.4v6.9c0.1,0.8-0.5,1.6-1.3,1.7c-0.1,0-0.2,0-0.4,0h-24.5c-0.8,0.1-1.6-0.5-1.7-1.3
			c0-0.1,0-0.2,0-0.4v-43c-0.1-0.8,0.5-1.6,1.3-1.7c0.1,0,0.2,0,0.4,0h24.2c0.8-0.1,1.6,0.5,1.7,1.3c0,0.1,0,0.2,0,0.4v6.9
			c0.1,0.8-0.5,1.6-1.3,1.7c-0.1,0-0.2,0-0.4,0h-15.2v7.8h13.6c0.8-0.1,1.6,0.5,1.7,1.3c0,0.1,0,0.2,0,0.4V62
			c0.1,0.8-0.5,1.6-1.3,1.7c-0.1,0-0.2,0-0.4,0h-13.6v8.2h15.5c0.7-0.2,1.5,0.3,1.7,1C367.3,73.1,367.3,73.2,367.3,73.4z"/>
		<path style="fill:#4DB9EB;" d="M401.7,71.8c0.8-0.1,1.6,0.5,1.7,1.3c0,0.1,0,0.2,0,0.4v6.9c0.1,0.8-0.5,1.6-1.3,1.7
			c-0.1,0-0.2,0-0.4,0h-28.4c-0.8,0.1-1.6-0.5-1.7-1.3c0-0.1,0-0.2,0-0.4V75c0-0.7,0.2-1.4,0.6-2l17.1-27h-15.8
			c-0.8,0.1-1.6-0.5-1.7-1.3c0-0.1,0-0.2,0-0.4v-6.9c-0.1-0.8,0.5-1.6,1.3-1.7c0.1,0,0.2,0,0.4,0h27.8c0.8-0.1,1.6,0.5,1.7,1.3
			c0,0.1,0,0.2,0,0.4v5.4c0,0.7-0.2,1.4-0.6,2l-17.2,27H401.7z"/>
		<path style="fill:#4DB9EB;" d="M405.3,58.8c0-13.3,10.8-24.1,24.1-24.1s24.1,10.8,24.1,24.1s-10.8,24.1-24.1,24.1
			c-13.2,0.1-24-10.4-24.1-23.6C405.3,59.1,405.3,59,405.3,58.8z M442.7,58.8c0-8.2-6-13.7-13.5-13.7s-13.5,5.5-13.5,13.7
			s6,13.7,13.5,13.7S442.7,67,442.7,58.8z"/>
		<path style="fill:#4DB9EB;" d="M485.5,35.6h7.3c0.8-0.1,1.6,0.5,1.7,1.3c0,0.1,0,0.2,0,0.4v43c0.1,0.8-0.5,1.6-1.3,1.7
			c-0.1,0-0.2,0-0.4,0h-5c-0.8,0-1.6-0.4-2-1.1L470,56.1v24.1c0.1,0.8-0.5,1.6-1.3,1.7c-0.1,0-0.2,0-0.4,0H461
			c-0.8,0.1-1.6-0.5-1.7-1.3c0-0.1,0-0.2,0-0.4v-43c-0.1-0.8,0.5-1.6,1.3-1.7c0.1,0,0.2,0,0.4,0h5c0.8,0,1.6,0.4,2,1.1l15.8,24.7
			v-24c-0.1-0.8,0.5-1.6,1.3-1.7C485.3,35.6,485.4,35.6,485.5,35.6z"/>
		<path style="fill:#4DB9EB;" d="M530,73.4v6.9c0.1,0.8-0.5,1.6-1.3,1.7c-0.1,0-0.2,0-0.4,0h-24.5c-0.8,0.1-1.6-0.5-1.7-1.3
			c0-0.1,0-0.2,0-0.4v-43c-0.1-0.8,0.5-1.6,1.3-1.7c0.1,0,0.2,0,0.4,0H528c0.8-0.1,1.6,0.5,1.7,1.3c0,0.1,0,0.2,0,0.4v6.9
			c0.1,0.8-0.5,1.6-1.3,1.7c-0.1,0-0.2,0-0.4,0h-15.2v7.8h13.6c0.8-0.1,1.6,0.5,1.7,1.3c0,0.1,0,0.2,0,0.4V62
			c0.1,0.8-0.5,1.6-1.3,1.7c-0.1,0-0.2,0-0.4,0h-13.6v8.2h15.5c0.7-0.2,1.5,0.3,1.7,1C530,73.1,530,73.2,530,73.4z"/>
		<g id="Ebene_2_1_">
			<g>
				<g>
					<defs>
						<rect id="SVGID_1_" y="0" width="111.9" height="111.9"/>
					</defs>
					<clipPath id="SVGID_2_">
						<use xlink:href="#SVGID_1_"  style="overflow:visible;"/>
					</clipPath>
					<g id="Ebene_1-2" style="clip-path:url(#SVGID_2_);">
						<g>
							<g>
								<g>
									<defs>
										<rect id="SVGID_3_" y="0" width="111.9" height="111.9"/>
									</defs>
									<clipPath id="SVGID_4_">
										<use xlink:href="#SVGID_3_"  style="overflow:visible;"/>
									</clipPath>
									<g style="clip-path:url(#SVGID_4_);">
										<path style="fill:#FFFFFF;" d="M112.1,56c0,30.9-25.1,56-56,56s-56-25.1-56-56s25.1-56,56-56S112.1,25.1,112.1,56
											L112.1,56"/>
										<path style="fill:#4DB9EB;" d="M80.5,20.7H32c-1.8,0-3.3,1.4-3.3,3.2c0,0,0,0,0,0.1v64c0,1.8,1.4,3.3,3.2,3.3
											c0,0,0,0,0.1,0h48.5c1.8,0,3.3-1.4,3.3-3.2c0,0,0,0,0-0.1V24c0.1-1.8-1.3-3.2-3.1-3.3C80.6,20.7,80.6,20.7,80.5,20.7"/>
										<path style="fill:#069BCA;" d="M35.3,20.7h-4.4c-1.8,0-3.3,1.4-3.3,3.2c0,0,0,0,0,0.1v64c0,1.8,1.4,3.3,3.2,3.3
											c0,0,0,0,0.1,0h4.4C35.3,91.3,35.3,20.7,35.3,20.7z"/>
										<path style="fill:#5D556B;" d="M29.7,29.4h-4.4c-0.6,0-1.1-0.5-1.1-1.1s0.5-1.1,1.1-1.1h4.4c0.6,0,1.1,0.5,1.1,1.1
											c0.1,0.5-0.3,1-0.9,1.1C29.8,29.4,29.8,29.4,29.7,29.4"/>
										<path style="fill:#5D556B;" d="M29.7,35h-4.4c-0.6,0-1.1-0.5-1.1-1.1s0.5-1.1,1.1-1.1h4.4c0.6,0,1.1,0.5,1.1,1.1
											c0.1,0.5-0.3,1-0.9,1.1C29.8,35,29.8,35,29.7,35"/>
										<path style="fill:#5D556B;" d="M29.7,40.5h-4.4c-0.6,0-1.1-0.5-1.1-1.1s0.5-1.1,1.1-1.1h4.4c0.6,0,1.1,0.5,1.1,1.1
											c0.1,0.5-0.3,1-0.9,1.1C29.8,40.5,29.8,40.5,29.7,40.5"/>
										<path style="fill:#5D556B;" d="M29.7,46h-4.4c-0.6,0-1.1-0.5-1.1-1.1s0.5-1.1,1.1-1.1h4.4c0.6,0,1.1,0.5,1.1,1.1
											c0.1,0.5-0.3,1-0.9,1.1C29.8,46,29.8,46,29.7,46"/>
										<path style="fill:#5D556B;" d="M29.7,51.5h-4.4c-0.6,0-1.1-0.5-1.1-1.1s0.5-1.1,1.1-1.1h4.4c0.6,0,1.1,0.5,1.1,1.1
											c0.1,0.5-0.3,1-0.9,1.1C29.8,51.5,29.8,51.5,29.7,51.5"/>
										<path style="fill:#5D556B;" d="M29.7,57h-4.4c-0.6,0-1.1-0.5-1.1-1.1s0.5-1.1,1.1-1.1h4.4c0.6,0,1.1,0.5,1.1,1.1
											c0.1,0.5-0.3,1-0.9,1.1C29.8,57,29.8,57,29.7,57"/>
										<path style="fill:#5D556B;" d="M29.7,62.5h-4.4c-0.6,0-1.1-0.5-1.1-1.1s0.5-1.1,1.1-1.1h4.4c0.6,0,1.1,0.5,1.1,1.1
											c0.1,0.5-0.3,1-0.9,1.1C29.8,62.5,29.8,62.5,29.7,62.5"/>
										<path style="fill:#5D556B;" d="M29.7,68.1h-4.4c-0.6,0-1.1-0.5-1.1-1.1c0-0.6,0.5-1.1,1.1-1.1h4.4c0.6,0,1.1,0.5,1.1,1.1
											c0.1,0.5-0.3,1-0.9,1.1C29.8,68.1,29.8,68.1,29.7,68.1"/>
										<path style="fill:#5D556B;" d="M29.7,73.6h-4.4c-0.6,0-1.1-0.5-1.1-1.1c0-0.6,0.5-1.1,1.1-1.1h4.4c0.6,0,1.1,0.5,1.1,1.1
											c0.1,0.5-0.3,1-0.9,1.1C29.8,73.6,29.8,73.6,29.7,73.6"/>
										<path style="fill:#5D556B;" d="M29.7,79.1h-4.4c-0.6,0-1.1-0.5-1.1-1.1c0-0.6,0.5-1.1,1.1-1.1h4.4c0.6,0,1.1,0.5,1.1,1.1
											c0.1,0.5-0.3,1-0.9,1.1C29.8,79.1,29.8,79.1,29.7,79.1"/>
										<path style="fill:#5D556B;" d="M29.7,84.6h-4.4c-0.6,0-1.1-0.5-1.1-1.1c0-0.6,0.5-1.1,1.1-1.1h4.4c0.6,0,1.1,0.5,1.1,1.1
											c0.1,0.5-0.3,1-0.9,1.1C29.8,84.6,29.8,84.6,29.7,84.6"/>
										<path style="fill:#3782AD;" d="M35.3,89c-0.6,0-1.1-0.5-1.1-1.1v-64c0-0.6,0.5-1.1,1.1-1.1s1.1,0.5,1.1,1.1v64
											C36.4,88.5,35.9,89,35.3,89"/>
										<path style="fill:#1781BB;" d="M53.2,48.2L53,48.1c-0.1,0-0.3,0-0.4,0h-0.7c-2.9,0-5.3,2.4-5.3,5.3v0.2l0,0
											c-2.5,1.4-4,4-4.1,6.8c0,4.1,3.3,7.4,7.4,7.4l0,0h20.3c3.8,0,6.9-3.1,6.9-6.9c0.4-3.3-1.7-6.3-4.9-7.1 M72.2,53.8
											c-0.3-5.2-4.6-9.3-9.8-9.4c-3.2,0.1-6.2,1.6-8.1,4.1h-0.1c-0.1,0-0.2-0.1-0.4-0.1 M70.4,66.3H50.1c-3.5,0-6.3-2.8-6.3-6.3
											c0.1-2.5,1.5-4.8,3.7-6l0.4-0.1V53c0-2.2,1.8-4.1,4-4.1H52h0.6c0.1,0,0.4,0,0.5,0.1h0.1c0.2,0,0.4,0.1,0.5,0.2l0,0
											c0.1,0.1,0.2,0.1,0.4,0.2c1.2,0.8,1.9,2.1,1.9,3.5c0,0.3,0.3,0.6,0.6,0.6s0.6-0.3,0.6-0.6c0-1.5-0.7-3-1.9-3.9
											c1.8-2.2,4.4-3.5,7.2-3.6c4.5,0.1,8.2,3.5,8.6,8c-0.8-0.1-1.6,0-2.4,0.1c-0.4,0-0.5,0.4-0.5,0.7s0.3,0.5,0.6,0.5h0.1
											c0.9-0.1,1.8-0.1,2.7,0c3.2,0.6,5.3,3.6,4.7,6.8C75.8,64.3,73.3,66.4,70.4,66.3"/>
										<path style="fill:#1781BB;" d="M45.4,65.1c0,0-5.4-6.2,1.4-11.3c0.2-2.7,2.3-4.8,4.9-5.1c4.7-0.7,3.3,1.6,3.5,1.2l0.2-1.7
											l2.7-2.1l3.8-0.8l3.5,0.4l4.1,1.9l1.3,3l0.5,2.3l0.4,1.2l1.6,0.9l2.1,1.7l1.1,2.2l0.1,2.1l-0.4,2.3L73.8,66l-2.5,1.1
											l-5,0.6H54.1l-5.7-0.6L45.4,65.1z"/>
									</g>
								</g>
							</g>
						</g>
					</g>
				</g>
			</g>
		</g>
	</g>
</g>
</svg>
