<?xml version="1.0" encoding="utf-8"?>
<!-- Generator: Adobe Illustrator 24.1.3, SVG Export Plug-In . SVG Version: 6.00 Build 0)  -->
<svg version="1.1" id="Ebene_1" xmlns:vectornator="http://vectornator.io"
	 xmlns="http://www.w3.org/2000/svg" xmlns:xlink="http://www.w3.org/1999/xlink" x="0px" y="0px" viewBox="0 0 802 325.5"
	 style="enable-background:new 0 0 802 325.5;" xml:space="preserve">
<g id="Untitled" vectornator:layerName="Untitled">
	<path style="fill-rule:evenodd;clip-rule:evenodd;fill:#E6E6E6;" d="M0,297.3c0-15.6,177.8-28.2,397.1-28.2
		c219.3,0,397.1,12.6,397.1,28.2s-177.8,28.2-397.1,28.2C177.8,325.5,0,312.9,0,297.3z"/>
	<path style="fill-rule:evenodd;clip-rule:evenodd;fill:#3749AF;" d="M707.4,313.1c-64.8-11.5-135.6-9.6-209.8,0
		c33.9-28.6,63.1-57.2,29.2-85.7c66,13.6,75.3,12.2,148.8,0C658.5,255.9,690.3,284.5,707.4,313.1z"/>
	<path style="opacity:0.2;fill-rule:evenodd;clip-rule:evenodd;enable-background:new    ;" d="M707.4,313.1
		c-64.8-11.5-135.6-9.6-209.8,0c33.9-28.6,63.1-57.2,29.2-85.7c66,13.6,75.3,12.2,148.8,0C658.5,255.9,690.3,284.5,707.4,313.1z"/>
	<path style="fill-rule:evenodd;clip-rule:evenodd;fill:#3749AF;" d="M691.6,300.9c-55-9.2-115.2-7.7-178.3,0
		c28.8-22.8,53.6-45.6,24.8-68.4c56.1,10.9,64,9.8,126.4,0C650,255.3,677.1,278.1,691.6,300.9z"/>
	<path style="fill-rule:evenodd;clip-rule:evenodd;fill:#2F2E41;" d="M641.3,234.8c0-16.2,13.1-29.3,29.3-29.3s29.3,13.1,29.3,29.3
		c0,16.2-13.1,29.3-29.3,29.3S641.3,251,641.3,234.8z"/>
	<path style="fill-rule:evenodd;clip-rule:evenodd;fill:#A0616A;" d="M537.6,200.8l20.3,3.4l10.2,29.3l-29.3,18.1l-33.8-50.8h31.6
		H537.6z"/>
	<path style="fill-rule:evenodd;clip-rule:evenodd;fill:#A0616A;" d="M547.7,198.6c0-26.2,21.2-47.4,47.4-47.4s47.4,21.2,47.4,47.4
		c0,26.2-21.2,47.4-47.4,47.4S547.7,224.7,547.7,198.6z"/>
	<path style="fill-rule:evenodd;clip-rule:evenodd;fill:#2F2E41;" d="M333.4,25.9c0,0-115.1,12.4-135.4,10.2
		c-20.3-2.3-29.3-4.5-29.3-4.5s-13.5,18.1-6.8,25.9c3.8,4.6,8.4,8.4,13.5,11.3c0,0,12.4-3.4,21.4,0c9,3.4,100.4,18.1,116.2,4.5
		C328.9,59.8,333.4,25.9,333.4,25.9z"/>
	<path style="fill-rule:evenodd;clip-rule:evenodd;fill:#2F2E41;" d="M341.3,277.5c0,0-75.6-21.4-89.1-116.2v-9
		c0,0-15,26.2-20.3,31.6c-6.2,6.2-28.2,62.1-27.1,67.7c1.1,5.6,0,7.9,0,7.9l-32.7-3.4v-10.2c0,0,17.5-52.5,18.6-64.9
		c1.1-12.4,43.4-98.7,43.4-98.7s15.8-32.7,42.9,0s29.3,55.3,29.3,55.3l35,67.7V277.5z"/>
	<path style="fill-rule:evenodd;clip-rule:evenodd;fill:#2F2E41;" d="M172.1,28.2l-36.1-12.4c0,0-33.8-24.8-25.9,0
		c7.9,24.8,44,79,54.2,73.3c10.2-5.6,22.4-19.6,19.6-21.7C181.1,65.4,163,50.8,172.1,28.2z"/>
	<path style="fill-rule:evenodd;clip-rule:evenodd;fill:#2F2E41;" d="M176.4,239.3l-29.1,14.2c0,0-35.2,5.4-15.6,15.6
		c19.7,10.2,73.9,21,76.6,11.5c2.7-9.5,1.6-25.2-1.2-24.8C204.2,256.2,184.5,258.3,176.4,239.3z"/>
	<path style="fill-rule:evenodd;clip-rule:evenodd;fill:#575A89;" d="M326.6,203.1c0,0-14.7,63.2,10.2,76.7
		c24.8,13.5,198.6,15.8,212.1-9c13.5-24.8,6.8-24.8,6.8-24.8l-36.1-40.6l29.3-2.3c0,0,0-9-10.2-10.2c-10.2-1.1-41.7-12.4-68.8-4.5
		c-27.1,7.9-42.9-15.8-42.9-15.8L326.6,203.1z"/>
	<path style="fill-rule:evenodd;clip-rule:evenodd;fill:#3F3D56;" d="M307.4,5.6l-19.2,104.9l132-15.8L444,0L307.4,5.6z"/>
	<path style="fill-rule:evenodd;clip-rule:evenodd;fill:#FFFFFF;" d="M311.4,9.6l-15.8,93.6l120.2-14.1l23.1-85.2L311.4,9.6z"/>
	<path style="fill-rule:evenodd;clip-rule:evenodd;fill:#B3B3B3;" d="M292.8,111.7l-4.5-1.1l-2.3,4.5l36.1,100.4l3.4-1.3l1.1-6.6
		L292.8,111.7z"/>
	<path style="fill-rule:evenodd;clip-rule:evenodd;fill:#D0CDE1;" d="M288.3,109.4l36.1,104.9l136.5-20.3l-40.6-99.3L288.3,109.4z"
		/>
	<path style="fill-rule:evenodd;clip-rule:evenodd;fill:#3F3D56;" d="M306.3,106.1v5.6l100.4-11.3l-1.1-5.6L306.3,106.1z"/>
	<path style="fill-rule:evenodd;clip-rule:evenodd;fill:#3F3D56;" d="M308.6,117.3l15.8,44L427,148.9L409,107.2L308.6,117.3z"/>
	<path style="fill-rule:evenodd;clip-rule:evenodd;fill:#A0616A;" d="M437.2,179.4l-3.4-9c0,0-25.9-45.1-39.5-36.1
		c-13.5,9,28.2,53,28.2,53h13.5L437.2,179.4z"/>
	<path style="fill-rule:evenodd;clip-rule:evenodd;fill:#A0616A;" d="M351.4,186.2l-3.4-13.5c0,0-9-41.7,6.8-39.5
		c15.8,2.3,20.3,41.7,20.3,41.7l-1.1,9L351.4,186.2z"/>
	<path style="fill-rule:evenodd;clip-rule:evenodd;fill:#575A89;" d="M378.5,180.5c0,0-29.3-4.5-30.5,2.3
		c-1.1,6.8-6.8,108.3,21.4,111.7c28.2,3.4,168.1,18.1,153.4-16.9c-14.7-35-37.2-30.5-37.2-30.5l-95.9,10.2L378.5,180.5z"/>
	<path style="fill-rule:evenodd;clip-rule:evenodd;fill:#575A89;" d="M467.1,193.5l-29.9-20.9l-19.7,15.2l24.8,27.1L467.1,193.5z"/>
	<path style="opacity:0.2;fill-rule:evenodd;clip-rule:evenodd;enable-background:new    ;" d="M387,213.8l4.5,42.9l77.8-4.5
		l-67.7-1.1L387,213.8z"/>
	<path style="fill-rule:evenodd;clip-rule:evenodd;fill:#2F2E41;" d="M562.1,207.2c0-31.2,25.3-56.4,56.4-56.4
		c31.2,0,56.4,25.3,56.4,56.4c0,31.2-25.3,56.4-56.4,56.4C587.4,263.6,562.1,238.3,562.1,207.2z"/>
	<path style="fill-rule:evenodd;clip-rule:evenodd;fill:#3749AF;" d="M328.3,42.3l69.9-2.4l6.8-25.8l-72.2,2.2L328.3,42.3z"/>
	<path style="fill-rule:evenodd;clip-rule:evenodd;fill:#E6E6E6;" d="M310.3,57l106.1-3.4l1.1-4.5l-106.1,3.7L310.3,57z"/>
	<path style="fill-rule:evenodd;clip-rule:evenodd;fill:#E6E6E6;" d="M308,68.3l106.1-3.4l1.1-4.5l-106.1,3.7L308,68.3z"/>
	<path style="fill-rule:evenodd;clip-rule:evenodd;fill:#E6E6E6;" d="M306.9,77.3l106.1-3.4l1.1-4.5L308,73.1L306.9,77.3z"/>
</g>
</svg>
