<?xml version="1.0" encoding="utf-8"?>
<!-- Generator: Adobe Illustrator 22.1.0, SVG Export Plug-In . SVG Version: 6.00 Build 0)  -->
<svg version="1.1" id="Ebene_1" xmlns="http://www.w3.org/2000/svg"  x="0px" y="0px"
	 viewBox="0 0 250 250" style="enable-background:new 0 0 250 250;" xml:space="preserve">
<path style="fill:#FFFFFF;" d="M250.5,125.3c0,69.2-56.1,125.2-125.3,125.2C56.1,250.5,0,194.4,0,125.3C0,56.1,56.1,0,125.3,0
	C194.4,0,250.5,56.1,250.5,125.3z"/>
<g>
	<g>
		<path style="fill:#4EB9EB;" d="M179.9,46.1H71.4c-4.1,0-7.4,3.3-7.4,7.4v142.9c0,4.1,3.3,7.4,7.4,7.4h108.4c4.1,0,7.4-3.3,7.4-7.4
			V53.5C187.3,49.4,184,46.1,179.9,46.1z"/>
	</g>
	<g>
		<path style="fill:#079BCA;" d="M78.8,46.1h-9.9c-4.1,0-7.4,3.3-7.4,7.4v142.9c0,4.1,3.3,7.4,7.4,7.4h9.9V46.1L78.8,46.1z"/>
	</g>
	<g>
		<g>
			<path style="fill:#5D556B;" d="M66.5,65.8h-9.9c-1.4,0-2.5-1.1-2.5-2.5c0-1.4,1.1-2.5,2.5-2.5h9.9c1.4,0,2.5,1.1,2.5,2.5
				C69,64.7,67.9,65.8,66.5,65.8z"/>
		</g>
	</g>
	<g>
		<g>
			<path style="fill:#5D556B;" d="M66.5,78.1h-9.9c-1.4,0-2.5-1.1-2.5-2.5c0-1.4,1.1-2.5,2.5-2.5h9.9c1.4,0,2.5,1.1,2.5,2.5
				C69,77,67.9,78.1,66.5,78.1z"/>
		</g>
	</g>
	<g>
		<g>
			<path style="fill:#5D556B;" d="M66.5,90.4h-9.9c-1.4,0-2.5-1.1-2.5-2.5c0-1.4,1.1-2.5,2.5-2.5h9.9c1.4,0,2.5,1.1,2.5,2.5
				C69,89.3,67.9,90.4,66.5,90.4z"/>
		</g>
	</g>
	<g>
		<g>
			<path style="fill:#5D556B;" d="M66.5,102.8h-9.9c-1.4,0-2.5-1.1-2.5-2.5c0-1.4,1.1-2.5,2.5-2.5h9.9c1.4,0,2.5,1.1,2.5,2.5
				C69,101.6,67.9,102.8,66.5,102.8z"/>
		</g>
	</g>
	<g>
		<g>
			<path style="fill:#5D556B;" d="M66.5,115.1h-9.9c-1.4,0-2.5-1.1-2.5-2.5c0-1.4,1.1-2.5,2.5-2.5h9.9c1.4,0,2.5,1.1,2.5,2.5
				C69,114,67.9,115.1,66.5,115.1z"/>
		</g>
	</g>
	<g>
		<g>
			<path style="fill:#5D556B;" d="M66.5,127.4h-9.9c-1.4,0-2.5-1.1-2.5-2.5c0-1.4,1.1-2.5,2.5-2.5h9.9c1.4,0,2.5,1.1,2.5,2.5
				C69,126.3,67.9,127.4,66.5,127.4z"/>
		</g>
	</g>
	<g>
		<g>
			<path style="fill:#5D556B;" d="M66.5,139.7h-9.9c-1.4,0-2.5-1.1-2.5-2.5c0-1.4,1.1-2.5,2.5-2.5h9.9c1.4,0,2.5,1.1,2.5,2.5
				C69,138.6,67.9,139.7,66.5,139.7z"/>
		</g>
	</g>
	<g>
		<g>
			<path style="fill:#5D556B;" d="M66.5,152h-9.9c-1.4,0-2.5-1.1-2.5-2.5s1.1-2.5,2.5-2.5h9.9c1.4,0,2.5,1.1,2.5,2.5
				S67.9,152,66.5,152z"/>
		</g>
	</g>
	<g>
		<g>
			<path style="fill:#5D556B;" d="M66.5,164.4h-9.9c-1.4,0-2.5-1.1-2.5-2.5c0-1.4,1.1-2.5,2.5-2.5h9.9c1.4,0,2.5,1.1,2.5,2.5
				C69,163.3,67.9,164.4,66.5,164.4z"/>
		</g>
	</g>
	<g>
		<g>
			<path style="fill:#5D556B;" d="M66.5,176.7h-9.9c-1.4,0-2.5-1.1-2.5-2.5c0-1.4,1.1-2.5,2.5-2.5h9.9c1.4,0,2.5,1.1,2.5,2.5
				C69,175.6,67.9,176.7,66.5,176.7z"/>
		</g>
	</g>
	<g>
		<g>
			<path style="fill:#5D556B;" d="M66.5,189h-9.9c-1.4,0-2.5-1.1-2.5-2.5c0-1.4,1.1-2.5,2.5-2.5h9.9c1.4,0,2.5,1.1,2.5,2.5
				C69,187.9,67.9,189,66.5,189z"/>
		</g>
	</g>
	<g>
		<g>
			<path style="fill:#3782AD;" d="M78.8,198.9c-1.4,0-2.5-1.1-2.5-2.5V53.5c0-1.4,1.1-2.5,2.5-2.5c1.4,0,2.5,1.1,2.5,2.5v142.9
				C81.3,197.8,80.2,198.9,78.8,198.9z"/>
		</g>
	</g>
</g>
<path style="fill:#1681BB;" d="M161.3,120c-0.7-11.7-10.3-21-21.9-21c-7,0-13.8,3.4-18.1,9.1c-0.1-0.1-0.2-0.1-0.3-0.1
	c-0.3-0.1-0.5-0.2-0.8-0.3c-0.1-0.1-0.3-0.1-0.4-0.2c-0.3-0.1-0.5-0.2-0.8-0.2c-0.1,0-0.3-0.1-0.4-0.1c-0.3-0.1-0.6-0.1-0.9-0.2
	c-0.1,0-0.3,0-0.4-0.1c-0.4,0-0.9-0.1-1.3-0.1c-6.4,0-11.7,5.2-11.7,11.7c0,0.2,0,0.3,0,0.5v0c-5.4,2.9-9.1,9.1-9.1,15.3
	c0,9.2,7.5,16.6,16.6,16.6h31.8c0.1,0,0.3,0,0.4,0l0.1,0l0.2,0c0.1,0,0.3,0,0.4,0h12.7c8.6,0,15.6-7,15.6-15.6
	C173,128.2,168,121.8,161.3,120z M157.4,148.3h-12.7c-0.1,0-0.1,0-0.2,0l-0.4,0l-0.3,0c-0.1,0-0.2,0-0.2,0h-31.8
	c-7.7,0-14.1-6.3-14.1-14.1c0-5.4,3.5-11,8.3-13.3l0.7-0.4v-0.8c0-0.2,0-0.3,0-0.5l0-0.2l0-0.3c0-0.1,0-0.2,0-0.3
	c0-5,4.1-9.1,9.1-9.1c0.4,0,0.8,0,1.2,0.1c0.1,0,0.2,0,0.3,0c0.3,0.1,0.7,0.1,1,0.2c0,0,0.1,0,0.1,0c0.4,0.1,0.7,0.3,1.1,0.4
	c0.1,0,0.2,0.1,0.3,0.1c0.3,0.2,0.6,0.3,0.9,0.5c2.5,1.6,4.2,4.4,4.2,7.6c0,0.7,0.6,1.3,1.3,1.3c0.7,0,1.3-0.6,1.3-1.3
	c0-3.6-1.6-6.8-4.1-8.9c3.7-4.9,9.8-7.9,15.9-7.9c10,0,18.4,7.9,19.2,18c-1.3-0.1-3.3-0.1-5.3,0.2c-0.7,0.1-1.2,0.8-1.1,1.5
	c0.1,0.6,0.6,1.1,1.3,1.1c0.1,0,0.1,0,0.2,0c2.9-0.4,5.9,0,6.1,0c6,1.1,10.6,6.7,10.6,12.9C170.4,142.4,164.6,148.3,157.4,148.3z"/>
<path style="fill:#1681BB;" d="M101.5,145.4c0,0-12-13.9,3.3-25.2c0,0,0.4-9.8,10.8-11.5c10.4-1.7,7.4,3.4,7.7,2.7l0.6-3.9l6-4.7
	l8.5-1.9l7.8,0.7l9.2,4.4l2.8,6.6l1.2,5.1l0.9,2.7l3,3l5.4,2.8l1.7,5.2l1.2,4.5l-0.9,5l-5.3,6.2l-5.7,2.5l-11.3,1.3h-27.7l-12.9-1.3
	L101.5,145.4z"/>
</svg>
