<?xml version="1.0" encoding="utf-8"?>
<!-- Generator: Adobe Illustrator 22.1.0, SVG Export Plug-In . SVG Version: 6.00 Build 0)  -->
<svg version="1.1" id="Ebene_1" xmlns="http://www.w3.org/2000/svg"  x="0px" y="0px"
	 viewBox="0 0 250 250" style="enable-background:new 0 0 250 250;" xml:space="preserve">
<g>
	<g>
		<path style="fill:#4EB9EB;" d="M212.7,2.3H44.1c-6.3,0-11.5,5.2-11.5,11.5V236c0,6.3,5.2,11.5,11.5,11.5h168.6
			c6.3,0,11.5-5.2,11.5-11.5V13.8C224.2,7.5,219,2.3,212.7,2.3z"/>
	</g>
	<g>
		<path style="fill:#079BCA;" d="M55.6,2.3H40.2c-6.3,0-11.5,5.2-11.5,11.5V236c0,6.3,5.2,11.5,11.5,11.5h15.4V2.3L55.6,2.3z"/>
	</g>
	<g>
		<g>
			<path style="fill:#5D556B;" d="M36.5,33H21c-2.1,0-3.8-1.7-3.8-3.8c0-2.1,1.7-3.8,3.8-3.8h15.4c2.1,0,3.8,1.7,3.8,3.8
				C40.3,31.3,38.6,33,36.5,33z"/>
		</g>
	</g>
	<g>
		<g>
			<path style="fill:#5D556B;" d="M36.5,52.1H21c-2.1,0-3.8-1.7-3.8-3.8c0-2.1,1.7-3.8,3.8-3.8h15.4c2.1,0,3.8,1.7,3.8,3.8
				C40.3,50.4,38.6,52.1,36.5,52.1z"/>
		</g>
	</g>
	<g>
		<g>
			<path style="fill:#5D556B;" d="M36.5,71.3H21c-2.1,0-3.8-1.7-3.8-3.8c0-2.1,1.7-3.8,3.8-3.8h15.4c2.1,0,3.8,1.7,3.8,3.8
				C40.3,69.6,38.6,71.3,36.5,71.3z"/>
		</g>
	</g>
	<g>
		<g>
			<path style="fill:#5D556B;" d="M36.5,90.5H21c-2.1,0-3.8-1.7-3.8-3.8c0-2.1,1.7-3.8,3.8-3.8h15.4c2.1,0,3.8,1.7,3.8,3.8
				C40.3,88.7,38.6,90.5,36.5,90.5z"/>
		</g>
	</g>
	<g>
		<g>
			<path style="fill:#5D556B;" d="M36.5,109.6H21c-2.1,0-3.8-1.7-3.8-3.8c0-2.1,1.7-3.8,3.8-3.8h15.4c2.1,0,3.8,1.7,3.8,3.8
				C40.3,107.9,38.6,109.6,36.5,109.6z"/>
		</g>
	</g>
	<g>
		<g>
			<path style="fill:#5D556B;" d="M36.5,128.8H21c-2.1,0-3.8-1.7-3.8-3.8c0-2.1,1.7-3.8,3.8-3.8h15.4c2.1,0,3.8,1.7,3.8,3.8
				C40.3,127,38.6,128.8,36.5,128.8z"/>
		</g>
	</g>
	<g>
		<g>
			<path style="fill:#5D556B;" d="M36.5,147.9H21c-2.1,0-3.8-1.7-3.8-3.8c0-2.1,1.7-3.8,3.8-3.8h15.4c2.1,0,3.8,1.7,3.8,3.8
				C40.3,146.2,38.6,147.9,36.5,147.9z"/>
		</g>
	</g>
	<g>
		<g>
			<path style="fill:#5D556B;" d="M36.5,167.1H21c-2.1,0-3.8-1.7-3.8-3.8c0-2.1,1.7-3.8,3.8-3.8h15.4c2.1,0,3.8,1.7,3.8,3.8
				C40.3,165.4,38.6,167.1,36.5,167.1z"/>
		</g>
	</g>
	<g>
		<g>
			<path style="fill:#5D556B;" d="M36.5,186.2H21c-2.1,0-3.8-1.7-3.8-3.8c0-2.1,1.7-3.8,3.8-3.8h15.4c2.1,0,3.8,1.7,3.8,3.8
				C40.3,184.5,38.6,186.2,36.5,186.2z"/>
		</g>
	</g>
	<g>
		<g>
			<path style="fill:#5D556B;" d="M36.5,205.4H21c-2.1,0-3.8-1.7-3.8-3.8c0-2.1,1.7-3.8,3.8-3.8h15.4c2.1,0,3.8,1.7,3.8,3.8
				C40.3,203.7,38.6,205.4,36.5,205.4z"/>
		</g>
	</g>
	<g>
		<g>
			<path style="fill:#5D556B;" d="M36.5,224.5H21c-2.1,0-3.8-1.7-3.8-3.8c0-2.1,1.7-3.8,3.8-3.8h15.4c2.1,0,3.8,1.7,3.8,3.8
				C40.3,222.8,38.6,224.5,36.5,224.5z"/>
		</g>
	</g>
	<g>
		<g>
			<path style="fill:#3782AD;" d="M55.6,239.9c-2.1,0-3.8-1.7-3.8-3.8V13.8c0-2.1,1.7-3.8,3.8-3.8c2.1,0,3.8,1.7,3.8,3.8V236
				C59.4,238.2,57.7,239.9,55.6,239.9z"/>
		</g>
	</g>
</g>
<path style="fill:#1681BB;" d="M183.8,117.3c-1.1-18.1-16-32.6-34-32.6c-10.9,0-21.5,5.4-28.1,14.1c-0.2-0.1-0.3-0.1-0.5-0.2
	c-0.4-0.2-0.8-0.4-1.2-0.5c-0.2-0.1-0.5-0.2-0.7-0.3c-0.4-0.1-0.8-0.3-1.2-0.4c-0.2-0.1-0.5-0.1-0.7-0.2c-0.5-0.1-0.9-0.2-1.4-0.3
	c-0.2,0-0.4-0.1-0.6-0.1c-0.7-0.1-1.3-0.1-2-0.1c-10,0-18.1,8.1-18.1,18.1c0,0.3,0,0.5,0,0.8v0c-8.4,4.6-14.1,14.1-14.1,23.7
	c0,14.3,11.6,25.9,25.9,25.9h49.4c0.2,0,0.4,0,0.6,0l0.1,0l0.3,0c0.2,0,0.4,0,0.6,0h19.7c13.4,0,24.2-10.9,24.2-24.2
	C202,129.9,194.3,120,183.8,117.3z M177.7,161.2H158c-0.1,0-0.2,0-0.3,0l-0.5,0l-0.4,0c-0.1,0-0.2,0-0.4,0H107
	c-12,0-21.8-9.8-21.8-21.8c0-8.4,5.4-17,13-20.6l1.1-0.5v-1.3c0-0.3,0-0.5,0-0.8l0-0.3l0-0.4c0-0.2,0-0.3,0-0.5
	c0-7.8,6.3-14.1,14.1-14.1c0.6,0,1.2,0.1,1.8,0.1c0.2,0,0.3,0,0.5,0.1c0.5,0.1,1.1,0.2,1.6,0.4c0.1,0,0.1,0,0.2,0.1
	c0.6,0.2,1.1,0.4,1.7,0.6c0.1,0.1,0.3,0.1,0.4,0.2c0.5,0.2,1,0.5,1.4,0.8c3.9,2.5,6.5,6.9,6.5,11.8c0,1.1,0.9,2,2,2c1.1,0,2-0.9,2-2
	c0-5.5-2.5-10.5-6.4-13.8c5.8-7.6,15.3-12.3,24.7-12.3c15.6,0,28.6,12.4,29.9,28c-2.1-0.1-5.1-0.2-8.2,0.2c-1.1,0.2-1.9,1.2-1.7,2.3
	c0.2,1,1,1.7,2,1.7c0.1,0,0.2,0,0.3,0c4.5-0.7,9.2,0,9.4,0c9.4,1.8,16.4,10.4,16.4,20.1C197.9,152.1,188.9,161.2,177.7,161.2z"/>
<path style="fill:#1681BB;" d="M90.8,156.7c0,0-18.7-21.6,5.1-39.2c0,0,0.6-15.2,16.8-17.9c16.2-2.7,11.5,5.3,12,4.1l0.9-6l9.3-7.2
	l13.3-2.9l12.1,1.1l14.3,6.8l4.4,10.3l1.9,7.9l1.3,4.3l4.7,4.7l8.4,4.4l2.7,8l1.9,6.9l-1.3,7.7l-8.3,9.7l-8.8,3.8l-17.6,2h-43l-20-2
	L90.8,156.7z"/>
</svg>
